<svg width="20" height="20" viewBox="0 0 20 20" fill="none" xmlns="http://www.w3.org/2000/svg">
<g clip-path="url(#clip0_108_466)">
<path d="M18.5151 19.9974C18.4843 19.9342 18.4154 19.9452 18.3647 19.9264C18.0865 19.8267 17.8538 19.6294 17.7099 19.3713C17.5659 19.1131 17.5204 18.8115 17.5818 18.5224C17.6998 17.9362 18.2499 17.5307 18.8742 17.5698C19.4629 17.6069 19.941 18.0918 19.9911 18.7019C20.0386 19.2797 19.6326 19.821 19.0454 19.9614C19.0198 19.9676 18.9932 19.9676 18.9843 19.9974H18.5151Z" fill="#6B6B6B"/>
<path d="M0.00260925 1.01885C0.0657649 0.969792 0.0548038 0.890456 0.0762037 0.825734C0.271934 0.272469 0.851818 -0.0824553 1.41396 0.0167148C2.02046 0.123714 2.45315 0.632613 2.44794 1.22972C2.44603 1.51742 2.34242 1.79517 2.15542 2.01381C1.96842 2.23246 1.7101 2.3779 1.42618 2.42439C1.14226 2.47089 0.851044 2.41545 0.604072 2.26787C0.3571 2.1203 0.170298 1.89011 0.0767258 1.61805C0.0568917 1.56064 0.0683747 1.48652 0.00260925 1.44842V1.36856C0.0349862 1.28027 0.0349862 1.18335 0.00260925 1.09506V1.01885Z" fill="#6B6B6B"/>
<path d="M0.00260925 18.5526C0.0678527 18.5062 0.0589796 18.4274 0.0824672 18.3637C0.280807 17.825 0.804321 17.5098 1.39778 17.5755C1.93434 17.6345 2.37225 18.0897 2.43697 18.6555C2.46509 18.9261 2.40185 19.1983 2.25732 19.4288C2.11279 19.6593 1.89528 19.8349 1.63944 19.9274C1.56271 19.9556 1.47033 19.9274 1.40874 19.9974H0.979174C0.417558 19.8872 0.0840331 19.5553 0.00260925 18.9822V18.906C0.0349493 18.8179 0.0349493 18.7211 0.00260925 18.633V18.5526Z" fill="#6B6B6B"/>
<path d="M0.00260982 18.9822C0.100736 19.2244 0.185292 19.4708 0.384676 19.6607C0.55744 19.8236 0.773527 19.8998 0.979174 19.999C0.686361 19.999 0.393027 19.9953 0.100214 19.999C0.0161802 19.999 -0.00417566 19.9828 -7.63102e-08 19.8987C0.00678525 19.5939 0.00260982 19.2881 0.00260982 18.9822Z" fill="#FDFDFD"/>
<path d="M0.00260925 1.09662C0.0337876 1.13538 0.0507853 1.18363 0.0507853 1.23337C0.0507853 1.28311 0.0337876 1.33136 0.00260925 1.37012V1.09662Z" fill="#6B6B6B"/>
<path d="M0.00260925 18.6309C0.0337464 18.6696 0.0507231 18.7178 0.0507231 18.7674C0.0507231 18.8171 0.0337464 18.8652 0.00260925 18.9039V18.6309Z" fill="#6B6B6B"/>
<path d="M2.86758 9.50309C3.11499 9.36895 3.33734 9.24995 3.55603 9.12834C4.20395 8.77063 4.85133 8.41222 5.4982 8.05312C6.20962 7.65853 6.88919 7.70394 7.5338 8.20188C8.33708 8.82143 9.14244 9.43889 9.94102 10.0647C10.0454 10.1482 10.1174 10.1446 10.2271 10.0804C10.8722 9.70457 11.5236 9.3392 12.1703 8.96601C12.817 8.59282 13.4532 8.60326 14.0842 9.00046C14.2826 9.1252 14.4804 9.24943 14.6772 9.37574C14.886 9.50831 14.9382 9.66855 14.8338 9.82618C14.7294 9.98381 14.5728 9.9979 14.3562 9.86533C14.1244 9.72127 13.8979 9.56834 13.6609 9.43315C13.3222 9.23951 12.9574 9.21133 12.6171 9.39557C11.9385 9.76094 11.273 10.1529 10.5768 10.548C10.8737 10.7782 11.1509 10.9948 11.4307 11.2104C12.1358 11.7548 12.8399 12.3007 13.5477 12.842C14.1359 13.2919 14.4308 13.8791 14.423 14.6229C14.4157 15.2931 14.423 15.9638 14.4183 16.6339C14.4183 16.7686 14.4512 16.8098 14.59 16.8083C15.2685 16.801 15.9439 16.8083 16.6209 16.8041C16.9544 16.8041 17.1298 16.6334 17.1309 16.2994C17.1345 14.7763 17.1309 13.2538 17.1361 11.7308C17.1361 11.6154 17.075 11.5742 16.9967 11.522C16.5504 11.2433 16.1057 10.9619 15.6595 10.6832C15.5812 10.6342 15.5029 10.5835 15.4758 10.4911C15.4548 10.4356 15.452 10.3749 15.4677 10.3177C15.4835 10.2604 15.517 10.2097 15.5634 10.1728C15.6783 10.0798 15.8041 10.0845 15.9257 10.1602C16.2456 10.3591 16.564 10.5611 16.8829 10.761C16.9544 10.8059 17.0259 10.8492 17.0964 10.8925C17.1606 10.8529 17.1309 10.7954 17.1309 10.7495C17.1329 8.41814 17.1329 6.08816 17.1309 3.75958C17.1309 3.35403 16.9696 3.19483 16.5619 3.19431H3.44486C3.02417 3.19431 2.87072 3.35089 2.87072 3.77263C2.87072 4.05239 2.87072 4.33268 2.87072 4.61244C2.87072 4.85045 2.76633 4.96893 2.57738 4.96685C2.38844 4.96476 2.29031 4.84106 2.28822 4.60461C2.28509 4.29144 2.28092 3.97828 2.28822 3.66772C2.3044 3.03355 2.73605 2.61182 3.37179 2.61182C7.79095 2.61182 12.2101 2.61182 16.6293 2.61182C17.2916 2.61182 17.7175 3.04347 17.7196 3.71991C17.7238 4.93083 17.7196 6.14123 17.7196 7.35163C17.7196 10.3132 17.7196 13.2745 17.7196 16.2357C17.7196 16.8265 17.432 17.2337 16.9216 17.3584C16.8198 17.3795 16.7159 17.3886 16.612 17.3856C12.2051 17.3856 7.79843 17.3856 3.39214 17.3856C2.72196 17.3856 2.28613 16.9612 2.28561 16.2931C2.28248 12.9154 2.28248 9.53772 2.28561 6.16002C2.28561 5.90374 2.38113 5.77691 2.57164 5.77586C2.72822 5.77586 2.83261 5.85207 2.85976 6.00918C2.86918 6.08009 2.87232 6.1517 2.86915 6.22317C2.86758 7.30569 2.86758 8.38613 2.86758 9.50309Z" fill="#6B6B6B"/>
<path d="M15.7477 5.82076C15.7474 6.16802 15.6439 6.50737 15.4505 6.79577C15.257 7.08416 14.9823 7.30862 14.6611 7.44067C14.34 7.57271 13.9868 7.60641 13.6464 7.53748C13.3061 7.46854 12.9939 7.30009 12.7494 7.05348C12.5049 6.80686 12.3392 6.4932 12.2732 6.15226C12.2072 5.81132 12.244 5.45847 12.3788 5.13845C12.5136 4.81843 12.7404 4.54565 13.0305 4.35472C13.3206 4.16378 13.6608 4.06328 14.008 4.06597C14.4707 4.07023 14.913 4.25696 15.2388 4.58556C15.5645 4.91415 15.7474 5.35805 15.7477 5.82076Z" fill="#6B6B6B"/>
<path d="M18.7666 2.43592C18.5261 2.43374 18.2915 2.36025 18.0927 2.22475C17.8939 2.08924 17.7398 1.89782 17.6498 1.67469C17.5598 1.45156 17.538 1.20675 17.5872 0.971239C17.6364 0.735728 17.7543 0.520095 17.9261 0.351623C18.0978 0.183151 18.3157 0.0694101 18.5521 0.0247905C18.7885 -0.019829 19.0329 0.00667802 19.2542 0.100958C19.4756 0.195238 19.664 0.353054 19.7956 0.554439C19.9273 0.755825 19.9962 0.99173 19.9937 1.23231C19.9897 1.55436 19.8584 1.86174 19.6285 2.08727C19.3986 2.31281 19.0887 2.43815 18.7666 2.43592Z" fill="#6B6B6B"/>
<path d="M1.48494 16.2916C1.48494 16.4414 1.4886 16.5912 1.48494 16.7404C1.47972 16.9357 1.36229 17.0646 1.19474 17.0661C1.0272 17.0677 0.904538 16.9393 0.901928 16.7462C0.897752 16.4403 0.897752 16.1345 0.901928 15.8286C0.901928 15.6376 1.03189 15.5076 1.19892 15.5123C1.36594 15.517 1.47764 15.6412 1.48442 15.8255C1.48964 15.9789 1.48494 16.1355 1.48494 16.2916Z" fill="#6B6B6B"/>
<path d="M16.2848 1.48546C16.1282 1.48546 15.9716 1.49068 15.815 1.48546C15.636 1.47815 15.5112 1.35236 15.5118 1.19265C15.5121 1.15347 15.5204 1.11478 15.5361 1.07886C15.5517 1.04295 15.5745 1.01056 15.6029 0.983628C15.6314 0.956691 15.6649 0.935759 15.7016 0.922081C15.7384 0.908402 15.7774 0.902256 15.8166 0.90401C16.1355 0.898268 16.4544 0.897746 16.7733 0.90401C16.8491 0.902746 16.9224 0.931491 16.9772 0.983986C17.0319 1.03648 17.0637 1.10847 17.0656 1.1843C17.0667 1.22351 17.0598 1.26253 17.0455 1.29904C17.0311 1.33555 17.0096 1.3688 16.9821 1.39681C16.9546 1.42481 16.9218 1.447 16.8856 1.46205C16.8493 1.47711 16.8105 1.48471 16.7712 1.48442C16.6105 1.4912 16.4476 1.48494 16.2848 1.48546Z" fill="#6B6B6B"/>
<path d="M19.1033 16.302C19.1033 16.4586 19.108 16.6152 19.1033 16.7718C19.1043 16.8474 19.076 16.9205 19.0242 16.9756C18.9724 17.0307 18.9012 17.0635 18.8256 17.0672C18.7864 17.0691 18.7471 17.063 18.7103 17.0492C18.6735 17.0354 18.6399 17.0143 18.6116 16.9871C18.5832 16.9598 18.5608 16.9271 18.5455 16.8909C18.5303 16.8547 18.5226 16.8157 18.5229 16.7765C18.5152 16.4511 18.5152 16.1258 18.5229 15.8004C18.5237 15.7244 18.5543 15.6518 18.6081 15.5981C18.6618 15.5445 18.7345 15.514 18.8105 15.5133C18.8496 15.5136 18.8883 15.5217 18.9243 15.5371C18.9603 15.5525 18.9929 15.5749 19.0201 15.6031C19.0473 15.6312 19.0687 15.6645 19.0828 15.701C19.097 15.7375 19.1038 15.7764 19.1028 15.8155C19.1064 15.9763 19.1033 16.1397 19.1033 16.302Z" fill="#6B6B6B"/>
<path d="M3.69644 19.0996C3.53985 19.0996 3.38327 19.1054 3.22668 19.0996C3.15103 19.1001 3.07817 19.0711 3.02352 19.0188C2.96887 18.9665 2.93671 18.8949 2.93387 18.8194C2.93223 18.7801 2.93862 18.741 2.95266 18.7043C2.9667 18.6676 2.98809 18.6342 3.01551 18.6061C3.04293 18.578 3.07581 18.5558 3.11212 18.5409C3.14844 18.5259 3.18742 18.5186 3.22668 18.5192C3.55168 18.5116 3.87703 18.5116 4.20272 18.5192C4.27736 18.5224 4.34788 18.5543 4.39957 18.6082C4.45126 18.6621 4.48011 18.734 4.48011 18.8087C4.48011 18.8834 4.45126 18.9552 4.39957 19.0091C4.34788 19.063 4.27736 19.0949 4.20272 19.0981C4.03466 19.1059 3.86555 19.0996 3.69644 19.0996Z" fill="#6B6B6B"/>
<path d="M16.2801 19.1002C16.1235 19.1002 15.9669 19.1054 15.8103 19.1002C15.7722 19.1007 15.7344 19.0937 15.699 19.0796C15.6636 19.0655 15.6313 19.0445 15.604 19.0179C15.5767 18.9914 15.5549 18.9597 15.5398 18.9246C15.5247 18.8896 15.5167 18.852 15.5162 18.8139C15.5157 18.7758 15.5227 18.7379 15.5368 18.7025C15.5509 18.6671 15.5719 18.6348 15.5984 18.6075C15.625 18.5802 15.6567 18.5584 15.6917 18.5434C15.7268 18.5283 15.7644 18.5203 15.8025 18.5198C16.1271 18.5125 16.4523 18.5125 16.778 18.5198C16.8541 18.52 16.927 18.5503 16.9809 18.6039C17.0348 18.6575 17.0654 18.7303 17.0661 18.8063C17.0663 18.8454 17.0586 18.8842 17.0435 18.9203C17.0284 18.9564 17.0063 18.9891 16.9784 19.0165C16.9504 19.0439 16.9173 19.0654 16.8809 19.0798C16.8445 19.0941 16.8056 19.1011 16.7665 19.1002C16.6058 19.1054 16.4414 19.1002 16.2801 19.1002Z" fill="#6B6B6B"/>
<path d="M3.71314 0.898798C3.86972 0.898798 4.02631 0.894622 4.18289 0.898798C4.36348 0.905061 4.48823 1.02615 4.4898 1.18587C4.48995 1.22515 4.48221 1.26405 4.46705 1.30028C4.45188 1.33652 4.42959 1.36933 4.4015 1.39679C4.37342 1.42424 4.3401 1.44578 4.30354 1.46011C4.26697 1.47445 4.22789 1.4813 4.18863 1.48025C3.87024 1.48703 3.55081 1.48756 3.23242 1.48025C3.19314 1.48111 3.1541 1.47398 3.11766 1.45928C3.08123 1.44459 3.04817 1.42263 3.02048 1.39475C2.9928 1.36687 2.97108 1.33366 2.95664 1.29712C2.94219 1.26058 2.93534 1.22149 2.93648 1.18222C2.94013 1.02198 3.06383 0.904539 3.24599 0.898276C3.40049 0.898798 3.55655 0.898798 3.71314 0.898798Z" fill="#6B6B6B"/>
<path d="M1.48494 3.71731C1.48494 3.87389 1.49016 4.03048 1.48494 4.18706C1.47763 4.36661 1.35237 4.49136 1.19265 4.49136C1.15337 4.49118 1.11452 4.48308 1.07844 4.46756C1.04235 4.45203 1.00977 4.42939 0.982629 4.40098C0.955492 4.37258 0.934358 4.33899 0.920492 4.30224C0.906626 4.26548 0.900311 4.22631 0.901925 4.18706C0.896705 3.86815 0.896183 3.54924 0.901925 3.23033C0.900882 3.19249 0.907307 3.15482 0.920831 3.11946C0.934355 3.0841 0.954714 3.05176 0.980744 3.02428C1.00677 2.99679 1.03796 2.97471 1.07253 2.95928C1.1071 2.94386 1.14437 2.9354 1.18221 2.93438C1.22138 2.93326 1.26037 2.94003 1.29688 2.95428C1.33338 2.96854 1.36664 2.98998 1.39469 3.01735C1.42273 3.04471 1.44499 3.07744 1.46014 3.11358C1.47528 3.14972 1.48301 3.18853 1.48285 3.22772C1.49068 3.39057 1.48442 3.55341 1.48494 3.71731Z" fill="#6B6B6B"/>
<path d="M19.1033 3.71731C19.1033 3.8739 19.108 4.03048 19.1033 4.18706C19.0965 4.36609 18.9718 4.49136 18.812 4.49084C18.7728 4.49031 18.7341 4.48195 18.6981 4.46627C18.6622 4.45059 18.6297 4.42789 18.6027 4.3995C18.5756 4.37111 18.5544 4.33761 18.5405 4.30096C18.5265 4.2643 18.52 4.22522 18.5213 4.18602C18.5156 3.86711 18.5145 3.5482 18.5213 3.22929C18.5213 3.15232 18.5519 3.07851 18.6063 3.02409C18.6607 2.96966 18.7346 2.93909 18.8115 2.93909C18.8885 2.93909 18.9623 2.96966 19.0167 3.02409C19.0712 3.07851 19.1017 3.15232 19.1017 3.22929C19.1064 3.39109 19.1033 3.55394 19.1033 3.71731Z" fill="#6B6B6B"/>
<path d="M19.1033 11.2694C19.1033 11.426 19.1085 11.5825 19.1033 11.7391C19.1043 11.7782 19.0973 11.8171 19.0828 11.8535C19.0682 11.8898 19.0464 11.9227 19.0186 11.9503C18.9908 11.9779 18.9577 11.9995 18.9213 12.0138C18.8849 12.0281 18.8459 12.0348 18.8068 12.0335C18.7692 12.0336 18.732 12.0262 18.6972 12.0117C18.6625 11.9972 18.631 11.976 18.6046 11.9492C18.5782 11.9224 18.5573 11.8907 18.5433 11.8558C18.5293 11.8209 18.5223 11.7835 18.5229 11.7459C18.5156 11.4213 18.5156 11.0961 18.5229 10.7704C18.5234 10.6944 18.5537 10.6217 18.6073 10.5678C18.6609 10.5139 18.7335 10.4832 18.8094 10.4823C18.9697 10.4823 19.0918 10.6049 19.1043 10.7829C19.1043 10.796 19.1043 10.809 19.1043 10.8221C19.1043 10.9719 19.1043 11.1211 19.1043 11.2709L19.1033 11.2694Z" fill="#6B6B6B"/>
<path d="M8.74837 0.898786C8.90495 0.898786 9.06154 0.894088 9.21812 0.898786C9.39819 0.905571 9.52242 1.02927 9.52189 1.18951C9.52136 1.22876 9.51301 1.2675 9.49733 1.30349C9.48165 1.33947 9.45896 1.37197 9.43059 1.39908C9.40221 1.4262 9.36871 1.44738 9.33205 1.46141C9.29539 1.47543 9.25631 1.48201 9.21708 1.48076C8.89817 1.4865 8.57926 1.48754 8.26087 1.48076C8.22276 1.48076 8.18502 1.47325 8.14981 1.45867C8.1146 1.44408 8.08261 1.42271 8.05566 1.39576C8.02872 1.36881 8.00734 1.33682 7.99275 1.30161C7.97817 1.2664 7.97066 1.22866 7.97066 1.19055C7.97066 1.15244 7.97817 1.11471 7.99275 1.0795C8.00734 1.04429 8.02872 1.0123 8.05566 0.98535C8.08261 0.958402 8.1146 0.937026 8.14981 0.922442C8.18502 0.907858 8.22276 0.900352 8.26087 0.900352C8.42319 0.895654 8.58604 0.898786 8.74837 0.898786Z" fill="#6B6B6B"/>
<path d="M11.2495 1.48545C11.093 1.48545 10.9364 1.49119 10.7798 1.48545C10.7406 1.48594 10.7017 1.47862 10.6653 1.46393C10.6289 1.44925 10.5959 1.42748 10.568 1.39989C10.5401 1.37231 10.518 1.33946 10.5029 1.30325C10.4878 1.26704 10.4801 1.2282 10.4802 1.18899C10.4833 1.0277 10.607 0.906613 10.7887 0.903481C11.1018 0.898262 11.414 0.898262 11.725 0.903481C11.9082 0.906613 12.0288 1.02562 12.0314 1.18847C12.0314 1.35966 11.9103 1.48023 11.7183 1.4865C11.5617 1.48963 11.4056 1.48598 11.2495 1.48545Z" fill="#6B6B6B"/>
<path d="M1.48494 8.74106C1.48494 8.89764 1.48964 9.05422 1.48494 9.21081C1.47815 9.39192 1.35863 9.51719 1.19891 9.52137C1.03085 9.52554 0.905056 9.39662 0.902447 9.20402C0.898271 8.89851 0.898271 8.593 0.902447 8.28748C0.902447 8.0928 1.0251 7.96857 1.1963 7.97014C1.3675 7.9717 1.48024 8.09645 1.48546 8.29375C1.48859 8.44198 1.48546 8.59126 1.48494 8.74106Z" fill="#6B6B6B"/>
<path d="M11.2428 19.1007C11.093 19.1007 10.9432 19.1043 10.7939 19.1007C10.6102 19.0944 10.4875 18.9796 10.4807 18.8178C10.4739 18.656 10.6039 18.5213 10.7939 18.5177C11.0992 18.5124 11.4051 18.513 11.7109 18.5177C11.9062 18.5177 12.0304 18.6408 12.0299 18.811C12.0293 18.9812 11.9051 19.0934 11.7078 19.1017H11.2381L11.2428 19.1007Z" fill="#6B6B6B"/>
<path d="M0.900357 11.2464C0.900357 11.0898 0.89566 10.9333 0.900357 10.7767C0.89998 10.7386 0.907114 10.7007 0.921349 10.6654C0.935585 10.63 0.956645 10.5978 0.983326 10.5706C1.01001 10.5434 1.04179 10.5217 1.07685 10.5068C1.11192 10.4919 1.14958 10.484 1.18769 10.4836C1.2258 10.4832 1.26361 10.4904 1.29896 10.5046C1.33432 10.5188 1.36652 10.5399 1.39374 10.5666C1.42095 10.5932 1.44264 10.625 1.45757 10.6601C1.47251 10.6952 1.48039 10.7328 1.48076 10.7709C1.48807 11.0961 1.48859 11.4213 1.48076 11.7464C1.48084 11.784 1.47344 11.8212 1.459 11.8559C1.44456 11.8906 1.42336 11.9221 1.39665 11.9485C1.36994 11.9749 1.33824 11.9958 1.30339 12.0098C1.26855 12.0239 1.23126 12.0309 1.19369 12.0304C1.0298 12.0304 0.907143 11.9124 0.90088 11.7324C0.89566 11.5716 0.900357 11.4087 0.900357 11.2464Z" fill="#6B6B6B"/>
<path d="M19.1033 8.74054C19.1033 8.89712 19.1069 9.05371 19.1033 9.21029C19.0975 9.3935 18.9812 9.51668 18.8199 9.52346C18.6586 9.53025 18.5244 9.39924 18.5208 9.20716C18.5156 8.90182 18.5161 8.59596 18.5208 8.29062C18.5239 8.09541 18.6445 7.97171 18.8152 7.97275C18.9859 7.9738 19.0991 8.09907 19.1038 8.29584C19.1033 8.44094 19.1033 8.59074 19.1033 8.74054Z" fill="#6B6B6B"/>
<path d="M8.73688 19.1002C8.5803 19.1002 8.42371 19.1049 8.26713 19.1002C8.08601 19.0934 7.96701 18.9723 7.96753 18.8089C7.96805 18.6456 8.08758 18.5224 8.26974 18.5187C8.58291 18.5125 8.89608 18.513 9.20611 18.5187C9.38827 18.5219 9.51302 18.6424 9.51928 18.8021C9.5245 18.9702 9.39663 19.0923 9.20611 19.1023H8.73636L8.73688 19.1002Z" fill="#6B6B6B"/>
<path d="M13.7794 0.898786C13.936 0.898786 14.0926 0.894088 14.2492 0.898786C14.4308 0.905571 14.5493 1.0251 14.5488 1.19003C14.5495 1.22931 14.5422 1.26833 14.5274 1.3047C14.5125 1.34107 14.4903 1.37401 14.4623 1.40152C14.4343 1.42904 14.4009 1.45053 14.3642 1.46469C14.3276 1.47886 14.2884 1.48539 14.2492 1.48389C13.936 1.49015 13.6242 1.49015 13.3138 1.48389C13.1197 1.48076 13.0007 1.35653 13.0064 1.18168C13.0116 1.0157 13.128 0.907137 13.3154 0.901396C13.4689 0.898786 13.6228 0.898786 13.7794 0.898786Z" fill="#6B6B6B"/>
<path d="M0.900359 13.7664C0.900359 13.6171 0.897228 13.4678 0.900359 13.3185C0.905057 13.1228 1.02093 13.0012 1.19317 13.0022C1.36542 13.0033 1.4792 13.1207 1.48285 13.3034C1.48877 13.6166 1.48877 13.9283 1.48285 14.2387C1.4792 14.4303 1.35132 14.5519 1.17908 14.5456C1.00684 14.5394 0.905579 14.4214 0.900882 14.2325C0.896706 14.0785 0.900359 13.9224 0.900359 13.7664Z" fill="#6B6B6B"/>
<path d="M6.23519 0.898786C6.39177 0.898786 6.54836 0.894088 6.70494 0.898786C6.88658 0.906093 7.00245 1.02614 7.00089 1.19212C7.00172 1.22972 6.99501 1.26711 6.98115 1.30207C6.96729 1.33703 6.94656 1.36886 6.92019 1.39567C6.89381 1.42249 6.86233 1.44374 6.8276 1.45817C6.79287 1.47261 6.7556 1.47993 6.71799 1.47971C6.39334 1.48772 6.06851 1.48772 5.74351 1.47971C5.70425 1.48025 5.66531 1.47262 5.62916 1.45732C5.593 1.44201 5.56042 1.41936 5.53348 1.3908C5.50654 1.36224 5.48583 1.32839 5.47266 1.29141C5.45948 1.25442 5.45414 1.2151 5.45696 1.17594C5.46375 1.01936 5.57649 0.906093 5.7503 0.899308C5.91001 0.895654 6.07286 0.898786 6.23519 0.898786Z" fill="#6B6B6B"/>
<path d="M19.1033 6.21745C19.1033 6.37977 19.108 6.54262 19.1033 6.70495C19.096 6.88606 18.9754 7.00141 18.8079 6.99828C18.7704 6.99877 18.7331 6.99175 18.6984 6.97763C18.6636 6.96352 18.632 6.94259 18.6055 6.91609C18.5789 6.88958 18.5579 6.85803 18.5437 6.82329C18.5296 6.78856 18.5225 6.75134 18.5229 6.71382C18.5152 6.38917 18.5152 6.06434 18.5229 5.73934C18.5227 5.70177 18.5299 5.66453 18.5443 5.62979C18.5586 5.59506 18.5796 5.56351 18.6063 5.53699C18.6329 5.51047 18.6645 5.48951 18.6993 5.47532C18.7341 5.46114 18.7713 5.45401 18.8089 5.45436C18.9749 5.45175 19.0923 5.56919 19.1043 5.74978C19.1043 5.76283 19.1043 5.77588 19.1043 5.78893C19.1033 5.93194 19.1033 6.07443 19.1033 6.21745Z" fill="#6B6B6B"/>
<path d="M6.23623 18.5156C6.39282 18.5156 6.5494 18.5098 6.70598 18.5156C6.88814 18.5239 7.00297 18.6445 7.00036 18.811C6.99775 18.9775 6.88084 19.0939 6.69711 19.097C6.38394 19.1029 6.07217 19.1029 5.76178 19.097C5.57701 19.0944 5.45957 18.9775 5.45644 18.8126C5.45331 18.6476 5.57701 18.5239 5.76961 18.5135H6.23936L6.23623 18.5156Z" fill="#6B6B6B"/>
<path d="M18.5171 13.7878C18.5171 13.6255 18.5119 13.4626 18.5171 13.3008C18.5245 13.1181 18.6429 13.0023 18.8089 13.0023C18.9749 13.0023 19.0955 13.1181 19.0986 13.3013C19.1038 13.6197 19.1043 13.9381 19.0986 14.2565C19.0998 14.294 19.0934 14.3314 19.0799 14.3665C19.0663 14.4015 19.0459 14.4335 19.0197 14.4605C18.9936 14.4874 18.9623 14.5089 18.9277 14.5235C18.8931 14.5381 18.8559 14.5457 18.8183 14.5457C18.7792 14.5476 18.7401 14.5415 18.7035 14.5277C18.6668 14.514 18.6333 14.4928 18.6052 14.4656C18.577 14.4384 18.5547 14.4058 18.5397 14.3696C18.5246 14.3335 18.5171 14.2946 18.5177 14.2555C18.5114 14.0999 18.5171 13.9439 18.5171 13.7878Z" fill="#6B6B6B"/>
<path d="M13.7695 19.1002C13.6129 19.1002 13.4563 19.1049 13.2998 19.1002C13.1176 19.0929 13.0007 18.9749 13.0012 18.8089C13.0017 18.6429 13.1176 18.5219 13.3003 18.5182C13.6187 18.5119 13.9371 18.5114 14.2554 18.5182C14.3303 18.5214 14.4011 18.5534 14.453 18.6075C14.5049 18.6616 14.5338 18.7337 14.5338 18.8087C14.5338 18.8836 14.5049 18.9557 14.453 19.0098C14.4011 19.064 14.3303 19.096 14.2554 19.0991C14.0926 19.1054 13.9318 19.1002 13.7695 19.1002Z" fill="#6B6B6B"/>
<path d="M0.900359 6.22682C0.900359 6.07024 0.896705 5.91366 0.900359 5.75707C0.9061 5.57282 1.02041 5.45539 1.18534 5.45278C1.22455 5.45109 1.26367 5.45754 1.30026 5.47171C1.33685 5.48589 1.37012 5.50747 1.39796 5.53512C1.42581 5.56277 1.44763 5.59588 1.46206 5.63237C1.47649 5.66886 1.48321 5.70794 1.48181 5.74715C1.48877 6.06554 1.48877 6.38393 1.48181 6.70232C1.48345 6.74153 1.4769 6.78065 1.46259 6.81718C1.44827 6.85372 1.42649 6.88687 1.39864 6.91451C1.3708 6.94216 1.33749 6.96371 1.30086 6.97777C1.26422 6.99183 1.22506 6.9981 1.18586 6.99618C1.02041 6.99618 0.9061 6.87665 0.900359 6.69292C0.896705 6.53895 0.900359 6.38289 0.900359 6.22682Z" fill="#6B6B6B"/>
<path d="M18.7692 18.1497C18.8939 18.1496 19.0159 18.1864 19.1196 18.2556C19.2234 18.3247 19.3044 18.423 19.3523 18.5382C19.4002 18.6533 19.413 18.78 19.389 18.9024C19.3649 19.0247 19.3052 19.1372 19.2173 19.2256C19.1293 19.3141 19.0172 19.3745 18.895 19.3992C18.7728 19.424 18.646 19.4119 18.5306 19.3647C18.4152 19.3174 18.3164 19.237 18.2466 19.1336C18.1769 19.0303 18.1394 18.9085 18.1387 18.7839C18.1394 18.6165 18.2059 18.4561 18.3239 18.3375C18.4419 18.2188 18.6019 18.1513 18.7692 18.1497Z" fill="#F6F0F4"/>
<path d="M1.21875 1.85082C1.09409 1.84812 0.973032 1.80855 0.870844 1.73711C0.768655 1.66567 0.689922 1.56555 0.644581 1.4494C0.59924 1.33325 0.589324 1.20628 0.616085 1.0845C0.642846 0.962716 0.705084 0.851594 0.794943 0.765154C0.884802 0.678715 0.998255 0.620833 1.12098 0.598815C1.24371 0.576797 1.37021 0.59163 1.48451 0.641441C1.59881 0.691252 1.6958 0.773808 1.76322 0.878691C1.83065 0.983573 1.86549 1.10608 1.86336 1.23075C1.85966 1.39831 1.78977 1.55759 1.66899 1.67378C1.5482 1.78997 1.38633 1.85362 1.21875 1.85082Z" fill="#F6F0F4"/>
<path d="M1.22919 19.4118C1.10458 19.4111 0.982952 19.3736 0.879625 19.304C0.776299 19.2343 0.695904 19.1357 0.648577 19.0204C0.601249 18.9051 0.589107 18.7784 0.613682 18.6563C0.638256 18.5341 0.698447 18.422 0.786666 18.334C0.874885 18.246 0.987183 18.186 1.1094 18.1618C1.23162 18.1375 1.35829 18.15 1.47344 18.1976C1.58859 18.2452 1.68707 18.3258 1.75646 18.4293C1.82585 18.5328 1.86305 18.6545 1.86336 18.7792C1.86212 18.9468 1.79486 19.1072 1.67616 19.2257C1.55745 19.3441 1.39686 19.4109 1.22919 19.4118Z" fill="#F6F0F4"/>
<path d="M8.51767 16.8052H3.46208C3.01581 16.8052 2.86758 16.6554 2.86758 16.207C2.86758 14.2617 2.86758 12.3164 2.8634 10.3711C2.8634 10.2291 2.90098 10.1503 3.02677 10.082C3.94436 9.58192 4.85916 9.07737 5.77118 8.5683C6.27694 8.28488 6.742 8.32299 7.20027 8.67791C9.19411 10.2229 11.1907 11.7642 13.1901 13.3018C13.6223 13.6343 13.8457 14.0581 13.8405 14.6067C13.8342 15.2832 13.8342 15.9596 13.8405 16.6361C13.8405 16.7738 13.8055 16.8072 13.6688 16.8067C11.9523 16.8032 10.2352 16.8027 8.51767 16.8052Z" fill="#F6F0F4"/>
<path d="M15.1631 5.83435C15.1599 6.14325 15.0345 6.43831 14.8143 6.65498C14.5942 6.87165 14.2971 6.99227 13.9882 6.99046C13.8346 6.98854 13.6829 6.95639 13.5417 6.89583C13.4005 6.83528 13.2726 6.74751 13.1654 6.63754C13.0581 6.52756 12.9736 6.39754 12.9166 6.25489C12.8596 6.11225 12.8312 5.95977 12.8331 5.80616C12.835 5.65256 12.8672 5.50083 12.9278 5.35966C12.9883 5.21848 13.0761 5.09061 13.1861 4.98335C13.296 4.87609 13.4261 4.79155 13.5687 4.73454C13.7113 4.67753 13.8638 4.64917 14.0174 4.65109C14.3262 4.65631 14.6203 4.78385 14.8351 5.0057C15.0499 5.22755 15.1679 5.52558 15.1631 5.83435Z" fill="#F6F0F4"/>
<path d="M18.7692 1.85134C18.6016 1.85078 18.441 1.78368 18.3227 1.66476C18.2045 1.54585 18.1383 1.38486 18.1387 1.21717C18.1385 1.09129 18.1757 0.968195 18.2456 0.863498C18.3155 0.758801 18.4149 0.677228 18.5312 0.629131C18.6476 0.581034 18.7756 0.568583 18.899 0.593358C19.0224 0.618133 19.1357 0.679017 19.2244 0.768281C19.3132 0.857546 19.3734 0.971167 19.3974 1.09472C19.4215 1.21828 19.4083 1.3462 19.3595 1.46224C19.3108 1.57829 19.2286 1.67723 19.1235 1.7465C19.0184 1.81578 18.8951 1.85227 18.7692 1.85134Z" fill="#F6F0F4"/>
</g>
<defs>
<clipPath id="clip0_108_466">
<rect width="19.9943" height="20" fill="white"/>
</clipPath>
</defs>
</svg>
