<svg width="18" height="20" viewBox="0 0 18 20" fill="none" xmlns="http://www.w3.org/2000/svg">
<g clip-path="url(#clip0_108_409)">
<path d="M3.31776 20C3.31776 19.9572 3.27443 19.9582 3.25147 19.9394C3.14133 19.8471 3.09487 19.7306 3.13976 19.5934C3.15805 19.5301 3.19661 19.4746 3.24951 19.4353C3.30242 19.3961 3.36674 19.3753 3.4326 19.3762C3.49106 19.3736 3.55004 19.3762 3.60851 19.3762H16.7104C17.0977 19.3762 17.1802 19.2937 17.1802 18.9111C17.1802 14.1725 17.1813 9.4339 17.1833 4.69528C17.1861 4.63516 17.1755 4.57518 17.1524 4.51961C17.1293 4.46404 17.0942 4.41423 17.0497 4.37374C15.9563 3.28591 14.8654 2.19583 13.7768 1.10348C13.7184 1.13584 13.7445 1.18752 13.7445 1.22719C13.7445 2.04079 13.7445 2.8544 13.7445 3.66801C13.7445 3.9598 13.852 4.06524 14.1459 4.06576C14.7123 4.06576 15.2786 4.06576 15.845 4.06576C16.1034 4.06576 16.2495 4.18582 16.2427 4.38783C16.2365 4.58201 16.096 4.69006 15.8444 4.69058C15.265 4.69058 14.6856 4.69058 14.1067 4.69058C13.5127 4.69058 13.1207 4.29335 13.1197 3.69515C13.1197 2.73208 13.116 1.76849 13.1233 0.805421C13.1233 0.659264 13.0894 0.625335 12.9432 0.625857C9.7069 0.630729 6.47161 0.631947 3.23737 0.629511C2.90434 0.629511 2.80778 0.725557 2.80778 1.05754V14.2179C2.80778 14.5384 2.71121 14.6877 2.49824 14.6877C2.28526 14.6877 2.18504 14.541 2.18504 14.2242V1.06224C2.18504 0.372693 2.55461 0.00364616 3.2452 0.00364616C6.59741 0.00364616 9.9498 0.0024282 13.3024 -7.75006e-06C13.3859 -0.00318129 13.4691 0.011681 13.5464 0.0435675C13.6237 0.075454 13.6932 0.123616 13.7502 0.184776C15.0399 1.4814 16.3332 2.77471 17.6302 4.06472C17.691 4.122 17.7387 4.19179 17.77 4.26929C17.8013 4.34679 17.8154 4.43016 17.8113 4.51363C17.8078 9.29748 17.8069 14.0824 17.8087 18.8683C17.8087 19.5271 17.6281 19.7891 17.0257 20.0021L3.31776 20Z" fill="#6B6B6B"/>
<path d="M1.01318 20C0.94845 19.94 0.85658 19.9431 0.78298 19.9123C-0.0579441 19.5756 -0.268827 18.5103 0.383137 17.8489C1.08208 17.14 1.79251 16.4395 2.49406 15.7354L3.43364 14.7958C3.86063 14.3683 4.35286 14.2571 4.91087 14.5019C4.99595 14.539 5.03667 14.5196 5.09304 14.4627C5.37178 14.1798 5.65053 13.8974 5.93657 13.6223C6.01801 13.544 6.00809 13.5007 5.94075 13.4198C5.06694 12.3732 4.65561 11.1659 4.68798 9.80348C4.7454 7.35013 6.67989 5.14003 9.10609 4.76576C12.0099 4.3179 14.6235 6.12763 15.2134 8.99387C15.8053 11.8758 13.78 14.7879 10.8704 15.2374C9.26217 15.4858 7.83087 15.0865 6.57601 14.054C6.49145 13.9841 6.44865 13.9872 6.374 14.064C6.10257 14.3448 5.82661 14.6211 5.54613 14.8929C5.47514 14.9618 5.4647 15.0134 5.50593 15.1084C5.72935 15.6278 5.64739 16.1091 5.25277 16.5095C4.21819 17.5576 3.17212 18.5948 2.1365 19.6336C1.94232 19.8283 1.69803 19.9201 1.44538 19.999L1.01318 20Z" fill="#6B6B6B"/>
<path d="M5.30966 9.99192C5.31183 9.06523 5.58866 8.15997 6.10517 7.39056C6.62168 6.62115 7.35468 6.02213 8.21154 5.66919C9.06839 5.31625 10.0106 5.22524 10.9192 5.40766C11.8278 5.59008 12.6619 6.03774 13.3161 6.69408C13.9703 7.35041 14.4153 8.18595 14.5948 9.0951C14.7743 10.0042 14.6802 10.9462 14.3245 11.8019C13.9688 12.6576 13.3674 13.3887 12.5963 13.9027C11.8253 14.4167 10.9191 14.6906 9.99242 14.6898C8.74879 14.6868 7.55719 14.1904 6.67922 13.3096C5.80126 12.4288 5.30869 11.2356 5.30966 9.99192Z" fill="#FEFEFE"/>
<path d="M4.99595 15.6899C4.98197 15.8352 4.91575 15.9704 4.8096 16.0705C3.7705 17.1103 2.73035 18.1496 1.68915 19.1883C1.63162 19.2476 1.56287 19.2948 1.4869 19.3272C1.41093 19.3596 1.32928 19.3766 1.24669 19.3771C1.1641 19.3776 1.08223 19.3617 1.00586 19.3302C0.929485 19.2988 0.860137 19.2525 0.801858 19.1939C0.743578 19.1354 0.697533 19.0659 0.666407 18.9894C0.635281 18.9129 0.619697 18.8309 0.620563 18.7484C0.62143 18.6658 0.63873 18.5842 0.671455 18.5083C0.70418 18.4325 0.751675 18.364 0.81117 18.3067C1.84854 17.2627 2.88834 16.2229 3.93057 15.1873C4.01848 15.094 4.13384 15.0311 4.25991 15.0078C4.38597 14.9845 4.51617 15.0021 4.63161 15.0578C4.85502 15.1601 4.99961 15.3882 4.99595 15.6899Z" fill="#FEFEFE"/>
<path d="M9.36499 10.314H6.38026C6.31528 10.3193 6.2499 10.3166 6.18556 10.3061C6.02896 10.2665 5.93657 10.1642 5.93762 9.99973C5.93866 9.8353 6.03314 9.73508 6.18921 9.69645C6.24094 9.68779 6.29353 9.68551 6.34581 9.68967H12.3925C12.438 9.68704 12.4835 9.68809 12.5288 9.6928C12.6974 9.72203 12.7955 9.82225 12.8065 9.99399C12.8096 10.073 12.782 10.1502 12.7296 10.2094C12.6772 10.2686 12.6039 10.3053 12.5251 10.3119C12.4668 10.3161 12.4082 10.317 12.3497 10.3145L9.36499 10.314Z" fill="#6B6B6B"/>
<path d="M10.1751 11.2515H12.9845C13.0429 11.2476 13.1016 11.249 13.1599 11.2557C13.3274 11.2854 13.4297 11.3882 13.4318 11.5605C13.4339 11.7327 13.3332 11.8371 13.1666 11.8711C13.1085 11.8786 13.0497 11.8803 12.9913 11.8763H7.31306C7.26765 11.8763 7.22171 11.8763 7.1763 11.8763C7.10073 11.8674 7.031 11.8312 6.98014 11.7746C6.92928 11.718 6.90077 11.6448 6.89994 11.5687C6.89911 11.4926 6.92601 11.4188 6.97562 11.3611C7.02523 11.3034 7.09416 11.2657 7.16951 11.2551C7.22171 11.2504 7.27391 11.2551 7.32611 11.2551L10.1751 11.2515Z" fill="#6B6B6B"/>
<path d="M9.50802 8.7522H7.30419C7.25199 8.75575 7.19957 8.75453 7.14759 8.74854C6.98003 8.71774 6.8819 8.61648 6.87355 8.44422C6.87121 8.36535 6.89955 8.28864 6.9526 8.23023C7.00566 8.17183 7.0793 8.13626 7.15803 8.13103C7.21639 8.12677 7.27495 8.1259 7.33342 8.12842H11.7609C12.0386 8.12842 12.1858 8.24065 12.1822 8.44631C12.1785 8.65197 12.036 8.75324 11.7698 8.75324H9.50802V8.7522Z" fill="#6B6B6B"/>
<path d="M10.955 6.05872C11.233 6.11775 11.5022 6.21268 11.7557 6.34112C12.9445 6.93862 13.6843 7.88725 13.9752 9.187C14.0384 9.46992 13.9538 9.64426 13.7502 9.68393C13.556 9.72204 13.4188 9.59206 13.3608 9.31854C13.139 8.27091 12.5523 7.49158 11.6205 6.96959C11.38 6.84119 11.1255 6.74083 10.8621 6.67049C10.7853 6.65157 10.7185 6.6043 10.6751 6.53817C10.6317 6.47204 10.615 6.39195 10.6282 6.31397C10.645 6.24033 10.6867 6.17474 10.7462 6.12824C10.8057 6.08174 10.8795 6.05719 10.955 6.05872Z" fill="#6B6B6B"/>
</g>
<defs>
<clipPath id="clip0_108_409">
<rect width="17.8113" height="20" fill="white"/>
</clipPath>
</defs>
</svg>
