<svg width="19" height="20" viewBox="0 0 19 20" fill="none" xmlns="http://www.w3.org/2000/svg">
<g clip-path="url(#clip0_108_411)">
<path d="M2.407 20C2.14228 19.7802 2.14907 19.5969 2.43571 19.4053C2.76517 19.185 3.07949 18.9422 3.43193 18.7579C4.06527 18.4268 4.73724 18.4258 5.42958 18.4853C6.57825 18.5845 7.72693 18.6633 8.8756 18.7505C9.58256 18.8028 10.29 18.855 10.997 18.9103C11.3238 18.9354 11.6488 18.8428 11.9133 18.6493C12.5399 18.2175 13.1701 17.7935 13.7987 17.3659C13.8415 17.3366 13.8828 17.3048 13.9282 17.2792C14.0817 17.1925 14.2316 17.2202 14.3261 17.3512C14.3493 17.3828 14.3658 17.4187 14.3746 17.4569C14.3834 17.495 14.3843 17.5345 14.3774 17.573C14.3704 17.6116 14.3556 17.6482 14.3339 17.6809C14.3123 17.7135 14.2842 17.7413 14.2514 17.7627C14.0091 17.9376 13.7601 18.1026 13.5126 18.2707C13.1257 18.5318 12.7294 18.7824 12.354 19.0623C11.8616 19.4277 11.3212 19.5358 10.7182 19.4857C9.0265 19.3452 7.33272 19.2246 5.63947 19.0983C5.2578 19.0701 4.87717 19.0074 4.4908 19.0461C4.10185 19.0887 3.72966 19.2276 3.40791 19.4502C3.13954 19.6319 2.87151 19.8143 2.60384 19.9974L2.407 20Z" fill="#6B6B6B"/>
<path d="M12.5733 5.15755H16.4783C17.0526 5.15755 17.3607 5.46351 17.3622 6.03315C17.3622 6.40386 17.3622 6.77474 17.3622 7.1458C17.3622 7.72901 17.0573 8.03341 16.4678 8.03341C13.9815 8.03341 11.4953 8.03341 9.00927 8.03341C8.83376 8.03918 8.65808 8.03552 8.48296 8.02245C8.07153 7.97807 7.79846 7.6768 7.79272 7.26432C7.78645 6.83461 7.78854 6.40543 7.79272 5.97572C7.79637 5.47552 8.11017 5.16068 8.61141 5.15964C9.93134 5.1565 11.252 5.15581 12.5733 5.15755Z" fill="#6B6B6B"/>
<path d="M12.4005 15.9833L15.0299 14.196C15.245 14.0504 15.4565 13.8984 15.6784 13.7632C16.038 13.5449 16.4662 13.4687 16.879 13.5495C17.2919 13.6304 17.6597 13.8624 17.9105 14.2002C18.2149 14.608 18.1485 15.1087 17.7314 15.398C16.9675 15.9279 16.1958 16.4464 15.4262 16.967C15.2508 17.086 15.0769 17.0625 14.9798 16.9189C14.8827 16.7753 14.9239 16.6057 15.0972 16.485C15.8282 15.9869 16.5592 15.4902 17.2902 14.9949C17.5669 14.8069 17.5794 14.6785 17.3424 14.4388C16.9503 14.0389 16.3749 13.9914 15.8804 14.325C14.9437 14.9589 14.0081 15.5945 13.0735 16.2318C12.6704 16.5059 12.2652 16.7774 11.8642 17.0552C11.5369 17.2823 11.1824 17.3445 10.7897 17.2849C9.50372 17.0897 8.21668 16.9059 6.92964 16.7174C6.86542 16.708 6.8012 16.6981 6.7375 16.684C6.55789 16.6443 6.46548 16.5138 6.49419 16.3456C6.50068 16.307 6.5149 16.2701 6.53598 16.2371C6.55706 16.2041 6.58458 16.1757 6.6169 16.1535C6.64921 16.1314 6.68566 16.116 6.72405 16.1083C6.76245 16.1006 6.80201 16.1007 6.84036 16.1086C7.37467 16.1852 7.90846 16.2637 8.44172 16.3441C9.27138 16.4673 10.1005 16.5942 10.9307 16.7137C11.3552 16.7753 11.7139 16.5357 11.7823 16.154C11.859 15.7363 11.6256 15.3922 11.1808 15.303C10.1428 15.0941 9.10273 14.8936 8.0637 14.69C8.01149 14.6801 7.95928 14.6707 7.91124 14.6571C7.71858 14.6049 7.62929 14.4743 7.6695 14.301C7.70709 14.1397 7.84284 14.0556 8.02872 14.0921C8.42501 14.1652 8.82026 14.2436 9.21551 14.3203C9.85355 14.4441 10.4905 14.573 11.1291 14.6915C11.9133 14.8346 12.26 15.1745 12.4005 15.9833Z" fill="#6B6B6B"/>
<path d="M12.5628 12.2987C11.2675 12.2987 9.97206 12.2877 8.67667 12.3044C8.18953 12.3107 7.75408 12 7.78645 11.4111C7.80838 11.0153 7.78645 10.6174 7.79167 10.2206C7.79637 9.75069 8.10495 9.42959 8.57225 9.42802C10.0953 9.42228 11.6188 9.42489 13.1419 9.42802C13.368 9.42802 13.5022 9.54498 13.4995 9.72511C13.4969 9.90524 13.3643 10.0123 13.1341 10.0123C11.6627 10.0123 10.1915 10.0123 8.72053 10.0123C8.39681 10.0123 8.37697 10.0321 8.37697 10.3532C8.37697 10.7044 8.37697 11.056 8.37697 11.4079C8.37697 11.6773 8.41248 11.7128 8.67876 11.7134H14.6738C15.2795 11.7134 15.885 11.7134 16.4903 11.7134C16.7211 11.7134 16.7754 11.6585 16.7759 11.4246C16.7759 11.0539 16.7759 10.683 16.7759 10.312C16.7759 10.0619 16.7284 10.0133 16.4819 10.0128H14.666C14.5689 10.0128 14.4697 10.0175 14.3892 9.94492C14.3425 9.90864 14.3086 9.8584 14.2923 9.8015C14.2761 9.7446 14.2784 9.68401 14.2989 9.62852C14.3176 9.5686 14.3556 9.51655 14.407 9.48047C14.4584 9.4444 14.5202 9.42632 14.583 9.42906C14.8106 9.42436 15.0382 9.42906 15.2664 9.42906C15.6841 9.42906 16.1018 9.42906 16.5159 9.42906C17.0411 9.42906 17.358 9.74234 17.3617 10.2645C17.3641 10.6682 17.3641 11.0718 17.3617 11.4753C17.357 11.9828 17.0364 12.3018 16.5263 12.3023C15.2057 12.3009 13.8845 12.2997 12.5628 12.2987Z" fill="#6B6B6B"/>
<path d="M12.5702 0.89389H16.495C17.0552 0.89389 17.3607 1.20038 17.3622 1.76271C17.3622 2.15326 17.3622 2.54589 17.3622 2.93383C17.358 3.43716 17.0489 3.7567 16.5493 3.75775C14.7855 3.76227 13.0216 3.76227 11.2575 3.75775C11.0304 3.75775 10.8947 3.64392 10.8952 3.4664C10.8957 3.28888 11.0372 3.17349 11.2789 3.17297H16.414C16.7597 3.17297 16.7769 3.15574 16.7769 2.80748C16.7769 2.45922 16.7769 2.1047 16.7769 1.75331C16.7769 1.53088 16.7247 1.47815 16.5007 1.47815H8.65057C8.41352 1.47815 8.37802 1.51417 8.37697 1.74965C8.37697 2.13254 8.37697 2.51648 8.37697 2.90146C8.37697 3.13537 8.41352 3.17088 8.65266 3.17192C9.01814 3.17192 9.38363 3.17192 9.74599 3.17192C9.98251 3.17192 10.1063 3.27635 10.1089 3.46013C10.1115 3.64392 9.99295 3.75461 9.75643 3.75618C9.37214 3.75931 8.98838 3.7614 8.6041 3.75618C8.0945 3.74887 7.79428 3.44552 7.79115 2.93801C7.78871 2.52832 7.78871 2.11827 7.79115 1.70788C7.79428 1.20717 8.10442 0.89389 8.60619 0.89389C9.92751 0.89389 11.2488 0.89389 12.5702 0.89389Z" fill="#6B6B6B"/>
<path d="M3.60109 3.42149C3.64809 3.14111 3.69038 2.84715 3.74938 2.55267C3.76099 2.51321 3.7607 2.4712 3.74853 2.43191C3.73636 2.39262 3.71286 2.3578 3.68098 2.33181C3.48675 2.14959 3.29931 1.95954 3.10664 1.77471C3.00222 1.6755 2.91868 1.57003 2.97141 1.41653C3.02415 1.26302 3.14319 1.22125 3.28991 1.2035C3.55463 1.17165 3.81673 1.12257 4.08093 1.09229C4.12246 1.08977 4.16238 1.07526 4.19583 1.05052C4.22929 1.02577 4.25485 0.991858 4.26941 0.95288C4.38637 0.70696 4.51116 0.464694 4.62811 0.218773C4.68868 0.0918963 4.77274 0.000524266 4.9205 2.1412e-06C5.06827 -0.000519984 5.15337 0.094507 5.21394 0.219295C5.32985 0.458428 5.45307 0.694429 5.56324 0.936172C5.5794 0.981052 5.60873 1.02001 5.64739 1.04796C5.68605 1.0759 5.73224 1.09153 5.77992 1.09281C6.05091 1.12205 6.3198 1.16956 6.58974 1.20611C6.71505 1.22334 6.81321 1.2766 6.8602 1.39878C6.91241 1.52931 6.87012 1.64104 6.77405 1.73502C6.58817 1.91725 6.40856 2.10364 6.21276 2.27751C6.10468 2.37358 6.06344 2.46391 6.10155 2.61376C6.16003 2.84611 6.18875 3.08628 6.22738 3.32333C6.2514 3.46848 6.25923 3.61259 6.1146 3.70813C5.98198 3.79533 5.85667 3.75147 5.73084 3.68255C5.53766 3.57813 5.33142 3.49093 5.14867 3.36928C4.98264 3.25911 4.84897 3.27843 4.6892 3.37397C4.48035 3.50033 4.25688 3.61206 4.03446 3.71753C3.80211 3.82979 3.58856 3.68621 3.60109 3.42149Z" fill="#6B6B6B"/>
<path d="M3.59953 7.69768C3.64756 7.40946 3.69194 7.10715 3.75147 6.81007C3.76206 6.77366 3.76161 6.73492 3.75018 6.69877C3.73875 6.66261 3.71685 6.63066 3.68725 6.60696C3.48936 6.41899 3.2967 6.22476 3.10038 6.03523C3.00222 5.94073 2.9239 5.83839 2.96985 5.69324C3.02206 5.53347 3.1505 5.48804 3.30192 5.4682C3.56559 5.43374 3.82822 5.38727 4.09294 5.35699C4.13116 5.3548 4.16788 5.34133 4.19845 5.31828C4.22903 5.29524 4.25208 5.26365 4.26472 5.2275C4.38428 4.97584 4.51168 4.72783 4.63281 4.47669C4.69077 4.35608 4.77535 4.26784 4.91267 4.26784C5.05939 4.26418 5.14972 4.35399 5.21081 4.48087C5.33194 4.73201 5.45777 4.98054 5.57629 5.23273C5.59004 5.26827 5.61397 5.29897 5.64508 5.32098C5.6762 5.34299 5.71311 5.35534 5.75121 5.35647C6.02219 5.38727 6.2916 5.4327 6.56154 5.47081C6.69782 5.49013 6.81477 5.53608 6.86333 5.67966C6.91189 5.82325 6.85237 5.93081 6.7516 6.02792C6.56363 6.20806 6.38298 6.39341 6.19083 6.57041C6.14731 6.60276 6.11479 6.64772 6.09769 6.69919C6.0806 6.75066 6.07976 6.80614 6.09529 6.8581C6.15167 7.10507 6.1877 7.35621 6.22895 7.60631C6.2514 7.74519 6.25401 7.88147 6.12035 7.97493C5.98668 8.06839 5.86346 8.02714 5.73711 7.95717C5.51468 7.83656 5.28704 7.72587 5.06722 7.60056C5.02581 7.57115 4.97646 7.55497 4.92567 7.55413C4.87488 7.55329 4.82503 7.56784 4.78266 7.59586C4.54092 7.73423 4.29343 7.86319 4.04229 7.98485C3.8089 8.09554 3.5917 7.95822 3.59953 7.69768Z" fill="#6B6B6B"/>
<path d="M3.60005 11.9629C3.64809 11.6757 3.69247 11.3734 3.75251 11.0753C3.76264 11.0387 3.76169 10.9999 3.7498 10.9639C3.7379 10.9278 3.71559 10.8961 3.68568 10.8727C3.4878 10.6842 3.29461 10.491 3.09777 10.3015C2.99909 10.2065 2.92442 10.1031 2.97037 9.95796C3.01632 9.81281 3.14372 9.75798 3.28365 9.73762C3.55411 9.69846 3.82352 9.6546 4.09451 9.62327C4.13262 9.62092 4.16919 9.60738 4.19965 9.58434C4.23011 9.56131 4.25311 9.52982 4.26576 9.49379C4.38481 9.24212 4.51168 8.99307 4.63125 8.74245C4.68973 8.62184 4.77536 8.53934 4.91476 8.53882C5.05417 8.5383 5.14189 8.61714 5.20089 8.73827C5.31732 8.97741 5.44159 9.21236 5.55176 9.45411C5.59927 9.55853 5.65148 9.61597 5.7747 9.62745C6.0201 9.65043 6.26341 9.69637 6.50568 9.73188C6.65762 9.75381 6.80486 9.77991 6.86073 9.95482C6.91294 10.1198 6.82052 10.2253 6.71349 10.3281C6.52552 10.5083 6.34382 10.6936 6.15272 10.8712C6.12077 10.8977 6.0973 10.933 6.08523 10.9727C6.07317 11.0124 6.07303 11.0548 6.08485 11.0946C6.13706 11.3494 6.17883 11.6058 6.22217 11.8621C6.24723 12.0078 6.25193 12.1504 6.11043 12.248C5.97677 12.3404 5.85198 12.2908 5.72719 12.2229C5.49328 12.0961 5.25728 11.9754 5.02337 11.8465C4.99136 11.8259 4.95412 11.815 4.91607 11.815C4.87802 11.815 4.84078 11.8259 4.80877 11.8465C4.55293 11.9875 4.29657 12.1269 4.03446 12.2553C3.81047 12.3655 3.59066 12.224 3.60005 11.9629Z" fill="#6B6B6B"/>
<path d="M5.10012 13.5815C5.63895 13.5815 6.15533 13.723 6.67693 13.8285C6.71398 13.8352 6.74929 13.8494 6.78072 13.8702C6.81215 13.8909 6.83906 13.9178 6.85984 13.9492C6.88062 13.9806 6.89483 14.0159 6.90162 14.0529C6.90841 14.09 6.90764 14.128 6.89936 14.1647C6.86803 14.324 6.72654 14.4201 6.54588 14.3892C6.23261 14.337 5.91933 14.2692 5.60606 14.2149C4.79572 14.0739 4.05534 14.2446 3.39538 14.737C2.45138 15.4405 1.50946 16.1464 0.569638 16.8547C0.48662 16.9169 0.406735 16.9915 0.294478 16.9873C0.232214 16.9869 0.171685 16.9668 0.121615 16.9298C0.0715451 16.8928 0.0345206 16.8408 0.0158791 16.7814C-0.00276236 16.722 -0.00205801 16.6582 0.0178904 16.5992C0.0378388 16.5402 0.0760009 16.4891 0.126876 16.4532C0.369142 16.2673 0.615585 16.0877 0.857851 15.9029C1.58604 15.3567 2.31441 14.8106 3.04294 14.2645C3.63445 13.8159 4.35779 13.5758 5.10012 13.5815Z" fill="#6B6B6B"/>
<path d="M12.5848 7.44603H8.70278C8.41143 7.44603 8.37906 7.41313 8.37906 7.12231C8.37906 6.76448 8.37906 6.40665 8.37906 6.04882C8.37906 5.77888 8.41352 5.74338 8.68033 5.74338H16.4856C16.72 5.74338 16.7748 5.79559 16.7759 6.02689C16.7759 6.39795 16.7759 6.76883 16.7759 7.13954C16.7759 7.4006 16.7289 7.44603 16.4683 7.44603H12.5848Z" fill="#FEFEFE"/>
<path d="M3.88252 1.68021C4.45059 1.74652 4.77901 1.4959 4.90014 0.918427C4.99674 1.109 5.06931 1.2317 5.12414 1.36641C5.15097 1.44681 5.20231 1.51679 5.27096 1.56651C5.3396 1.61624 5.42209 1.64322 5.50685 1.64366C5.64731 1.65201 5.78567 1.68595 6.0034 1.72041C5.47448 2.01384 5.36692 2.41223 5.56742 2.93331C5.13092 2.58818 4.71375 2.54902 4.2903 2.97717C4.2903 2.68791 4.41457 2.46809 4.3587 2.24619C4.2997 2.01698 4.05221 1.92299 3.88252 1.68021Z" fill="#FEFEFE"/>
<path d="M4.89649 5.20819C5.06044 5.43479 5.08289 5.69899 5.27503 5.83474C5.46717 5.97049 5.71675 5.90366 5.97572 5.99817C5.49015 6.27541 5.35492 6.66388 5.56846 7.19227C5.13092 6.86281 4.71531 6.81164 4.28143 7.20897C4.47409 6.68111 4.37071 6.2775 3.87887 5.9778C4.4459 6.0107 4.78684 5.76478 4.89649 5.20819Z" fill="#FEFEFE"/>
<path d="M3.87782 10.2112C4.45634 10.2838 4.77588 10.0222 4.92207 9.48337C5.06618 10.0227 5.38885 10.2848 5.96632 10.2399C5.49641 10.5454 5.35126 10.9312 5.56794 11.4617C5.12727 11.1087 4.71061 11.1077 4.29082 11.4936C4.29605 11.2132 4.42292 10.9897 4.35609 10.7688C4.28926 10.548 4.0449 10.4488 3.87782 10.2112Z" fill="#FEFEFE"/>
</g>
<defs>
<clipPath id="clip0_108_411">
<rect width="18.0995" height="20" fill="white"/>
</clipPath>
</defs>
</svg>
