<svg width="62" height="62" viewBox="0 0 62 62" fill="none" xmlns="http://www.w3.org/2000/svg">
<circle cx="31" cy="31" r="31" fill="white"/>
<circle cx="31" cy="31" r="28.5" stroke="#9C5789" stroke-opacity="0.15" stroke-width="5"/>
<g clip-path="url(#clip0_302_7)">
<path d="M16 20.4544C16.0085 20.4544 16.0232 20.4482 16.0255 20.442C16.3704 19.3595 17.1428 18.9985 18.236 19C26.7003 19.0175 35.164 19.0209 43.6273 19.0101C44.5752 19.0101 45.2587 19.4647 45.5254 20.2703C45.5904 20.4721 45.6223 20.6831 45.6198 20.8951C45.6198 26.7279 45.6198 32.5606 45.6198 38.3929C45.6198 39.5094 44.8296 40.288 43.6961 40.2895C40.9003 40.2936 38.1047 40.2921 35.3094 40.2849C35.0589 40.2849 35.0055 40.3436 35.0403 40.5849C35.1493 41.348 35.2437 42.1127 35.328 42.8781C35.3512 43.0869 35.4269 43.1464 35.6372 43.1364C36.0238 43.117 36.4104 43.1271 36.7931 43.1325C37.0831 43.1325 37.2748 43.308 37.2787 43.5562C37.2826 43.8044 37.0908 43.9853 36.8047 43.9969C36.6501 44.0039 36.4955 43.9969 36.3408 43.9969H25.0292C24.9426 43.9969 24.8552 44.0023 24.7694 43.9969C24.6574 43.9917 24.5514 43.9445 24.4726 43.8647C24.3938 43.7849 24.3479 43.6784 24.3442 43.5663C24.3443 43.5082 24.3562 43.4508 24.379 43.3974C24.4018 43.344 24.4351 43.2957 24.4769 43.2555C24.5188 43.2153 24.5683 43.1838 24.6225 43.1631C24.6767 43.1424 24.7346 43.1327 24.7926 43.1348C25.207 43.1271 25.6222 43.1217 26.0359 43.1348C26.2145 43.1418 26.2678 43.0768 26.2864 42.9145C26.3799 42.1212 26.475 41.3271 26.5841 40.5354C26.6134 40.3235 26.5493 40.2849 26.3482 40.2857C23.6591 40.2929 20.9697 40.2944 18.2801 40.2903C16.9325 40.2903 16.5165 40.0174 16 38.7934V20.4544Z" fill="#875A7B"/>
<path d="M30.8064 19.8776H43.5878C44.4004 19.8776 44.7476 20.2263 44.7476 21.0373V38.2715C44.7476 39.0602 44.3881 39.4228 43.6041 39.4228H18.0118C17.2309 39.4228 16.8675 39.0617 16.8675 38.2792V21.011C16.8675 20.2379 17.2263 19.8776 17.9964 19.8776H30.8064Z" fill="#FEFEFE"/>
<path d="M30.801 43.1309C29.6636 43.1309 28.5263 43.1239 27.3897 43.1363C27.1655 43.1363 27.1253 43.0876 27.1578 42.8688C27.2706 42.0685 27.3642 41.2652 27.4562 40.4619C27.4717 40.3227 27.5258 40.2864 27.6557 40.2887C28.0701 40.2949 28.4845 40.2972 28.899 40.2887C29.0435 40.2887 29.1062 40.3351 29.1309 40.4735C29.1637 40.6435 29.2049 40.8117 29.2546 40.9776C29.3508 41.3086 29.5501 41.6003 29.8236 41.8102C30.097 42.02 30.4303 42.1372 30.7749 42.1445C31.1195 42.1518 31.4575 42.049 31.7396 41.8509C32.0218 41.6529 32.2333 41.3699 32.3435 41.0433C32.3651 40.9799 32.3806 40.9142 32.3984 40.8492C32.5491 40.2925 32.5491 40.2925 33.1429 40.2925C33.4221 40.2925 33.702 40.2964 33.9811 40.2925C34.1009 40.2925 34.1489 40.3304 34.1628 40.4534C34.2579 41.276 34.3537 42.0987 34.4666 42.9183C34.4921 43.1054 34.4496 43.1402 34.2702 43.1386C33.1136 43.127 31.9569 43.1309 30.801 43.1309Z" fill="#FEFEFE"/>
<path d="M30.8234 40.2895H31.2564C31.6592 40.2895 31.6592 40.2895 31.5525 40.6629C31.4458 41.0364 31.1582 41.2738 30.8087 41.273C30.4592 41.2722 30.1708 41.0364 30.0657 40.6622C30.0549 40.6056 30.0412 40.5496 30.0247 40.4944C29.9551 40.3235 30.0185 40.2771 30.1886 40.2864C30.3997 40.2995 30.6123 40.2895 30.8234 40.2895Z" fill="#FDFDFD"/>
<path d="M31.2788 33.7948C30.7291 33.7948 30.1793 33.8041 29.6304 33.7902C29.3984 33.784 29.3118 33.7995 29.3575 34.0848C29.4866 34.8858 28.9477 35.5538 28.1443 35.6435C27.4175 35.7255 26.7526 35.1696 26.6753 34.4064C26.6467 34.1405 26.7975 33.8915 26.7982 33.651C26.7982 33.4369 26.5145 33.2644 26.4936 32.9969C26.4813 32.8037 26.523 32.611 26.6142 32.4402C26.7843 32.0962 27.0526 31.766 27.1013 31.4057C27.1469 31.0647 26.881 30.7215 26.7828 30.3666C26.3413 28.7738 25.8789 27.1872 25.432 25.596C25.4101 25.4941 25.3673 25.3978 25.3062 25.3133C25.2451 25.2287 25.1671 25.1578 25.0771 25.1051C24.7547 24.9141 24.4478 24.6968 24.1385 24.4865C23.8756 24.3064 23.8145 24.069 23.9638 23.8479C24.113 23.6268 24.3573 23.5966 24.6225 23.7706C25.0096 24.0226 25.3936 24.2803 25.7745 24.5437C25.8611 24.6033 25.9686 24.669 26.0065 24.7571C26.1271 25.0595 26.3683 25.0664 26.6343 25.078C29.4069 25.1966 32.1793 25.3185 34.9514 25.4437C35.4037 25.4638 35.8568 25.4808 36.3083 25.5071C36.7042 25.5303 36.8588 25.7283 36.7823 26.1203C36.5504 27.3187 36.3184 28.5171 36.0679 29.714C35.9009 30.5135 35.2823 31.0415 34.3909 31.1498C32.4131 31.3903 30.4322 31.6183 28.4528 31.8511C28.4434 31.8526 28.4337 31.8526 28.4242 31.8511C27.9224 31.715 27.7585 32.0444 27.5907 32.4209C27.3588 32.9397 27.3418 32.932 27.9 32.932H35.1865C35.302 32.9278 35.4176 32.9338 35.5321 32.9498C35.7919 32.9954 35.9627 33.2536 35.8491 33.4856C35.7633 33.6634 35.798 33.8018 35.8398 33.9704C35.9091 34.2332 35.8957 34.511 35.8015 34.7659C35.7072 35.0209 35.5368 35.2407 35.3133 35.3953C34.8308 35.727 34.3251 35.7471 33.8195 35.4525C33.5793 35.3142 33.3892 35.1032 33.2768 34.8498C33.1644 34.5965 33.1354 34.3139 33.194 34.043C33.235 33.8273 33.194 33.7894 32.9883 33.7948C32.4162 33.8026 31.844 33.7948 31.2788 33.7948Z" fill="#875A7B"/>
<path d="M29.4054 20.8633H40.3072C40.4034 20.8576 40.4999 20.8605 40.5956 20.8719C40.7036 20.8815 40.8037 20.932 40.8756 21.0131C40.9475 21.0941 40.9856 21.1996 40.9822 21.3079C40.99 21.5352 40.8044 21.7123 40.557 21.7293C40.4611 21.7355 40.3645 21.7293 40.2678 21.7293C33.1927 21.7293 26.1173 21.7272 19.0417 21.7231C18.7742 21.7231 18.717 21.795 18.717 22.0525C18.7252 27.1137 18.7252 32.175 18.717 37.2362C18.717 37.5261 18.7943 37.6151 19.0672 37.5679C19.115 37.5629 19.1632 37.5629 19.211 37.5679C19.4685 37.5841 19.6386 37.7426 19.6494 37.9746C19.6543 38.0304 19.6478 38.0865 19.6303 38.1397C19.6128 38.1929 19.5847 38.242 19.5477 38.284C19.5107 38.326 19.4655 38.36 19.4149 38.384C19.3644 38.4081 19.3095 38.4216 19.2535 38.4238C18.9266 38.4451 18.5986 38.4451 18.2716 38.4238C18.0203 38.4068 17.8742 38.246 17.858 37.9862C17.858 37.9089 17.858 37.8316 17.858 37.7542V21.5337C17.858 20.9755 17.9716 20.8633 18.5376 20.8633H29.4054Z" fill="#875A7B"/>
<path d="M32.1981 38.4339H21.3543C21.2669 38.4339 21.1803 38.4385 21.0937 38.4339C20.8138 38.4122 20.6228 38.2197 20.636 37.9761C20.6491 37.7326 20.8331 37.5795 21.1069 37.5695C21.1942 37.5656 21.2808 37.5695 21.3674 37.5695C28.4332 37.5695 35.4991 37.5718 42.5649 37.5764C42.8502 37.5764 42.9043 37.4991 42.9043 37.2293C42.8951 32.1964 42.8927 27.164 42.8974 22.1321C42.8974 21.7363 42.8974 21.7363 42.5108 21.7324C42.4721 21.7324 42.4335 21.7324 42.3948 21.7324C42.1482 21.7154 42.0028 21.5824 41.9734 21.3389C41.9658 21.2833 41.9696 21.2268 41.9847 21.1728C41.9999 21.1188 42.0259 21.0684 42.0613 21.0249C42.0967 20.9814 42.1406 20.9457 42.1904 20.9199C42.2402 20.8941 42.2948 20.8788 42.3507 20.875C42.6875 20.8537 43.0253 20.8537 43.3621 20.875C43.6018 20.8896 43.7386 21.0505 43.761 21.294C43.768 21.3713 43.761 21.4487 43.761 21.526C43.761 26.9439 43.761 32.3616 43.761 37.779C43.761 38.3202 43.6396 38.4385 43.0969 38.4385L32.1981 38.4339Z" fill="#875A7B"/>
<path d="M27.2938 25.9562C27.3797 25.9562 27.4663 25.9632 27.5529 25.9686C28.1637 26.005 28.1621 26.0057 28.2564 26.5995C28.3106 26.9413 28.3655 27.2823 28.4281 27.6225C28.4544 27.7694 28.4281 27.8289 28.2603 27.8243C27.8853 27.8134 27.5096 27.8134 27.1353 27.8243C26.9853 27.8289 26.9428 27.7624 26.9072 27.634C26.7712 27.1346 26.6274 26.6372 26.4758 26.1418C26.4163 25.9477 26.4758 25.916 26.6591 25.9323C26.8694 25.9508 27.082 25.9361 27.2938 25.9361V25.9562Z" fill="#FEFEFE"/>
<path d="M29.9567 26.0777C30.1971 26.0909 30.4376 26.1117 30.678 26.1156C30.8033 26.1156 30.8435 26.1612 30.842 26.2849C30.8366 26.738 30.8358 27.1903 30.842 27.6434C30.842 27.7841 30.7925 27.8259 30.6572 27.8236C30.2706 27.8166 29.884 27.8189 29.4974 27.8236C29.3899 27.8236 29.3203 27.8089 29.3002 27.6759C29.2307 27.2006 29.1533 26.7259 29.0683 26.2517C29.0366 26.0762 29.0977 26.0414 29.2608 26.0522C29.4928 26.0677 29.7247 26.0522 29.9567 26.0522V26.0777Z" fill="#FEFEFE"/>
<path d="M27.2119 28.6918C27.6418 28.6918 28.0345 28.6918 28.4281 28.6918C28.5348 28.6918 28.6005 28.7041 28.6214 28.8379C28.7211 29.482 28.8325 30.1245 28.9446 30.767C28.9647 30.8814 28.9291 30.9309 28.8155 30.927C28.8059 30.9263 28.7964 30.9263 28.7869 30.927C27.9016 31.0469 27.873 31.0275 27.6271 30.167C27.4956 29.6869 27.3596 29.209 27.2119 28.6918Z" fill="#FEFEFE"/>
<path d="M32.4803 26.1743C32.8368 26.2346 33.2295 26.1117 33.3764 26.2972C33.5032 26.4565 33.3633 26.8276 33.3409 27.106C33.3362 27.1632 33.3246 27.2197 33.3177 27.2776C33.252 27.8189 33.252 27.8189 32.6883 27.8189C32.4285 27.8189 32.1687 27.8135 31.9097 27.8189C31.7706 27.8235 31.7002 27.798 31.7041 27.6341C31.7141 27.2011 31.7126 26.7681 31.7041 26.3351C31.7041 26.1882 31.7582 26.1604 31.8904 26.1674C32.1115 26.182 32.3334 26.1743 32.4803 26.1743Z" fill="#FEFEFE"/>
<path d="M30.8389 29.7124C30.8389 29.9722 30.8327 30.232 30.8389 30.4918C30.8435 30.6325 30.8087 30.7013 30.6518 30.7037C30.4781 30.7008 30.3049 30.7216 30.1368 30.7655C29.8384 30.8568 29.7935 30.6998 29.7603 30.4609C29.6876 29.9374 29.6056 29.4148 29.5028 28.896C29.4688 28.7181 29.5113 28.6803 29.6791 28.6857C29.9961 28.6957 30.3147 28.6973 30.6317 28.6857C30.8049 28.6787 30.8443 28.7475 30.8389 28.9045C30.8327 29.1728 30.8389 29.4426 30.8389 29.7124Z" fill="#FDFDFD"/>
<path d="M31.7072 29.6343C31.7072 29.3838 31.7149 29.1332 31.7072 28.8827C31.701 28.7281 31.7566 28.6825 31.9066 28.6856C32.2731 28.6941 32.6388 28.6933 33.0053 28.6856C33.1375 28.6856 33.1986 28.7111 33.1839 28.8611C33.136 29.3304 33.0966 29.8005 33.0587 30.2706C33.0502 30.3742 33.01 30.4299 32.904 30.4415C32.5507 30.4824 32.1966 30.5188 31.844 30.569C31.7087 30.5868 31.7079 30.5087 31.7087 30.4144C31.7087 30.1546 31.7072 29.8948 31.7072 29.6343Z" fill="#FDFDFD"/>
<path d="M34.8463 27.8212H34.5579C34.138 27.8212 34.1365 27.8212 34.1713 27.413C34.2014 27.0968 34.2486 26.7821 34.2617 26.4651C34.2695 26.305 34.3313 26.2795 34.4713 26.2888C34.8651 26.3146 35.2591 26.3326 35.6535 26.3429C35.8019 26.3429 35.8522 26.3723 35.8081 26.5385C35.7246 26.8834 35.6535 27.2344 35.6024 27.5839C35.573 27.7756 35.4919 27.8444 35.3009 27.8243C35.1495 27.8154 34.9978 27.8144 34.8463 27.8212Z" fill="#FEFEFE"/>
<path d="M34.7527 28.6794C34.9537 28.6887 35.2344 28.6237 35.3326 28.7289C35.4308 28.834 35.2939 29.1039 35.2553 29.3003C35.1316 29.9923 34.7597 30.2953 34.0661 30.3015C33.9447 30.3015 33.9169 30.2722 33.9277 30.1616C33.9702 29.7116 34.0112 29.2608 34.0468 28.8108C34.0553 28.7034 34.1156 28.6879 34.2014 28.6887H34.7496L34.7527 28.6794Z" fill="#FDFDFD"/>
<path d="M34.5076 34.7799C34.4427 34.7779 34.3789 34.763 34.3198 34.7361C34.2607 34.7092 34.2076 34.6709 34.1634 34.6232C34.1193 34.5756 34.0851 34.5197 34.0629 34.4587C34.0406 34.3977 34.0306 34.3329 34.0337 34.268C34.0348 34.2033 34.0492 34.1395 34.076 34.0806C34.1027 34.0217 34.1413 33.9689 34.1892 33.9254C34.2372 33.8819 34.2935 33.8487 34.3548 33.8279C34.4161 33.807 34.481 33.799 34.5455 33.8041C34.6714 33.8103 34.7902 33.8646 34.8773 33.9558C34.9643 34.047 35.013 34.1682 35.0133 34.2943C35.0085 34.4251 34.953 34.5488 34.8587 34.6394C34.7643 34.73 34.6384 34.7804 34.5076 34.7799Z" fill="#FDFDFD"/>
<path d="M28.0554 33.8018C28.1203 33.8042 28.184 33.8199 28.2426 33.8479C28.3012 33.8758 28.3534 33.9154 28.3961 33.9643C28.4389 34.0132 28.4711 34.0703 28.491 34.1321C28.5109 34.1939 28.5179 34.2591 28.5116 34.3237C28.5027 34.4495 28.4457 34.5671 28.3524 34.6521C28.2591 34.737 28.1367 34.7828 28.0106 34.7799C27.8797 34.7731 27.7566 34.7155 27.6675 34.6193C27.5784 34.5231 27.5303 34.396 27.5335 34.2649C27.5371 34.2002 27.5534 34.1367 27.5816 34.0783C27.6098 34.0198 27.6494 33.9676 27.6979 33.9245C27.7464 33.8815 27.803 33.8484 27.8644 33.8274C27.9257 33.8063 27.9907 33.7976 28.0554 33.8018Z" fill="#FCFCFC"/>
</g>
<defs>
<clipPath id="clip0_302_7">
<rect width="29.6198" height="25" fill="white" transform="translate(16 19)"/>
</clipPath>
</defs>
</svg>
