<svg width="62" height="62" viewBox="0 0 62 62" fill="none" xmlns="http://www.w3.org/2000/svg">
<circle cx="31" cy="31" r="31" fill="white"/>
<circle cx="31" cy="31" r="28.5" stroke="#9C5789" stroke-opacity="0.15" stroke-width="5"/>
<g clip-path="url(#clip0_302_5)">
<path d="M14 21.4411C14.1907 21.0834 14.4868 20.9657 14.8901 20.9745C15.8866 20.9956 16.8839 20.9745 17.8777 20.9868C18.0956 20.9868 18.1554 20.9279 18.1413 20.7152C18.1238 20.3769 18.1308 20.036 18.1413 19.6968C18.1519 19.2812 18.4049 19.0123 18.8197 19.0114C21.3732 19.0114 23.9267 18.9789 26.4794 19.0299C28.0057 19.0598 29.387 19.6107 30.5899 20.5624C30.785 20.717 30.8931 20.6968 31.0776 20.5536C32.3434 19.5536 33.9098 19.0105 35.523 19.0123C37.9227 19 40.3224 19.0123 42.7222 19.0123C43.2846 19.0123 43.52 19.2496 43.5236 19.8102C43.5236 20.0958 43.5385 20.3813 43.5192 20.6652C43.5016 20.9086 43.5578 20.9973 43.8294 20.992C44.8372 20.9736 45.8504 20.9832 46.8539 20.985C47.4382 20.985 47.6658 21.2143 47.6658 21.8048V43.1696C47.6658 43.7593 47.4364 43.9939 46.8582 43.9947C45.237 43.9947 43.615 43.9947 41.9929 43.9947C41.695 43.9947 41.4516 43.9069 41.3031 43.6433C41.0527 43.1916 41.3839 42.6828 41.9401 42.6767C43.2766 42.6705 44.614 42.6635 45.9505 42.6828C46.2669 42.6872 46.3609 42.6266 46.36 42.2848C46.3477 35.7431 46.3477 29.2012 46.36 22.6589C46.36 22.3751 46.3099 22.2706 45.9971 22.282C45.2862 22.3092 44.5727 22.3039 43.861 22.282C43.5974 22.2741 43.5174 22.3285 43.5183 22.6124C43.5294 26.447 43.5321 30.2823 43.5262 34.1181C43.5262 35.8169 43.5262 37.5158 43.5262 39.2146C43.5262 39.8183 43.2995 40.0423 42.6897 40.0423C40.3224 40.0423 37.9561 40.0423 35.5889 40.0423C34.2197 40.0388 32.8901 40.5019 31.8192 41.3551C31.5829 41.5388 31.473 41.7259 31.4862 42.0361C31.5134 42.6705 31.4941 42.6714 32.1417 42.6714C33.3684 42.6714 34.5956 42.6714 35.8235 42.6714C36.3226 42.6714 36.6284 42.935 36.6205 43.3392C36.6126 43.7434 36.3156 43.9851 35.834 43.986C28.8214 43.986 21.8085 43.9877 14.7952 43.9912C14.4174 43.9912 14.1801 43.8278 14.0044 43.5255L14 21.4411Z" fill="#875A7B"/>
<path d="M38.92 43.993C38.7895 43.9929 38.6619 43.9539 38.5536 43.881C38.4453 43.8081 38.3612 43.7045 38.3121 43.5835C38.263 43.4626 38.2511 43.3297 38.2778 43.2019C38.3046 43.0741 38.3689 42.9572 38.4625 42.8662C38.556 42.7751 38.6746 42.714 38.8031 42.6907C38.9316 42.6674 39.0641 42.6829 39.1836 42.7353C39.3032 42.7877 39.4045 42.8746 39.4745 42.9848C39.5444 43.095 39.5799 43.2236 39.5764 43.3541C39.5703 43.5247 39.4987 43.6862 39.3764 43.8052C39.2541 43.9242 39.0907 43.9915 38.92 43.993Z" fill="#010101"/>
<path d="M31.4906 39.9773V39.5924C31.4906 33.807 31.4885 28.0216 31.4844 22.2362C31.4783 22.1304 31.4993 22.0247 31.5454 21.9292C31.5916 21.8337 31.6613 21.7516 31.7481 21.6906C32.8326 20.8001 34.1944 20.3171 35.5977 20.325C37.7013 20.3198 39.8058 20.325 41.9094 20.3171C42.1563 20.3171 42.2108 20.376 42.2108 20.6203C42.2032 26.5597 42.2032 32.4986 42.2108 38.4369C42.2108 38.6803 42.1581 38.7427 41.9094 38.7409C40.014 38.7295 38.1178 38.762 36.2233 38.726C34.5441 38.6943 32.9659 39.0001 31.4906 39.9773Z" fill="#FEFEFE"/>
<path d="M30.1629 39.9641C29.1457 39.2883 27.9759 38.8772 26.7596 38.7682C26.496 38.7445 26.2324 38.7366 25.9688 38.7357C23.8977 38.7357 21.8266 38.7304 19.7555 38.7401C19.5165 38.7401 19.4497 38.6935 19.4497 38.4413C19.4579 32.503 19.4579 26.5642 19.4497 20.6247C19.4497 20.3892 19.491 20.3154 19.7467 20.3163C21.8837 20.3295 24.0198 20.3163 26.1569 20.3286C27.5865 20.3383 28.8527 20.8233 29.9581 21.7301C30.0864 21.8356 30.1796 21.9349 30.1796 22.1335C30.1714 28.0278 30.169 33.9227 30.1725 39.8182C30.1752 39.8508 30.169 39.8833 30.1629 39.9641Z" fill="#FEFEFE"/>
<path d="M15.3128 32.4618C15.3128 29.186 15.318 25.9111 15.304 22.6361C15.304 22.3347 15.3919 22.2846 15.6643 22.2899C16.3865 22.3092 17.1094 22.3092 17.8329 22.2899C18.1018 22.282 18.1457 22.3699 18.1457 22.615C18.1387 28.0923 18.1369 33.5695 18.1404 39.0468C18.1404 39.8991 18.2951 40.0512 19.1615 40.0512C21.4725 40.0512 23.7835 40.0459 26.0953 40.0512C27.5013 40.0555 28.7508 40.5098 29.8623 41.3692C30.0899 41.545 30.1919 41.7286 30.1804 42.0247C30.1558 42.6776 30.1734 42.6785 29.5117 42.6785C24.8886 42.6785 20.266 42.6805 15.644 42.6846C15.3752 42.6846 15.3049 42.6275 15.3057 42.3507C15.3198 39.0556 15.3128 35.7587 15.3128 32.4618Z" fill="#FEFEFE"/>
<path d="M36.8489 28.2176C36.1926 28.2176 35.5362 28.2176 34.8798 28.2176C34.4114 28.2176 34.1127 27.9452 34.1223 27.5436C34.1329 27.157 34.4255 26.9048 34.8807 26.9039C36.1934 26.9039 37.5062 26.9039 38.819 26.9039C39.2733 26.9039 39.5668 27.1588 39.5764 27.5445C39.5861 27.9303 39.283 28.215 38.8181 28.2176C38.1591 28.2176 37.5053 28.2176 36.8489 28.2176Z" fill="#875A7B"/>
<path d="M36.8507 30.8441C37.5071 30.8441 38.1635 30.8441 38.8199 30.8441C39.2742 30.8441 39.5676 31.0989 39.5764 31.4855C39.5852 31.8722 39.2829 32.1569 38.8172 32.1577C37.5044 32.1577 36.1917 32.1577 34.8789 32.1577C34.4246 32.1577 34.132 31.902 34.1223 31.5154C34.1135 31.1147 34.4123 30.8467 34.8815 30.8441C35.5379 30.8414 36.1943 30.8441 36.8507 30.8441Z" fill="#875A7B"/>
<path d="M24.816 28.2176C24.1596 28.2176 23.5032 28.2176 22.8468 28.2176C22.3785 28.2176 22.0797 27.9452 22.0902 27.5436C22.0999 27.157 22.3925 26.9048 22.8477 26.9039C24.1605 26.9039 25.4735 26.9039 26.7869 26.9039C27.2403 26.9039 27.5338 27.1588 27.5435 27.5445C27.5531 27.9303 27.2509 28.215 26.7851 28.2176C26.1288 28.2176 25.4724 28.2176 24.816 28.2176Z" fill="#875A7B"/>
<path d="M24.8432 32.1595C24.1763 32.1595 23.5084 32.1595 22.8415 32.1595C22.3898 32.1595 22.0964 31.8959 22.0902 31.5128C22.0841 31.1296 22.3828 30.8467 22.8529 30.8458C24.1663 30.8458 25.4794 30.8458 26.7922 30.8458C27.2429 30.8458 27.5373 31.105 27.5434 31.4917C27.5496 31.8783 27.2482 32.1568 26.7799 32.1595C26.134 32.1612 25.489 32.1595 24.8432 32.1595Z" fill="#875A7B"/>
<path d="M24.8186 34.7894C25.475 34.7894 26.1314 34.7894 26.7878 34.7894C27.2412 34.7894 27.5347 35.0451 27.5435 35.4308C27.5522 35.8166 27.25 36.1013 26.7843 36.1022C25.4715 36.1022 24.1584 36.1022 22.845 36.1022C22.3916 36.1022 22.099 35.8473 22.0902 35.4598C22.0806 35.0591 22.3793 34.7911 22.8494 34.7894C23.5058 34.7867 24.1622 34.7894 24.8186 34.7894Z" fill="#875A7B"/>
</g>
<defs>
<clipPath id="clip0_302_5">
<rect width="33.6658" height="25" fill="white" transform="translate(14 19)"/>
</clipPath>
</defs>
</svg>
