<svg width="62" height="62" viewBox="0 0 62 62" fill="none" xmlns="http://www.w3.org/2000/svg">
<circle cx="31" cy="31" r="31" fill="white"/>
<circle cx="31" cy="31" r="28.5" stroke="#9C5789" stroke-opacity="0.15" stroke-width="5"/>
<g clip-path="url(#clip0_302_9)">
<path d="M27.6106 43.9999C27.2668 43.6603 27.3353 43.3881 27.804 43.229C28.1038 43.128 28.4023 43.0234 28.7052 42.9329C28.8202 42.8986 28.8575 42.8448 28.8575 42.7267C28.8543 40.7252 28.8543 38.7238 28.8575 36.7223C28.8575 36.6 28.8196 36.5712 28.7046 36.5749C28.4286 36.5822 28.1539 36.5786 27.8749 36.5749C27.5183 36.5749 27.3953 36.4525 27.3904 36.0897C27.3867 35.8132 27.3904 35.5391 27.3904 35.2595C27.3904 33.1687 27.3904 31.0777 27.3904 28.9865C27.3904 28.8293 27.3782 28.7381 27.1836 28.7143C26.2168 28.6012 25.3083 28.193 24.5818 27.5453C23.8552 26.8976 23.3458 26.0417 23.123 25.0942C23.0434 24.7531 23.0024 24.4043 23.0006 24.0541C23.0006 23.8094 23.1395 23.6436 23.3487 23.6362C23.5433 23.6295 23.7079 23.7702 23.7201 24.0033C23.7507 24.6188 23.8541 25.2153 24.141 25.7659C24.8079 27.044 25.8492 27.7953 27.2858 27.9923C27.4081 28.0089 27.4552 27.9795 27.503 27.87C27.7507 27.3132 28.1925 27.0483 28.7939 27.0471C30.0469 27.0438 31.2999 27.0438 32.5529 27.0471C33.3758 27.0471 33.9111 27.5518 33.9754 28.3698C33.9754 28.3857 33.979 28.4023 33.979 28.4182C33.979 30.9878 33.979 33.559 33.979 36.1319C33.979 36.4433 33.8395 36.5645 33.5208 36.5682C33.2608 36.5682 32.9995 36.5804 32.7401 36.5645C32.5621 36.5535 32.5113 36.5988 32.5119 36.7866C32.5205 38.6012 32.5168 40.4159 32.5168 42.2317C32.5168 42.3945 32.5229 42.5578 32.5168 42.7212C32.5107 42.8393 32.5541 42.8931 32.6691 42.9274C32.972 43.0179 33.2705 43.1225 33.5703 43.2235C34.039 43.3807 34.1075 43.6548 33.7637 43.9944H33.4706C33.0356 43.9234 32.6275 43.7594 32.209 43.631C31.8652 43.5257 31.7055 43.2963 31.6902 42.9488C31.6853 42.835 31.6859 42.7206 31.6859 42.6068C31.6859 40.7436 31.6859 38.8806 31.6859 37.0178C31.6859 36.6508 31.6804 36.6477 31.3189 36.6471C30.8796 36.6471 30.4403 36.6471 30.001 36.6471C29.7043 36.6471 29.6865 36.6648 29.6865 36.9689C29.6865 38.848 29.6865 40.7271 29.6865 42.6062C29.6865 43.3966 29.6321 43.47 28.8857 43.7221C28.566 43.8397 28.2372 43.9305 27.9025 43.9938L27.6106 43.9999Z" fill="#875A7B"/>
<path d="M27.9006 44.0001C28.291 43.8037 28.718 43.7101 29.1243 43.5645C29.5525 43.4128 29.5831 43.3779 29.5831 42.9154C29.5831 40.8811 29.5831 38.8462 29.5789 36.8119C29.5789 36.6247 29.6211 36.5672 29.8144 36.5721C30.3999 36.5861 30.9866 36.5843 31.5721 36.5721C31.7441 36.5684 31.7838 36.6167 31.7838 36.7856C31.7771 38.8205 31.7796 40.8554 31.7796 42.8897C31.7796 43.3846 31.8034 43.4042 32.2617 43.5694C32.6624 43.7138 33.0821 43.8043 33.4645 43.9977L27.9006 44.0001Z" fill="#FEFEFE"/>
<path d="M32.2378 21.7158C32.972 22.3276 33.3048 23.0887 33.2289 24.0285C33.0882 25.7709 31.0796 26.8526 29.5342 26.0414C27.8951 25.1818 27.6437 23.0086 29.0117 21.826C29.1218 21.7311 29.1151 21.6889 29.0117 21.5953C28.6538 21.2723 28.54 20.8611 28.6562 20.3998C28.7725 19.9385 29.079 19.643 29.5476 19.5274C29.6489 19.5037 29.7411 19.4512 29.8132 19.3763C30.3075 18.8733 31.0545 18.8752 31.5526 19.3763C31.6106 19.4438 31.6879 19.492 31.774 19.5145C32.2757 19.6228 32.6031 19.9342 32.7169 20.4249C32.8276 20.9033 32.6838 21.3237 32.2984 21.6485C32.2825 21.6657 32.2672 21.6852 32.2378 21.7158Z" fill="#875A7B"/>
<path d="M34.712 29.9857C34.712 29.205 34.712 28.4243 34.712 27.6436C34.712 27.1395 34.7989 27.0544 35.3122 27.0544C36.4098 27.0544 37.5074 27.0544 38.605 27.0544C38.9806 27.0544 39.1018 27.1731 39.1067 27.547C39.1097 27.799 39.1226 28.0523 39.1018 28.3025C39.0865 28.4971 39.1629 28.5473 39.333 28.5204C39.3814 28.5142 39.4303 28.5142 39.4786 28.5204C39.6934 28.5436 39.8323 28.688 39.8323 28.8838C39.8323 29.0796 39.6928 29.2233 39.4786 29.2478C39.1073 29.2906 39.1073 29.2906 39.1073 29.6614C39.1073 30.564 39.1073 31.4667 39.1073 32.3693C39.1073 32.8073 38.9996 32.9126 38.5566 32.9126C37.4513 32.9126 36.3455 32.9126 35.2394 32.9126C34.8209 32.9126 34.7108 32.8012 34.7101 32.3742C34.7085 31.5784 34.7091 30.7822 34.712 29.9857Z" fill="#875A7B"/>
<path d="M30.6697 35.8445C29.8811 35.8445 29.0925 35.8408 28.3044 35.8481C28.1558 35.8481 28.1111 35.8139 28.1154 35.6615C28.127 35.2798 28.1215 34.8974 28.1154 34.5156C28.1154 34.4104 28.1276 34.3425 28.2494 34.2978C29.1604 33.9638 29.5746 33.385 29.5758 32.4281C29.5758 32.2262 29.6223 32.1711 29.8266 32.1766C30.4036 32.1925 30.9811 32.1907 31.5581 32.1766C31.7416 32.1724 31.7863 32.2225 31.7826 32.4036C31.7679 33.2241 32.0885 33.8824 32.8655 34.195C33.221 34.3382 33.2712 34.5193 33.2473 34.8331C33.2305 35.109 33.2305 35.3857 33.2473 35.6615C33.2552 35.8157 33.2057 35.8488 33.0582 35.8451C32.2647 35.8408 31.4651 35.8445 30.6697 35.8445Z" fill="#FEFEFE"/>
<path d="M31.782 29.6216C31.782 30.1588 31.7765 30.696 31.7857 31.2332C31.7857 31.3904 31.7673 31.4589 31.5813 31.4546C30.9799 31.4412 30.3773 31.4455 29.7752 31.4546C29.6351 31.4546 29.5801 31.4338 29.5813 31.2711C29.5893 30.1643 29.5868 29.0569 29.5813 27.9502C29.5813 27.8315 29.6027 27.7856 29.7385 27.7819C30.3155 27.7672 30.3155 27.7617 30.3155 28.3325C30.3155 28.9444 30.3155 29.5547 30.3155 30.1637C30.3137 30.2529 30.3209 30.3421 30.3369 30.4298C30.3541 30.5093 30.3984 30.5804 30.462 30.631C30.5257 30.6816 30.6049 30.7086 30.6863 30.7074C30.7676 30.7063 30.846 30.677 30.9082 30.6247C30.9704 30.5723 31.0126 30.5 31.0276 30.4201C31.0416 30.3319 31.0479 30.2426 31.0466 30.1533C31.0466 29.4289 31.0527 28.7045 31.0466 27.9801C31.0466 27.8198 31.0882 27.7789 31.2473 27.7801C31.7826 27.7837 31.7826 27.777 31.7826 28.3001L31.782 29.6216Z" fill="#FDFDFD"/>
<path d="M28.1203 30.9152C28.1203 30.1027 28.1166 29.2902 28.1203 28.4777C28.1203 28.08 28.3601 27.8078 28.6954 27.7876C28.8043 27.7808 28.8545 27.7992 28.8539 27.9271C28.849 29.4707 28.8538 31.0143 28.8465 32.5585C28.8465 32.9611 28.6581 33.2713 28.3173 33.4897C28.1717 33.5833 28.1136 33.5753 28.1154 33.3771C28.1246 32.5567 28.1197 31.7362 28.1203 30.9152Z" fill="#FCFCFC"/>
<path d="M33.2473 30.906C33.2473 31.7271 33.2473 32.548 33.2473 33.3686C33.2473 33.4298 33.2834 33.5124 33.2124 33.5454C33.1415 33.5785 33.0901 33.5142 33.0381 33.4799C32.8981 33.3964 32.7796 33.2814 32.6918 33.1441C32.6039 33.0068 32.5493 32.8509 32.5321 32.6889C32.5216 32.5919 32.5163 32.4945 32.5162 32.397C32.5162 30.9342 32.5217 29.4713 32.5101 28.0091C32.5101 27.768 32.6079 27.7576 32.7835 27.8054C33.0772 27.8849 33.2461 28.129 33.2473 28.493C33.2497 29.2976 33.2473 30.1021 33.2473 30.906Z" fill="#FCFCFC"/>
<path d="M32.5082 23.774C32.4862 24.7437 31.79 25.484 30.8098 25.5807C29.9447 25.6657 29.0967 25.0405 28.8991 24.1448C28.7943 23.6875 28.8741 23.2073 29.1212 22.8086C29.1971 22.6825 29.2405 22.6801 29.3445 22.7871C30.0506 23.5109 30.9585 23.5911 31.7851 23.0105C31.8379 22.9739 31.8877 22.933 31.9337 22.8881C32.1785 22.6434 32.1785 22.6434 32.3241 22.9493C32.4491 23.206 32.5122 23.4885 32.5082 23.774Z" fill="#FEFEFE"/>
<path d="M30.6697 21.1947C30.4103 21.1947 30.1503 21.199 29.8903 21.1947C29.5648 21.188 29.358 21.0026 29.3506 20.7218C29.3433 20.4409 29.5299 20.2433 29.8627 20.2231C29.9432 20.2209 30.0218 20.1984 30.0912 20.1576C30.1607 20.1169 30.2187 20.0592 30.2598 19.99C30.5002 19.6388 30.8716 19.6407 31.1108 19.9937C31.1527 20.0625 31.2113 20.1196 31.2811 20.1597C31.351 20.1999 31.4298 20.2217 31.5104 20.2231C31.8389 20.2433 32.0279 20.4397 32.0182 20.726C32.0084 21.0124 31.8016 21.1886 31.4743 21.1947C31.2057 21.199 30.9377 21.1947 30.6697 21.1947Z" fill="#FEFEFE"/>
<path d="M30.6771 21.9263C30.9539 21.929 31.2269 21.9916 31.4773 22.1098C31.5685 22.1533 31.5752 22.1845 31.5146 22.2677C31.1518 22.7669 30.2433 22.7724 29.8627 22.2781C29.7924 22.1875 29.8016 22.152 29.9025 22.1043C30.1457 21.9924 30.4094 21.9318 30.6771 21.9263Z" fill="#FDFDFD"/>
<path d="M35.4449 29.9832C35.4449 29.3157 35.4504 28.6488 35.4407 27.9813C35.4407 27.818 35.4878 27.7825 35.6432 27.7837C36.4893 27.7911 37.3354 27.7923 38.1816 27.7837C38.3486 27.7837 38.3963 27.8369 38.3749 27.9887C38.3715 28.0374 38.3715 28.0862 38.3749 28.1349C38.3749 28.4934 38.3749 28.4934 38.0262 28.5216C37.7955 28.5405 37.6487 28.6837 37.6499 28.8887C37.6511 29.0936 37.798 29.2343 38.0299 29.2527C38.3749 29.279 38.3749 29.279 38.3749 29.6198C38.3749 30.4096 38.3706 31.1989 38.3786 31.9881C38.3786 32.1454 38.3407 32.1906 38.1798 32.1888C37.3334 32.181 36.4873 32.181 35.6413 32.1888C35.4804 32.1888 35.44 32.1454 35.4425 31.9881C35.4498 31.3176 35.4449 30.6501 35.4449 29.9832Z" fill="#FEFEFE"/>
</g>
<defs>
<clipPath id="clip0_302_9">
<rect width="16.8329" height="25" fill="white" transform="translate(23 19)"/>
</clipPath>
</defs>
</svg>
