<svg width="62" height="62" viewBox="0 0 62 62" fill="none" xmlns="http://www.w3.org/2000/svg">
<circle cx="31" cy="31" r="31" fill="white"/>
<circle cx="31" cy="31" r="28.5" stroke="#9C5789" stroke-opacity="0.15" stroke-width="5"/>
<path d="M42.993 28.5183C42.9217 28.5422 42.9403 28.613 42.9237 28.6623C42.6028 29.6191 41.7027 30.0869 40.7358 29.7973C40.6972 29.7856 40.6576 29.7797 40.602 29.7675V30.043C40.602 32.0759 40.602 34.1091 40.602 36.1427C40.6074 36.2241 40.605 36.3059 40.5946 36.3868C40.557 36.5778 40.432 36.6921 40.2391 36.6921C40.035 36.6921 39.906 36.5758 39.8743 36.3698C39.8676 36.2969 39.8663 36.2236 39.8704 36.1505V29.3641C39.7752 29.3641 39.7444 29.4408 39.6931 29.4828C38.986 30.06 38.0185 30.02 37.3714 29.3739C37.2776 29.2801 37.2405 29.2347 37.1175 29.3588C36.4132 30.0708 35.3745 30.0649 34.6576 29.3588C34.5985 29.3006 34.5736 29.2122 34.4573 29.3202C33.6115 30.1074 32.6875 30.0806 31.848 29.245C31.5896 29.5287 31.2878 29.7504 30.9049 29.8354C30.2857 29.9731 29.7456 29.8198 29.2933 29.3773C29.1903 29.2762 29.1468 29.243 29.0247 29.3675C28.3381 30.0654 27.2803 30.062 26.5863 29.3622C26.474 29.2489 26.4364 29.2645 26.3333 29.3671C25.6443 30.0625 24.5904 30.0586 23.8915 29.3671C23.8266 29.3031 23.7977 29.2083 23.6732 29.328C22.9099 30.0605 22.0128 30.0767 21.2138 29.3866C21.1982 29.3729 21.1791 29.3631 21.1332 29.3319V39.255C21.1389 39.3365 21.1365 39.4183 21.1259 39.4992C21.0858 39.6989 20.9598 39.8196 20.7523 39.8113C20.5447 39.803 20.4246 39.6838 20.4046 39.4748C20.3968 39.3937 20.4016 39.3122 20.4016 39.2306C20.4016 36.1725 20.4016 33.1145 20.4016 30.0566V29.769C20.0818 29.8613 19.7716 29.9292 19.4547 29.8667C18.7744 29.7324 18.3178 29.3397 18.0892 28.6833C18.0697 28.6272 18.0892 28.5476 18.0121 28.5163V26.4671C18.0641 26.3225 18.1341 26.185 18.2206 26.0579C18.7661 25.2277 19.3438 24.4214 19.881 23.5902C20.1633 23.1456 20.6057 22.8267 21.1166 22.6994C21.3002 22.6505 21.3652 22.5636 21.3632 22.3771C21.3559 21.6372 21.3598 20.8968 21.3603 20.1569C21.3603 19.525 21.6963 19.1148 22.3033 19H38.6978C39.3503 19.1538 39.6399 19.5255 39.6409 20.2121C39.6409 20.9276 39.6462 21.6426 39.6374 22.358C39.6374 22.5597 39.6863 22.6647 39.9046 22.7096C40.3988 22.8112 40.7661 23.1223 41.0517 23.5213C41.6671 24.3799 42.2316 25.2736 42.8367 26.1394C42.8996 26.2429 42.9513 26.3528 42.9911 26.4671L42.993 28.5183Z" fill="#875A7B"/>
<path d="M18.0121 43.5C18.1258 43.3047 18.2963 43.2446 18.5209 43.25C19.0816 43.2631 19.6442 43.25 20.2038 43.2583C20.367 43.2612 20.4055 43.2119 20.4031 43.0551C20.3938 42.4534 20.3982 41.8513 20.4002 41.2481C20.4002 40.96 20.5345 40.8032 20.7684 40.8062C21.0023 40.8091 21.1298 40.9703 21.1308 41.2589C21.1308 41.8606 21.144 42.4627 21.1249 43.0658C21.1176 43.3047 21.2543 43.2583 21.3842 43.2534C21.5141 43.2485 21.6929 43.3252 21.6665 43.0629C21.6534 42.8597 21.6522 42.6558 21.6631 42.4525C21.6704 42.0837 21.8492 41.864 22.2105 41.8347C22.4176 41.8176 22.3658 41.6916 22.3663 41.5817C22.3663 39.7357 22.3663 37.8893 22.3663 36.0426C22.3663 35.1401 22.3663 34.2375 22.3663 33.3346C22.3663 32.7032 22.6945 32.3789 23.3318 32.3784C24.7224 32.3784 26.1128 32.3784 27.503 32.3784C28.1315 32.3784 28.4538 32.6978 28.4548 33.3175C28.4548 33.8385 28.4548 34.3594 28.4548 34.8803C28.4548 35.1821 28.3176 35.3535 28.0851 35.3496C27.8527 35.3457 27.7242 35.1758 27.7232 34.8686C27.7232 34.3563 27.7169 33.843 27.7267 33.3317C27.7296 33.1598 27.672 33.1076 27.5025 33.108C26.1119 33.1132 24.7216 33.1132 23.3313 33.108C23.1467 33.108 23.095 33.172 23.095 33.3493C23.0995 36.1066 23.0995 38.8639 23.095 41.6213C23.095 41.8068 23.1658 41.8288 23.3221 41.8283C24.7221 41.8234 26.1207 41.8234 27.5181 41.8283C27.6954 41.8283 27.7286 41.7722 27.7281 41.6081C27.7223 40.0223 27.7242 38.4337 27.7252 36.8504C27.7193 36.7687 27.7246 36.6865 27.7408 36.6062C27.7926 36.4201 27.9225 36.3132 28.1178 36.3288C28.3132 36.3444 28.4284 36.4597 28.4524 36.6555C28.4581 36.7285 28.4594 36.8017 28.4563 36.8748C28.4563 38.4449 28.4563 40.0145 28.4533 41.5841C28.4533 41.7468 28.4704 41.8283 28.6653 41.8376C28.9647 41.8552 29.1595 42.0955 29.1737 42.4236C29.1839 42.6507 29.1825 42.8793 29.1737 43.1074C29.1693 43.2265 29.2098 43.2587 29.3256 43.2568C29.6914 43.25 30.0581 43.2441 30.4229 43.2568C30.589 43.2636 30.6022 43.1953 30.6017 43.0614C30.5963 42.2073 30.5987 41.3522 30.5987 40.4995V35.9367C30.5943 35.8637 30.5958 35.7906 30.6031 35.7179C30.6368 35.5162 30.7536 35.3941 30.9645 35.3936C31.1755 35.3931 31.2917 35.5167 31.3264 35.7174C31.3337 35.7902 31.3352 35.8636 31.3308 35.9367C31.3308 37.3764 31.3347 38.818 31.3259 40.2558C31.3259 40.4414 31.3748 40.4824 31.5525 40.4785C32.1293 40.4663 32.707 40.4721 33.2843 40.4746C33.7497 40.4746 33.9895 40.7124 33.9934 41.1812C33.9983 41.7995 34.0036 42.4178 33.9895 43.037C33.9851 43.2275 34.0437 43.2856 34.22 43.2568C34.2603 43.2509 34.3013 43.2509 34.3416 43.2568C34.5697 43.2841 34.742 43.2846 34.6913 42.9535C34.662 42.765 34.827 42.6439 35.018 42.6307C35.1002 42.6194 35.1837 42.64 35.2514 42.6882C35.319 42.7364 35.3656 42.8086 35.3818 42.89C35.4277 43.0785 35.4531 43.291 35.7134 43.2441C35.9659 43.1982 35.9239 42.975 35.9239 42.7904C35.9239 41.8469 35.918 40.9034 35.9288 39.9579C35.9312 39.7557 35.8985 39.6829 35.6714 39.6883C34.9159 39.7059 34.1575 39.6966 33.4029 39.6942C32.6606 39.6942 32.2069 39.2361 32.202 38.4933C32.202 38.42 32.202 38.3468 32.202 38.2735C32.2089 37.938 32.3588 37.7783 32.6904 37.7754C33.3004 37.7695 33.9113 37.7651 34.5198 37.7788C34.6947 37.7827 34.7513 37.7241 34.7928 37.5644C34.9457 36.9735 35.2841 36.529 35.8672 36.2995C35.9327 36.2719 35.9863 36.2221 36.0186 36.1589C36.1847 35.8981 36.485 35.8981 36.6535 36.155C36.6936 36.216 36.7234 36.2673 36.8 36.2976C37.3826 36.5247 37.7279 36.9661 37.8744 37.5595C37.9194 37.7417 37.999 37.7802 38.1675 37.7773C38.7286 37.7671 39.2907 37.771 39.8509 37.7744C40.2308 37.7744 40.3817 37.9297 40.3881 38.3072C40.3925 38.5108 40.3929 38.715 40.3319 38.9118C40.2617 39.1389 40.1204 39.3375 39.9288 39.4782C39.7372 39.6189 39.5055 39.6942 39.2677 39.6932C38.4707 39.6995 37.6737 39.7005 36.8772 39.6932C36.7019 39.6932 36.6433 39.7244 36.6452 39.9154C36.6564 40.8994 36.6516 41.884 36.6491 42.8681C36.6491 43.0536 36.674 43.2294 36.8933 43.2485C37.097 43.2666 37.1585 43.1201 37.1863 42.9359C37.2161 42.7333 37.3577 42.6258 37.5638 42.6297C37.7562 42.6332 37.9032 42.7968 37.9057 43.0028C37.9057 43.082 37.893 43.1611 37.8847 43.2568C38.0913 43.2568 38.2944 43.246 38.4961 43.2602C38.6529 43.271 38.6846 43.2114 38.6832 43.0649C38.6749 42.4549 38.6788 41.8439 38.6798 41.235C38.6798 40.6899 38.8995 40.4751 39.4528 40.4746C40.0062 40.4741 40.559 40.4668 41.1133 40.479C41.2925 40.4834 41.3414 40.4418 41.3404 40.2558C41.3316 38.8083 41.335 37.3603 41.3365 35.9127C41.3322 35.8237 41.341 35.7345 41.3624 35.648C41.4195 35.459 41.5577 35.3726 41.753 35.397C41.9367 35.4205 42.0422 35.5338 42.0617 35.7184C42.0677 35.7996 42.0694 35.8811 42.0666 35.9625V42.7938C42.0666 43.25 42.0666 43.2524 42.5154 43.2529C42.7054 43.2529 42.8729 43.2812 42.9442 43.4902C42.9759 43.5737 42.9539 43.6607 42.9603 43.7461C42.9578 43.9298 42.8426 43.9713 42.6878 43.963H18.3334C18.1581 43.9908 18.056 43.9097 18.0121 43.7442V43.5Z" fill="#875A7B"/>
<path d="M18.2489 43.9424C18.3788 43.9424 18.5087 43.9395 18.6396 43.9395H42.7059C42.722 43.9395 42.7386 43.9395 42.7547 43.9424C42.7584 43.9455 42.7613 43.9494 42.7632 43.9539C42.765 43.9583 42.7657 43.9632 42.7653 43.968C42.7649 43.9728 42.7633 43.9774 42.7607 43.9814C42.7581 43.9855 42.7545 43.9888 42.7503 43.9912H18.2558C18.2508 43.9884 18.2468 43.9841 18.2443 43.979C18.2418 43.9738 18.2408 43.9681 18.2416 43.9624C18.2445 43.9478 18.2445 43.9424 18.2489 43.9424Z" fill="#111111"/>
<path d="M18.2489 43.9424C18.2537 43.9488 18.2568 43.9564 18.258 43.9643C18.2592 43.9722 18.2584 43.9803 18.2557 43.9878C18.049 44.0318 17.9676 43.9504 18.0116 43.7437C18.098 43.8042 18.1185 43.9375 18.2489 43.9424Z" fill="#EFEFEF"/>
<path d="M42.7493 43.9879L42.7537 43.9391C42.8616 43.9195 42.9183 43.8472 42.949 43.7486C42.9598 43.7222 42.9744 43.7188 42.9925 43.7422C43.0368 43.9503 42.9557 44.0322 42.7493 43.9879Z" fill="#F5F5F5"/>
<path d="M42.993 43.744C42.9784 43.744 42.9642 43.7474 42.9496 43.7504L42.952 43.4901C42.9589 43.4868 42.9668 43.486 42.9742 43.4877C42.9817 43.4895 42.9883 43.4938 42.993 43.4998V43.744Z" fill="#4F4F4F"/>
<path d="M27.0879 37.5618C27.0892 37.61 27.0809 37.658 27.0635 37.703C27.0461 37.7481 27.02 37.7892 26.9866 37.824C26.9532 37.8588 26.9132 37.8867 26.869 37.906C26.8248 37.9253 26.7772 37.9356 26.7289 37.9364C26.6569 37.9375 26.5862 37.9173 26.5257 37.8783C26.4652 37.8394 26.4175 37.7834 26.3888 37.7174C26.36 37.6514 26.3514 37.5784 26.364 37.5076C26.3767 37.4367 26.41 37.3712 26.4598 37.3192C26.5096 37.2672 26.5736 37.2311 26.6439 37.2155C26.7142 37.1999 26.7875 37.2054 26.8546 37.2313C26.9218 37.2572 26.9797 37.3024 27.0212 37.3613C27.0627 37.4201 27.0859 37.4898 27.0879 37.5618Z" fill="#020202"/>
<path d="M30.5025 22.7024C27.8028 22.7024 25.1032 22.7041 22.4035 22.7073C22.1959 22.7073 22.1143 22.6702 22.1334 22.4451C22.1494 22.1771 22.1506 21.9084 22.1368 21.6402C22.1334 21.5201 22.1598 21.4532 22.2955 21.4713C22.3523 21.4749 22.4092 21.4749 22.466 21.4713C26.524 21.4713 30.5818 21.4713 34.6395 21.4713C34.7527 21.4761 34.8661 21.4667 34.977 21.4434C35.1572 21.3946 35.2451 21.2603 35.2319 21.0776C35.2187 20.895 35.1152 20.7763 34.9296 20.7494C34.8405 20.7402 34.7509 20.7372 34.6615 20.7407C30.5797 20.7407 26.4976 20.7421 22.4152 20.7451C22.1949 20.7451 22.128 20.6962 22.1329 20.4672C22.148 19.7673 22.1729 19.7317 22.8655 19.7317H38.2588C38.7677 19.7317 38.8585 19.8206 38.8585 20.3211C38.8585 20.7402 38.8585 20.7402 38.438 20.7402H36.8513C36.4997 20.7402 36.3226 20.8595 36.32 21.0981C36.3165 21.3423 36.5036 21.4717 36.8669 21.4722C37.4686 21.4722 38.0708 21.4776 38.6739 21.4688C38.8243 21.4688 38.8692 21.5054 38.8629 21.6573C38.844 21.9174 38.844 22.1786 38.8629 22.4387C38.8854 22.679 38.7852 22.7083 38.5777 22.7078C35.8861 22.701 33.1944 22.6992 30.5025 22.7024Z" fill="#FEFEFE"/>
<path d="M27.8517 26.2231C27.5919 26.2231 27.332 26.2172 27.0703 26.226C26.9492 26.2299 26.913 26.1986 26.9413 26.077C27.126 25.28 27.3062 24.4815 27.4898 23.684C27.5298 23.5107 27.607 23.412 27.8224 23.4276C28.1696 23.4535 28.5198 23.4384 28.8689 23.4325C28.9896 23.4325 29.034 23.453 29.0223 23.5927C28.9536 24.3936 28.893 25.195 28.8406 25.9969C28.8299 26.1664 28.7942 26.2411 28.6042 26.2274C28.3561 26.2084 28.1032 26.2231 27.8517 26.2231Z" fill="#FEFEFE"/>
<path d="M34.0886 26.2229C33.4772 26.2229 32.8862 26.2229 32.2953 26.2229C32.2152 26.2229 32.1786 26.1956 32.1727 26.113C32.1088 25.255 32.0448 24.3969 31.9774 23.5393C31.9696 23.4417 32.0179 23.4338 32.0902 23.4338C32.4965 23.4338 32.9024 23.4373 33.3082 23.4338C33.461 23.4338 33.4708 23.5506 33.4938 23.6453C33.6237 24.1825 33.7477 24.7168 33.8718 25.253C33.9431 25.5675 34.0124 25.8835 34.0886 26.2229Z" fill="#FEFEFE"/>
<path d="M30.5025 26.223C30.2427 26.223 29.9824 26.2186 29.7211 26.223C29.6049 26.226 29.5497 26.2108 29.5619 26.0677C29.6332 25.2429 29.6957 24.4171 29.7573 23.5907C29.7661 23.4696 29.8007 23.4271 29.9282 23.4301C30.3096 23.4389 30.6915 23.4379 31.0734 23.4301C31.195 23.4301 31.2405 23.4599 31.2492 23.5868C31.3078 24.421 31.3715 25.2549 31.4402 26.0887C31.4495 26.203 31.4089 26.2245 31.3074 26.2226C31.0397 26.2191 30.7716 26.223 30.5025 26.223Z" fill="#FEFEFE"/>
<path d="M26.7939 23.4343C26.5927 24.3251 26.3968 25.1783 26.2103 26.0339C26.179 26.1775 26.1282 26.2293 25.9734 26.2293C25.4294 26.2185 24.8848 26.2249 24.31 26.2249C24.3828 26.0251 24.4477 25.839 24.5171 25.6549C24.7388 25.063 24.9566 24.4706 25.1862 23.8812C25.3351 23.4939 25.4264 23.4368 25.8313 23.4368L26.7939 23.4343Z" fill="#FEFEFE"/>
<path d="M34.2141 23.4354C34.6204 23.4354 35.018 23.4281 35.415 23.4354C35.6289 23.4408 35.708 23.6224 35.7774 23.7851C35.9293 24.1513 36.0665 24.524 36.2066 24.8951C36.3688 25.3263 36.528 25.7585 36.6999 26.2201C36.0997 26.2201 35.5195 26.2201 34.9393 26.2201C34.8324 26.2201 34.8246 26.1488 34.8089 26.0809C34.6092 25.2082 34.4129 24.331 34.2141 23.4354Z" fill="#FEFEFE"/>
<path d="M24.5679 23.4343C24.226 24.3485 23.8969 25.2276 23.5687 26.1071C23.5413 26.1804 23.5086 26.2258 23.4139 26.2248C22.8464 26.2199 22.2784 26.2248 21.6772 26.2248C21.7969 25.9948 21.9034 25.7887 22.0113 25.5826C22.2942 25.0438 22.5771 24.5054 22.8601 23.9676C23.05 23.6057 23.3235 23.3976 23.7577 23.4304C24.0155 23.4519 24.2768 23.4343 24.5679 23.4343Z" fill="#FEFEFE"/>
<path d="M39.3317 26.2229C38.7222 26.2229 38.1567 26.22 37.5917 26.2258C37.4818 26.2258 37.4588 26.1643 37.4295 26.0852C37.1038 25.2149 36.7771 24.3451 36.4411 23.4509C36.8318 23.4509 37.2063 23.4324 37.579 23.4587C37.7665 23.4724 37.9267 23.6126 38.0185 23.7796C38.4561 24.5791 38.8829 25.3849 39.3317 26.2229Z" fill="#FEFEFE"/>
<path d="M38.689 23.4422C38.9967 23.4422 39.2804 23.4207 39.5598 23.4476C39.9265 23.4823 40.2093 23.6825 40.4159 23.9848C40.9116 24.7173 41.4068 25.4475 41.9298 26.2201C41.6056 26.2201 41.312 26.2249 41.018 26.2201C40.7241 26.2152 40.3832 26.327 40.1615 26.1771C39.9544 26.035 39.8767 25.7019 39.7449 25.4514C39.3957 24.7886 39.049 24.123 38.689 23.4422Z" fill="#FEFEFE"/>
<path d="M19.0679 26.2229C19.6051 25.4332 20.1062 24.6782 20.6238 23.9334C20.8558 23.6004 21.1928 23.4358 21.6035 23.4353H22.3116C22.1026 23.8299 21.9073 24.2089 21.7119 24.5854C21.4515 25.0806 21.191 25.5753 20.9305 26.0696C20.8841 26.1584 20.8446 26.2283 20.7176 26.2263C20.1819 26.2175 19.6471 26.2229 19.0679 26.2229Z" fill="#FEFEFE"/>
<path d="M24.1313 27.6001C24.1518 27.4204 24.0336 27.121 24.1801 26.9921C24.3047 26.8817 24.5967 26.9584 24.815 26.9569C25.1803 26.9569 25.5476 26.9628 25.9104 26.9535C26.0535 26.9496 26.1111 26.9804 26.1058 27.1381C26.0931 27.4707 26.1082 27.8038 26.1004 28.1363C26.0843 28.7278 25.6677 29.1531 25.1115 29.1531C24.5659 29.1531 24.1557 28.7366 24.1347 28.1559C24.1259 27.9859 24.1313 27.815 24.1313 27.6001Z" fill="#FEFEFE"/>
<path d="M35.9044 26.9556C36.172 26.9556 36.4416 26.961 36.7072 26.9531C36.8289 26.9497 36.8806 26.9781 36.8777 27.1124C36.8684 27.4694 36.886 27.8273 36.8694 28.1833C36.844 28.7508 36.4269 29.1532 35.8892 29.1523C35.3515 29.1513 34.932 28.7415 34.9101 28.1799C34.8959 27.8234 34.9125 27.4659 34.9032 27.1089C34.8993 26.9688 34.9608 26.9512 35.0766 26.9536C35.3525 26.9605 35.6304 26.9556 35.9044 26.9556Z" fill="#FEFEFE"/>
<path d="M19.7296 26.9555C19.9973 26.9555 20.2669 26.9634 20.533 26.9521C20.6746 26.9463 20.7088 26.9951 20.7054 27.1299C20.6961 27.4952 20.7098 27.8624 20.6981 28.2258C20.6888 28.4759 20.5826 28.7125 20.402 28.8857C20.2213 29.0589 19.9804 29.155 19.7301 29.1537C19.4798 29.1575 19.2378 29.0642 19.0548 28.8933C18.8718 28.7225 18.762 28.4875 18.7485 28.2375C18.7329 27.8566 18.7485 27.4742 18.7407 27.0933C18.7373 26.9595 18.7998 26.9536 18.9019 26.9555C19.1778 26.9595 19.4537 26.9555 19.7296 26.9555Z" fill="#FEFEFE"/>
<path d="M41.3008 26.9554C41.5684 26.9554 41.838 26.9628 42.1042 26.952C42.236 26.9471 42.2663 26.993 42.2639 27.1166C42.2565 27.4819 42.2697 27.8491 42.258 28.2125C42.2564 28.4715 42.1519 28.7193 41.9676 28.9014C41.7833 29.0834 41.5342 29.1847 41.2752 29.1831C41.0161 29.1815 40.7683 29.077 40.5863 28.8927C40.4043 28.7084 40.3029 28.4593 40.3045 28.2003C40.2957 27.8355 40.3045 27.4677 40.2992 27.1049C40.2992 26.9901 40.328 26.9491 40.4457 26.9525C40.7323 26.9618 41.0166 26.9554 41.3008 26.9554Z" fill="#FEFEFE"/>
<path d="M30.5133 26.9556C30.7809 26.9556 31.0505 26.9609 31.3166 26.9531C31.4368 26.9497 31.4885 26.9727 31.4846 27.1094C31.4749 27.4747 31.4881 27.842 31.4788 28.2053C31.4792 28.4643 31.3766 28.7129 31.1937 28.8964C31.0108 29.0798 30.7626 29.1831 30.5035 29.1835C30.2445 29.1839 29.9959 29.0814 29.8124 28.8985C29.629 28.7156 29.5257 28.4673 29.5253 28.2082C29.516 27.8429 29.5282 27.4757 29.519 27.1123C29.516 26.981 29.5605 26.9492 29.6845 26.9526C29.9614 26.9624 30.2374 26.9556 30.5133 26.9556Z" fill="#FEFEFE"/>
<path d="M33.1959 26.9555C33.4718 26.9555 33.7477 26.9604 34.0261 26.9531C34.1399 26.9501 34.1819 26.9804 34.1794 27.0996C34.1711 27.4727 34.1848 27.8463 34.1716 28.2194C34.1644 28.466 34.0628 28.7003 33.8878 28.8741C33.7127 29.0479 33.4776 29.1478 33.231 29.1532C32.707 29.1664 32.2592 28.7893 32.2226 28.2663C32.1952 27.8707 32.2186 27.4712 32.2113 27.0737C32.2089 26.9443 32.2856 26.9565 32.3686 26.9565C32.6445 26.9555 32.9204 26.9555 33.1959 26.9555Z" fill="#FEFEFE"/>
<path d="M27.8199 26.9556C28.088 26.9556 28.3571 26.96 28.6233 26.9556C28.739 26.9527 28.7991 26.9693 28.7952 27.1094C28.7849 27.4747 28.8011 27.842 28.7879 28.2048C28.7846 28.3329 28.7561 28.459 28.704 28.576C28.6519 28.693 28.5772 28.7985 28.4843 28.8866C28.3913 28.9747 28.2819 29.0436 28.1623 29.0894C28.0427 29.1351 27.9152 29.1568 27.7872 29.1533C27.2608 29.1454 26.8476 28.7318 26.8339 28.1868C26.8251 27.8298 26.8368 27.4723 26.8281 27.1153C26.8251 26.9859 26.8657 26.9497 26.9926 26.9536C27.2681 26.9629 27.544 26.9556 27.8199 26.9556Z" fill="#FEFEFE"/>
<path d="M22.4171 26.9555C22.6853 26.9555 22.9543 26.9614 23.2205 26.9531C23.3504 26.9487 23.4071 26.976 23.4022 27.1225C23.3914 27.4712 23.4071 27.8209 23.3958 28.1696C23.3773 28.7463 22.9563 29.1571 22.4069 29.1522C21.8575 29.1473 21.4468 28.7195 21.436 28.1452C21.4297 27.8126 21.4448 27.4795 21.4301 27.1474C21.4228 26.976 21.4883 26.9462 21.6387 26.9521C21.8975 26.9643 22.1578 26.9555 22.4171 26.9555Z" fill="#FEFEFE"/>
<path d="M38.6055 26.9556C38.881 26.9556 39.1574 26.959 39.4328 26.9556C39.5368 26.9556 39.5749 26.9854 39.573 27.0933C39.5666 27.4669 39.5837 27.841 39.5652 28.2131C39.5565 28.4674 39.4486 28.7082 39.2646 28.8839C39.0806 29.0596 38.835 29.1563 38.5806 29.1532C38.0507 29.1532 37.6327 28.7498 37.6112 28.2019C37.597 27.8371 37.6112 27.4693 37.6044 27.1065C37.6044 26.9922 37.6317 26.9497 37.7533 26.9536C38.0371 26.9624 38.3213 26.9556 38.6055 26.9556Z" fill="#FEFEFE"/>
<path d="M25.4011 42.5564C26.3348 42.5564 27.2691 42.5608 28.2028 42.5525C28.3821 42.5525 28.4578 42.5813 28.4509 42.7864C28.4353 43.2538 28.4475 43.2543 27.9806 43.2543C26.202 43.2543 24.4234 43.2509 22.6447 43.2587C22.4494 43.2587 22.3805 43.2259 22.3888 43.0145C22.4064 42.5579 22.3932 42.5574 22.8425 42.5574L25.4011 42.5564Z" fill="#FEFEFE"/>
<path d="M31.3328 42.2258C31.3328 41.9416 31.3367 41.6569 31.3328 41.3727C31.3328 41.2598 31.3425 41.1998 31.4856 41.2022C32.0297 41.212 32.5737 41.2095 33.1177 41.2022C33.2364 41.2022 33.2701 41.2384 33.2691 41.3546C33.2639 41.9406 33.2639 42.5255 33.2691 43.1093C33.2691 43.2338 33.2203 43.2558 33.1104 43.2558C32.5664 43.2514 32.0218 43.2499 31.4778 43.2558C31.3547 43.2558 31.3313 43.2128 31.3313 43.1015C31.3362 42.8109 31.3328 42.5184 31.3328 42.2258Z" fill="#FEFEFE"/>
<path d="M41.3443 42.2478C41.3443 42.5242 41.3375 42.8011 41.3472 43.078C41.3516 43.2109 41.3218 43.2612 41.1763 43.2587C40.6479 43.2499 40.1193 43.2499 39.5906 43.2587C39.4441 43.2612 39.4182 43.2099 39.4196 43.078C39.4265 42.5086 39.4265 41.9388 39.4196 41.3687C39.4196 41.2457 39.4455 41.2007 39.5784 41.2027C40.1152 41.2099 40.6524 41.2099 41.19 41.2027C41.3238 41.2027 41.3521 41.2462 41.3482 41.3692C41.3365 41.6618 41.3443 41.9548 41.3443 42.2478Z" fill="#FEFEFE"/>
<path d="M36.2833 38.5054C37.3402 38.5054 38.3968 38.5054 39.4533 38.5054C39.5212 38.5054 39.616 38.4668 39.6487 38.5489C39.6814 38.6309 39.6394 38.709 39.595 38.7779C39.5582 38.8368 39.5065 38.8849 39.445 38.9171C39.3836 38.9494 39.3146 38.9647 39.2453 38.9615C37.2785 38.9615 35.3117 38.9615 33.3448 38.9615C33.2838 38.9643 33.2229 38.9531 33.1669 38.9287C33.1108 38.9044 33.0611 38.8675 33.0215 38.8209C32.9561 38.7437 32.9073 38.648 32.9449 38.5523C32.9825 38.4566 33.088 38.5064 33.1612 38.5064C34.2029 38.5044 35.2431 38.5054 36.2833 38.5054Z" fill="#FEFEFE"/>
<path d="M36.3249 37.7739C36.1061 37.7739 35.8853 37.7656 35.668 37.7763C35.5029 37.7846 35.498 37.7177 35.5449 37.5898C35.6836 37.2108 36.0103 36.948 36.3488 36.9519C36.6872 36.9559 37.0066 37.2293 37.139 37.6088C37.1785 37.7231 37.1878 37.7846 37.0301 37.7768C36.7956 37.7651 36.5583 37.7739 36.3249 37.7739Z" fill="#FCFCFC"/>
</svg>
