<svg width="62" height="62" viewBox="0 0 62 62" fill="none" xmlns="http://www.w3.org/2000/svg">
<circle cx="31" cy="31" r="31" fill="white"/>
<circle cx="31" cy="31" r="28.5" stroke="#9C5789" stroke-opacity="0.15" stroke-width="5"/>
<g clip-path="url(#clip0_302_8)">
<path d="M18 42.1139V32.9602C18.4252 33.2108 18.8943 33.1336 19.3516 33.1362C20.4036 33.1408 21.4555 33.1362 22.5082 33.1362C22.9583 33.1362 23.0584 33.2356 23.0597 33.6805C23.0597 34.5859 23.0597 35.4916 23.0597 36.3974C23.0504 36.5365 23.0728 36.6758 23.1251 36.805C23.1781 36.9162 23.2618 36.9921 23.3927 36.9784C23.4544 36.9735 23.5129 36.9483 23.5589 36.9068C23.6049 36.8653 23.636 36.8097 23.6471 36.7487C23.6623 36.6686 23.6673 36.5868 23.6622 36.5054C23.6622 35.9585 23.6687 35.4122 23.6622 34.8653C23.6583 34.6363 23.7453 34.5061 23.9618 34.425C24.4813 34.2287 24.9922 34.0122 25.5195 33.8414C26.7317 33.4489 27.9244 33.6164 29.0915 34.0377C30.3646 34.4956 31.4898 35.2277 32.5333 36.0657C33.3105 36.6905 33.5951 37.5842 33.4642 38.5694C33.3491 39.4336 32.7603 39.7575 31.9164 39.516C31.5029 39.3983 31.1568 39.1425 30.8042 38.9096C29.9596 38.3535 29.1033 37.8125 28.2633 37.2518C28.1288 37.1592 27.9878 37.0766 27.8413 37.0045C27.7842 36.9703 27.7163 36.9591 27.6513 36.9732C27.5863 36.9873 27.529 37.0257 27.4913 37.0804C27.3958 37.208 27.4134 37.3421 27.5116 37.4625C27.5732 37.5281 27.645 37.5833 27.7242 37.626C28.7997 38.3058 29.8576 39.013 30.9298 39.6992C31.4224 40.0146 31.9432 40.2134 32.5398 40.1873C32.7649 40.1829 32.9858 40.126 33.1851 40.0212C33.3843 39.9164 33.5563 39.7665 33.6873 39.5834C33.8075 39.4087 33.9766 39.2733 34.1734 39.1942C36.3048 38.3738 38.4258 37.5325 40.5578 36.7082C40.8004 36.6101 41.0596 36.5594 41.3213 36.559C41.7531 36.559 42.1063 36.6931 42.3026 37.1099C42.5074 37.5488 42.3792 37.9381 42.1018 38.2946C41.8244 38.6512 41.4312 38.8304 41.0367 39.011C39.7172 39.6161 38.4048 40.2357 37.0872 40.8428C35.5989 41.5297 34.1224 42.2402 32.6229 42.9035C31.4035 43.4426 30.2135 43.4223 29.0195 42.8021C28.1854 42.3684 27.3938 41.866 26.5832 41.3956C25.7957 40.9254 24.9047 40.6558 23.9886 40.6105C23.7067 40.5975 23.6707 40.5562 23.6687 40.2677C23.6642 39.7051 23.6687 39.1425 23.6687 38.5792C23.6711 38.5059 23.6689 38.4325 23.6622 38.3594C23.6607 38.3015 23.6382 38.246 23.599 38.2034C23.5598 38.1607 23.5065 38.1336 23.4489 38.1272C23.3888 38.1121 23.3254 38.1176 23.2688 38.1429C23.2122 38.1682 23.1658 38.2117 23.1369 38.2665C23.0656 38.3934 23.0714 38.5334 23.0714 38.6721C23.0714 39.569 23.0714 40.4666 23.0714 41.3642C23.0714 41.8274 22.9256 41.9785 22.4571 41.9805C21.307 41.9857 20.1563 41.9805 19.0062 41.9805C18.6575 41.9857 18.3153 41.9458 18 42.1139Z" fill="#FEFEFE"/>
<path d="M18 42.1139C18.14 41.9307 18.3271 41.8921 18.5515 41.8934C19.8652 41.9006 21.1782 41.8973 22.4918 41.8967C22.9275 41.8967 23.0119 41.8142 23.0119 41.3864C23.0119 40.4561 23.0119 39.526 23.0119 38.5962C23.0087 38.5147 23.0118 38.4331 23.0211 38.3522C23.0538 38.1461 23.1787 38.0296 23.3887 38.0349C23.5987 38.0401 23.7158 38.1585 23.7401 38.3685C23.7472 38.4411 23.7453 38.5151 23.7453 38.5883C23.7453 39.1843 23.7453 39.7796 23.7453 40.375C23.7453 40.4869 23.7518 40.5569 23.8964 40.5555C24.9844 40.5451 25.9447 40.9356 26.8619 41.4852C27.6568 41.9614 28.4353 42.4665 29.2825 42.859C30.3208 43.3412 31.3564 43.3543 32.4064 42.9192C33.7737 42.3533 35.0978 41.6913 36.4422 41.0737C38.0529 40.3344 39.657 39.5801 41.2637 38.8323C41.7433 38.6093 42.1567 38.3208 42.2967 37.7686C42.4407 37.2027 42.0828 36.6918 41.5025 36.629C41.2173 36.5976 40.9288 36.6363 40.6619 36.7415C38.448 37.6011 36.235 38.4629 34.0229 39.3269C33.9526 39.3488 33.8925 39.3953 33.8535 39.4578C33.425 40.1905 32.6105 40.4227 31.76 40.1709C31.4632 40.083 31.1806 39.953 30.9207 39.7849C29.8068 39.0639 28.6946 38.341 27.5842 37.6162C27.297 37.4297 27.2571 37.1255 27.4874 36.962C27.6627 36.837 27.8223 36.8965 27.9833 37.0019C28.863 37.5767 29.7437 38.1491 30.6256 38.7192C31.0083 38.9658 31.3714 39.2465 31.7993 39.4166C32.093 39.5337 32.3972 39.5997 32.706 39.4983C33.1921 39.3387 33.3772 38.9423 33.4086 38.4791C33.4799 37.4199 33.1195 36.5295 32.2396 35.9133C31.4336 35.3493 30.623 34.7874 29.7208 34.3752C28.0768 33.6242 26.4177 33.4116 24.7233 34.2084C24.6716 34.2326 24.6187 34.2529 24.5657 34.2738C24.2942 34.3818 23.9115 34.4047 23.7806 34.6199C23.6498 34.8351 23.7453 35.1897 23.744 35.4828C23.744 35.8662 23.744 36.2495 23.744 36.6329C23.7407 36.9037 23.6053 37.066 23.3894 37.0719C23.1735 37.0778 23.0132 36.9103 23.0126 36.6283C23.0086 35.647 23.0126 34.6703 23.0126 33.6916C23.0126 33.2663 22.9347 33.1872 22.5147 33.1872C21.1932 33.1872 19.8717 33.1832 18.5502 33.1872C18.3265 33.1872 18.138 33.1466 18.0007 32.9608V32.6671C18.0661 32.4649 18.2192 32.4054 18.4174 32.4021C19.8684 32.4021 21.3201 32.3956 22.7712 32.406C23.3246 32.41 23.7616 32.8581 23.7957 33.4207C23.8114 33.6824 23.8284 33.6961 24.0652 33.6026C24.4976 33.4312 24.9281 33.2552 25.3736 33.1172C25.4338 33.1046 25.4871 33.0701 25.5234 33.0204C25.5596 32.9708 25.5762 32.9094 25.5699 32.8483C25.5699 31.5196 25.5731 30.1902 25.566 28.8615C25.566 28.6293 25.5202 28.6083 25.299 28.7019C25.2325 28.7329 25.1643 28.7604 25.0949 28.7843C24.9543 28.8282 24.8908 28.9152 24.8705 29.0676C24.8156 29.4765 24.5951 29.7257 24.1928 29.7957C23.6615 29.8873 23.1186 29.8873 22.5873 29.7957C22.187 29.7303 21.9802 29.4935 21.9076 29.0944C21.8422 28.7503 21.3842 28.5573 21.101 28.7549C20.7634 28.9878 20.3526 28.9904 20.0366 28.7261C19.6796 28.4289 19.3511 28.099 19.0553 27.7409C18.7432 27.3608 18.7484 27.0271 19.0291 26.6254C19.1933 26.3893 19.0042 25.9261 18.717 25.8783C18.3343 25.8129 18.0713 25.6291 18.0046 25.2241V23.512C18.1773 23.1588 18.4292 22.9233 18.8551 22.9462C18.8711 22.9489 18.8876 22.9484 18.9034 22.9445C18.9192 22.9406 18.9341 22.9335 18.9471 22.9236C18.96 22.9137 18.9708 22.9013 18.9787 22.887C18.9866 22.8728 18.9915 22.8571 18.9931 22.8408C19.004 22.7846 19.0239 22.7305 19.052 22.6805C19.1998 22.43 19.2482 22.2226 19.0075 21.9609C18.7798 21.7247 18.8452 21.3309 19.0749 21.0869C19.4015 20.7436 19.7363 20.4093 20.0791 20.084C20.384 19.7974 20.8197 19.8118 21.135 20.1147C21.2357 20.2109 21.3103 20.2377 21.4241 20.1573C21.472 20.126 21.5245 20.1028 21.5798 20.0886C21.8239 20.0173 21.9861 19.9276 21.9887 19.6038C21.9887 19.2643 22.3499 19.0111 22.7123 19.0052C23.1611 18.9978 23.6099 18.9978 24.0587 19.0052C24.4885 19.0124 24.7979 19.3107 24.8123 19.7412C24.8175 19.8962 24.8548 19.9872 25.0125 20.0146C25.0606 20.0244 25.1067 20.0426 25.1486 20.0683C25.371 20.1991 25.5503 20.2318 25.7786 20.0173C26.0252 19.785 26.44 19.838 26.6945 20.0827C27.0392 20.4065 27.3762 20.7369 27.698 21.0856C27.8296 21.2179 27.9035 21.3969 27.9035 21.5834C27.9035 21.77 27.8296 21.949 27.698 22.0813C27.5515 22.2337 27.5672 22.3476 27.6516 22.498C27.6725 22.5329 27.6884 22.5706 27.6987 22.6099C27.7543 22.8454 27.8662 22.9645 28.1416 22.9769C28.3195 22.9901 28.4849 23.0733 28.6018 23.2081C28.7186 23.3429 28.7773 23.5185 28.765 23.6965C28.75 23.9831 28.8553 24.0145 29.1059 24.0138C32.7036 24.0055 36.3018 24.0038 39.9004 24.0086C40.6854 24.0086 41.2572 24.4083 41.4639 25.0907C41.5131 25.2634 41.5364 25.4424 41.5333 25.6219C41.5333 26.9355 41.5333 28.249 41.5333 29.5622C41.5418 29.6601 41.5282 29.7587 41.4934 29.8507C41.4649 29.9238 41.4122 29.985 41.3441 30.0241C41.2761 30.0631 41.1967 30.0776 41.1192 30.0653C41.0407 30.0601 40.9665 30.0275 40.9096 29.9733C40.8527 29.919 40.8166 29.8464 40.8077 29.7683C40.7987 29.6873 40.7958 29.6057 40.7992 29.5242C40.7992 28.2354 40.7992 26.9464 40.7992 25.6572C40.7992 25.0436 40.4977 24.7413 39.8833 24.7413C38.4722 24.7413 37.0611 24.7446 35.6493 24.7367C35.4707 24.7367 35.4184 24.7727 35.4197 24.9605C35.4301 26.0131 35.4256 27.0657 35.4249 28.1177C35.4249 28.6941 35.1671 28.9498 34.5882 28.9505C33.9108 28.9505 33.2337 28.9505 32.5568 28.9505C32.0053 28.9505 31.7463 28.6947 31.745 28.1478C31.745 27.0873 31.7397 26.0268 31.7489 24.9657C31.7489 24.7832 31.7051 24.7341 31.5199 24.7361C30.6799 24.747 29.8397 24.747 28.9993 24.7361C28.8108 24.7361 28.7716 24.7891 28.7735 24.9677C28.7788 25.491 28.5007 25.7763 27.9708 25.807C27.8642 25.8136 27.802 25.8378 27.7831 25.9483C27.7726 25.996 27.7557 26.042 27.7327 26.0851C27.6156 26.3238 27.5116 26.526 27.7733 26.7818C27.9983 27.0016 27.9427 27.4157 27.7163 27.6578C27.3827 28.015 27.0674 28.414 26.6663 28.6764C26.3674 28.8727 26.3674 29.0787 26.368 29.3489C26.368 30.4912 26.3726 31.6334 26.3647 32.7757C26.3647 32.9477 26.4007 32.9831 26.5761 32.9719C28.207 32.8875 29.6685 33.4168 31.0404 34.2418C31.5638 34.5558 32.0727 34.896 32.5758 35.2407C33.6343 35.9689 34.1459 36.9921 34.1623 38.2697C34.1623 38.3266 34.1623 38.3842 34.1623 38.4411C34.1623 38.447 34.1688 38.4529 34.1826 38.4765L36.3336 37.6384C37.6669 37.119 39.0002 36.6002 40.3334 36.0821C40.796 35.9028 40.7979 35.908 40.7947 35.403C40.7868 34.1469 40.7792 32.8906 40.7718 31.6341C40.7674 31.5449 40.7753 31.4555 40.7953 31.3685C40.8123 31.2871 40.8591 31.2151 40.9266 31.1667C40.994 31.1182 41.0772 31.0968 41.1597 31.1068C41.2468 31.1065 41.3307 31.1398 41.3939 31.1997C41.4572 31.2597 41.4949 31.3416 41.4992 31.4287C41.5051 31.5018 41.5071 31.5751 41.5051 31.6485C41.5134 32.9944 41.5215 34.3405 41.5293 35.6869C41.5293 35.8073 41.5293 35.8792 41.6929 35.9139C42.9758 36.188 43.475 37.5619 42.6919 38.6367C42.4106 39.0234 42.0311 39.2811 41.6033 39.48C39.2219 40.5861 36.8408 41.6934 34.4599 42.8021C33.6278 43.1887 32.8113 43.6153 31.9131 43.843C31.621 43.9168 31.3227 43.9634 31.0221 43.9823C30.9122 44.015 30.8003 43.9901 30.6897 43.998C29.8059 44.0274 29.0431 43.6585 28.2907 43.262C27.3905 42.7851 26.5558 42.1963 25.6405 41.7456C25.1381 41.4983 24.6069 41.4093 24.0626 41.353C23.8787 41.3341 23.8009 41.406 23.7917 41.599C23.761 42.1996 23.4149 42.5764 22.8268 42.6771C22.6826 42.7043 22.5364 42.7194 22.3898 42.7223H18.649C18.5674 42.7246 18.4858 42.72 18.405 42.7085C18.2185 42.6785 18.0628 42.6045 17.998 42.4089L18 42.1139Z" fill="#875A7B"/>
<path d="M18 25.2255C18.1662 25.5977 18.4259 25.8319 18.8603 25.8097C18.8742 25.8072 18.8886 25.8075 18.9024 25.8108C18.9162 25.814 18.9292 25.8201 18.9406 25.8285C18.952 25.837 18.9616 25.8477 18.9687 25.86C18.9758 25.8722 18.9803 25.8859 18.982 25.9C18.9963 25.9632 19.0182 26.0245 19.0474 26.0825C19.1736 26.3232 19.2607 26.5234 19.0049 26.7805C18.7746 27.0115 18.838 27.4203 19.0775 27.6748C19.4007 28.0189 19.7354 28.3524 20.0817 28.6751C20.2159 28.8042 20.3946 28.8767 20.5808 28.8777C20.767 28.8786 20.9464 28.808 21.082 28.6803C21.2318 28.5364 21.3437 28.5299 21.502 28.6339C21.5418 28.6608 21.5861 28.6803 21.6328 28.6915C21.8605 28.7418 21.9796 28.8387 21.975 29.1141C21.9691 29.419 22.2615 29.7029 22.5729 29.7317C23.1086 29.7824 23.6479 29.7824 24.1836 29.7317C24.3559 29.7122 24.5149 29.6294 24.6296 29.4993C24.7444 29.3692 24.8067 29.2012 24.8044 29.0277C24.8044 28.8472 24.8699 28.7661 25.0354 28.7261C25.1598 28.6888 25.28 28.6383 25.3939 28.5757C25.562 28.4913 25.6124 28.5757 25.6274 28.7242C25.6307 28.7569 25.6274 28.7896 25.6274 28.8223C25.6274 30.1837 25.6274 31.5451 25.6307 32.9065C25.6307 33.0623 25.5888 33.1198 25.4344 33.1682C24.9333 33.3324 24.4427 33.5287 23.9474 33.7125C23.8885 33.7348 23.829 33.7557 23.7413 33.7878C23.7413 33.6824 23.7413 33.6039 23.7413 33.5261C23.7191 32.8876 23.2971 32.4532 22.656 32.4486C21.2455 32.4388 19.8357 32.4486 18.4252 32.4421C18.2335 32.4421 18.1138 32.5402 17.9961 32.6625L18 25.2255Z" fill="#FEFEFE"/>
<path d="M37.8265 34.5225C38.168 34.5225 38.5102 34.5225 38.8517 34.5225C39.1133 34.5225 39.2815 34.6664 39.2841 34.8823C39.2867 35.0982 39.1186 35.2533 38.8608 35.2546C38.1695 35.2576 37.478 35.2576 36.7863 35.2546C36.5246 35.2546 36.3598 35.1106 36.3565 34.8915C36.3532 34.6723 36.5161 34.5251 36.7772 34.5225C37.1272 34.5199 37.4772 34.5232 37.8265 34.5225Z" fill="#875A7B"/>
<path d="M37.8173 33.776C37.4758 33.776 37.1343 33.7799 36.7928 33.776C36.5128 33.7714 36.3493 33.6222 36.3578 33.3933C36.3663 33.1754 36.5233 33.0452 36.7974 33.0439C37.4804 33.0409 38.1632 33.0409 38.8458 33.0439C39.1127 33.0439 39.2775 33.1839 39.2847 33.3972C39.2919 33.6105 39.1166 33.7721 38.8418 33.776C38.4997 33.7792 38.1582 33.776 37.8173 33.776Z" fill="#010101"/>
<path d="M27.1648 21.5847C27.1119 21.6416 27.0641 21.6966 27.0131 21.7483C26.6434 22.1218 26.6441 22.1212 26.8822 22.5831C26.9943 22.7997 27.0853 23.0267 27.1537 23.2608C27.2636 23.6344 27.3258 23.6789 27.7262 23.6802C27.7506 23.6818 27.775 23.6818 27.7994 23.6802C27.9872 23.6501 28.0559 23.7161 28.0448 23.9163C28.0264 24.233 28.0323 24.5522 28.0448 24.8702C28.05 25.0226 28.0179 25.1011 27.8485 25.0769C27.759 25.071 27.6691 25.071 27.5796 25.0769C27.493 25.07 27.4069 25.0947 27.3371 25.1464C27.2674 25.1981 27.2187 25.2734 27.2002 25.3582C27.101 25.7096 26.959 26.0475 26.7775 26.3644C26.6513 26.5822 26.7475 26.7478 26.9084 26.9041C27.1779 27.1658 27.174 27.1704 26.9038 27.4406C26.7017 27.6421 26.4962 27.8409 26.2993 28.047C26.2175 28.1321 26.158 28.1366 26.0828 28.047C26.0304 27.9816 25.965 27.9338 25.9114 27.8723C25.7393 27.6761 25.545 27.6532 25.3226 27.786C25.0547 27.9398 24.7691 28.0606 24.4721 28.1458C24.145 28.2459 24.0881 28.3251 24.0861 28.6692C24.0842 29.0133 24.0861 29.0198 23.7387 29.0198C23.4535 29.0198 23.1676 29.0113 22.8824 29.0231C22.7273 29.0296 22.6763 28.9767 22.6946 28.8268C22.6995 28.7454 22.6995 28.6637 22.6946 28.5822C22.6979 28.3552 22.5886 28.2165 22.3675 28.1576C22.0539 28.0713 21.7515 27.9483 21.4667 27.7912C21.1998 27.6453 21.0741 27.6669 20.8589 27.8782C20.8097 27.9212 20.7638 27.9678 20.7215 28.0176C20.628 28.1425 20.5554 28.1249 20.4526 28.0176C20.2178 27.7683 19.9731 27.5282 19.7245 27.2927C19.6296 27.2024 19.5989 27.139 19.7186 27.0467C19.7999 26.9788 19.8754 26.9041 19.9443 26.8236C20.0048 26.7674 20.0438 26.6918 20.0546 26.6099C20.0655 26.5281 20.0476 26.445 20.0039 26.3749C19.823 26.0563 19.6811 25.7172 19.5812 25.3648C19.5636 25.2761 19.5138 25.197 19.4412 25.143C19.3687 25.089 19.2787 25.0638 19.1887 25.0723C19.0906 25.0723 18.9924 25.0645 18.895 25.0723C18.7641 25.0861 18.7295 25.0305 18.7321 24.9055C18.7395 24.5461 18.7395 24.1872 18.7321 23.8287C18.7321 23.7096 18.7713 23.6566 18.8858 23.6769C19.3765 23.7626 19.6002 23.5251 19.6918 23.0652C19.7317 22.8637 19.8527 22.6727 19.9496 22.4888C20.1131 22.1716 20.1033 22.08 19.8495 21.8235C19.6081 21.5795 19.6081 21.5795 19.8495 21.3407C20.0627 21.1274 20.2799 20.9181 20.488 20.6989C20.5697 20.6132 20.6188 20.6198 20.7026 20.6989C21.1435 21.1045 21.1461 21.1013 21.6963 20.8396C21.9023 20.7427 22.1155 20.6622 22.3342 20.5988C22.6266 20.5125 22.6959 20.413 22.6985 20.1056C22.7025 20.0321 22.7025 19.9585 22.6985 19.8851C22.6868 19.7719 22.7234 19.7281 22.8451 19.73C23.2121 19.7379 23.5798 19.7379 23.9461 19.73C24.0737 19.73 24.0986 19.7804 24.0907 19.889C24.0842 19.978 24.0907 20.0683 24.0907 20.1579C24.0907 20.3803 24.1875 20.5249 24.4126 20.5858C24.7271 20.6703 25.0299 20.7936 25.3141 20.9528C25.598 21.1117 25.6955 21.0921 25.9369 20.8546C26.1986 20.5988 26.1986 20.5988 26.4603 20.8605C26.6618 21.062 26.8646 21.2635 27.0661 21.4657C27.0922 21.5036 27.1243 21.5409 27.1648 21.5847Z" fill="#FEFEFE"/>
<path d="M32.477 26.4678C32.477 25.9549 32.4823 25.442 32.4738 24.9291C32.4738 24.7845 32.5032 24.7328 32.6602 24.7361C33.2784 24.7453 33.8973 24.744 34.5162 24.7361C34.6562 24.7361 34.6928 24.7754 34.6922 24.9134C34.687 25.9553 34.687 26.9975 34.6922 28.0399C34.6922 28.1753 34.6595 28.2198 34.5188 28.2178C33.8999 28.2106 33.2811 28.2093 32.6622 28.2178C32.5124 28.2178 32.4705 28.1825 32.4731 28.0301C32.4836 27.5106 32.477 26.9892 32.477 26.4678Z" fill="#FEFEFE"/>
<path d="M20.6286 24.3861C20.6277 23.6531 20.9176 22.9496 21.4347 22.43C21.9517 21.9104 22.6537 21.617 23.3868 21.6143C24.9039 21.6143 26.1619 22.8671 26.158 24.3803C26.1588 25.1135 25.8682 25.817 25.3503 26.3361C24.8324 26.8551 24.1295 27.1471 23.3962 27.1479C22.663 27.1487 21.9595 26.8581 21.4404 26.3402C20.9214 25.8223 20.6294 25.1194 20.6286 24.3861Z" fill="#875A7B"/>
<path d="M23.39 26.401C23.1171 26.412 22.8447 26.3677 22.5893 26.2708C22.3339 26.1739 22.1006 26.0264 21.9036 25.8372C21.7066 25.6479 21.5499 25.4208 21.4428 25.1695C21.3357 24.9182 21.2805 24.6478 21.2805 24.3746C21.2805 24.1014 21.3357 23.8311 21.4428 23.5797C21.5499 23.3284 21.7066 23.1013 21.9036 22.9121C22.1006 22.7228 22.3339 22.5753 22.5893 22.4784C22.8447 22.3815 23.1171 22.3372 23.39 22.3482C24.5068 22.3482 25.4357 23.2811 25.4227 24.3887C25.4166 24.924 25.1999 25.4354 24.8194 25.8121C24.439 26.1888 23.9254 26.4004 23.39 26.401Z" fill="#FEFEFE"/>
</g>
<defs>
<clipPath id="clip0_302_8">
<rect width="25.0661" height="25" fill="white" transform="translate(18 19)"/>
</clipPath>
</defs>
</svg>
