<svg width="62" height="62" viewBox="0 0 62 62" fill="none" xmlns="http://www.w3.org/2000/svg">
<circle cx="31" cy="31" r="31" fill="white"/>
<circle cx="31" cy="31" r="28.5" stroke="#9C5789" stroke-opacity="0.15" stroke-width="5"/>
<g clip-path="url(#clip0_302_6)">
<path d="M19.0046 34.0368C19.062 33.9537 19.1408 33.8877 19.2327 33.8458C19.3246 33.8039 19.4261 33.7876 19.5265 33.7987C19.7783 33.8111 20.0784 33.8835 20.2695 33.7745C20.4607 33.6656 20.4144 33.3224 20.4894 33.0863C20.6303 32.642 20.6199 32.6394 20.218 32.4065C20.0843 32.3295 19.9466 32.259 19.8181 32.1749C19.6282 32.0503 19.5747 31.8676 19.6876 31.668C20.0177 31.0808 20.3539 30.4974 20.6962 29.9176C20.8156 29.7154 21.0061 29.6749 21.222 29.7911C21.438 29.9072 21.6624 30.0344 21.8744 30.1688C21.986 30.2393 22.0486 30.2223 22.1353 30.1251C22.3311 29.9092 22.5405 29.7023 22.7564 29.5053C22.8458 29.4231 22.8601 29.3683 22.7949 29.2652C22.6612 29.0526 22.534 28.8334 22.4172 28.6129C22.2867 28.3715 22.3311 28.1953 22.5672 28.057C23.1248 27.7256 23.6858 27.4012 24.2504 27.0837C24.4905 26.9473 24.6653 26.9943 24.8088 27.2272C24.9393 27.4347 25.0561 27.6467 25.1715 27.8607C25.229 27.9683 25.289 28.0179 25.4194 27.9683C25.7001 27.8611 25.9911 27.7832 26.2878 27.7361C26.4013 27.7178 26.43 27.6623 26.4267 27.5547C26.4202 27.3029 26.4209 27.0504 26.4267 26.7986C26.4313 26.5318 26.5637 26.3902 26.8332 26.3876C27.4855 26.3811 28.1362 26.3811 28.7851 26.3876C29.0532 26.3876 29.1889 26.5305 29.1974 26.7973C29.2044 27.0413 29.2044 27.2853 29.1974 27.5293C29.1935 27.6545 29.2235 27.7145 29.3605 27.7426C29.6456 27.802 29.9274 27.8802 30.2086 27.9664C30.3234 28.0016 30.3828 27.9872 30.4402 27.8783C30.5537 27.663 30.6796 27.4542 30.8055 27.2461C30.9582 26.9943 31.1245 26.9434 31.3751 27.085C31.9322 27.4007 32.4876 27.7206 33.0413 28.0446C33.297 28.194 33.3413 28.378 33.1965 28.639C33.0589 28.8869 32.7849 29.1485 32.8129 29.3742C32.841 29.5999 33.1711 29.7813 33.3681 29.9829C33.4162 30.0272 33.4599 30.0762 33.4986 30.129C33.5742 30.2471 33.6545 30.2327 33.7595 30.1668C33.9657 30.0364 34.1764 29.915 34.3897 29.7976C34.6252 29.6671 34.8131 29.7141 34.9488 29.9444C35.2828 30.5098 35.6116 31.0789 35.9352 31.6517C36.0598 31.8722 36.0044 32.0509 35.7819 32.1879C35.5595 32.3249 35.3507 32.4489 35.1295 32.5663C35.0225 32.6237 35.0036 32.6818 35.0395 32.7979C35.1256 33.0765 35.2033 33.3583 35.2639 33.646C35.2933 33.783 35.3559 33.8111 35.4799 33.8065C35.7154 33.7987 35.9515 33.7993 36.1877 33.8065C36.4819 33.8143 36.6196 33.9507 36.6215 34.2462C36.6259 34.8803 36.6259 35.5147 36.6215 36.1492C36.6215 36.446 36.4806 36.5746 36.1825 36.5778C35.9463 36.5778 35.7102 36.5856 35.4746 36.5778C35.3442 36.5726 35.292 36.6111 35.2646 36.7429C35.2079 37.021 35.136 37.2959 35.0493 37.5662C35.0049 37.7006 35.0212 37.7704 35.1465 37.8356C35.3553 37.9446 35.5575 38.0653 35.7591 38.1859C36.0096 38.3373 36.0631 38.5121 35.9235 38.7561C35.6038 39.3215 35.2796 39.8839 34.9508 40.4432C34.8138 40.6781 34.6344 40.7218 34.3936 40.5913C34.1797 40.4745 33.967 40.3558 33.7608 40.2259C33.6571 40.1607 33.5958 40.1477 33.4999 40.254C33.2996 40.4778 33.0824 40.6872 32.8618 40.8914C32.7816 40.9664 32.7646 41.0179 32.8253 41.1145C32.9558 41.32 33.0739 41.5327 33.1926 41.7447C33.3407 42.0057 33.2983 42.1909 33.0452 42.3397C32.4924 42.6646 31.9374 42.9853 31.3803 43.3019C31.1317 43.4435 30.9549 43.392 30.8062 43.1467C30.6803 42.9379 30.5557 42.7285 30.4408 42.5145C30.3867 42.4127 30.3423 42.3801 30.2171 42.4212C29.9385 42.5104 29.6554 42.5849 29.369 42.6443C29.2313 42.675 29.1863 42.7324 29.1961 42.8733C29.2098 43.0756 29.1883 43.2804 29.2026 43.4826C29.2145 43.5825 29.1986 43.6838 29.1565 43.7752C29.1145 43.8666 29.0481 43.9446 28.9645 44.0006H26.6688C26.4437 43.9413 26.3654 43.7795 26.3628 43.5642C26.3628 43.3685 26.355 43.1728 26.3628 42.9771C26.3713 42.795 26.2865 42.7161 26.1168 42.6789C25.9091 42.64 25.7047 42.5848 25.5056 42.5139C25.3562 42.4578 25.2544 42.5028 25.1794 42.6372C25.0861 42.8081 24.9882 42.9771 24.8897 43.1454C24.7318 43.4155 24.5042 43.5022 24.2308 43.3561C23.6437 43.0425 23.0667 42.7102 22.5 42.3592C22.2821 42.2249 22.2391 42.0265 22.3422 41.7832C22.4364 41.5848 22.5454 41.3937 22.6683 41.2117C22.7519 41.0734 22.7499 40.9618 22.624 40.8464C22.457 40.6924 22.2978 40.5293 22.1412 40.3643C22.0394 40.2573 21.9455 40.2507 21.815 40.3264C21.6306 40.4452 21.4391 40.5526 21.2416 40.648C20.9695 40.7713 20.768 40.7192 20.614 40.4647C20.2865 39.9219 19.9703 39.3728 19.6654 38.8175C19.4952 38.5082 19.5623 38.304 19.8572 38.1161C20.0216 38.0111 20.1919 37.9159 20.3628 37.8219C20.4933 37.7475 20.5422 37.6464 20.4861 37.4957C20.4138 37.2971 20.3588 37.0926 20.3217 36.8844C20.2852 36.6959 20.1834 36.6287 19.9955 36.6378C19.8076 36.647 19.6217 36.6411 19.4351 36.6378C19.2198 36.6378 19.0581 36.5569 18.9987 36.3319L19.0046 34.0368Z" fill="#875A7B"/>
<path d="M19.0046 36.3312C19.12 36.5269 19.2903 36.5921 19.5154 36.5791C19.7763 36.5647 20.0986 36.4891 20.2754 36.6117C20.432 36.72 20.4228 37.0645 20.492 37.3032C20.6192 37.7449 20.6225 37.7442 20.231 37.97C20.0901 38.0515 19.9466 38.1272 19.8109 38.2159C19.6256 38.336 19.5754 38.5141 19.6804 38.7013C20.0097 39.2963 20.3483 39.8867 20.6962 40.4725C20.8136 40.6682 20.9937 40.7106 21.2024 40.603C21.4321 40.4823 21.6591 40.3525 21.8777 40.2155C21.9762 40.1548 22.0329 40.1535 22.1171 40.2455C22.32 40.4673 22.5333 40.68 22.7545 40.8842C22.8438 40.9664 22.851 41.0238 22.7884 41.1236C22.6579 41.3297 22.5392 41.5424 22.4211 41.7551C22.2802 42.0108 22.3213 42.1889 22.5653 42.3325C23.1242 42.6608 23.6863 42.9851 24.2517 43.3052C24.4846 43.4356 24.6692 43.3841 24.8088 43.1545C24.9347 42.9463 25.0567 42.7356 25.1729 42.521C25.2309 42.414 25.2818 42.369 25.4175 42.4199C25.6912 42.5251 25.9756 42.6001 26.2656 42.6436C26.3961 42.6619 26.4359 42.7219 26.4287 42.8524C26.4163 43.0638 26.4372 43.2765 26.4222 43.4865C26.4059 43.7116 26.475 43.8812 26.6694 43.998C24.1799 43.998 21.6904 43.9995 19.2009 44.0026C19.0333 44.0026 19 43.9699 19.0007 43.8023C19.0072 41.311 19.0085 38.8207 19.0046 36.3312Z" fill="#FEFEFE"/>
<path d="M38.5291 29.8896C38.1553 29.8896 37.7815 29.8896 37.407 29.8896C37.1089 29.8896 36.9803 29.7591 36.9738 29.4564C36.9639 29.3261 36.9639 29.1953 36.9738 29.065C36.9953 28.8967 36.9197 28.8327 36.7781 28.7623C36.5824 28.6664 36.4715 28.7049 36.326 28.8562C35.8074 29.3957 35.778 29.3899 35.2509 28.8634C34.8073 28.4211 34.3638 27.9788 33.9207 27.5364C33.6643 27.2801 33.6643 27.1098 33.9154 26.854C33.9722 26.796 34.0303 26.7386 34.0877 26.6812C34.3206 26.4489 34.3264 26.3589 34.1575 26.0823C34.1066 25.9988 34.0407 26.0099 33.9709 26.0092C33.8 26.0092 33.629 26.0138 33.4588 26.0053C33.2285 25.9936 33.0895 25.8631 33.0876 25.6347C33.0797 24.8462 33.0797 24.0573 33.0876 23.2679C33.0876 23.02 33.2233 22.9013 33.4718 22.8869C33.602 22.8747 33.7331 22.8747 33.8633 22.8869C34.0668 22.9143 34.1594 22.8288 34.2338 22.6436C34.299 22.4811 34.2808 22.3891 34.1562 22.2678C33.5762 21.7035 33.5801 21.6989 34.1562 21.1235C34.5933 20.6871 35.0297 20.2493 35.4688 19.8148C35.7069 19.5787 35.8739 19.58 36.1153 19.8148C36.1896 19.8782 36.2583 19.9479 36.3208 20.0229C36.4513 20.1984 36.587 20.2343 36.7898 20.1254C36.9203 20.0562 36.998 20.0034 36.9797 19.8435C36.9689 19.6974 36.9689 19.5506 36.9797 19.4045C36.9895 19.1487 37.1226 19.0059 37.3711 19.0039C38.1514 18.9987 38.9321 18.9987 39.7132 19.0039C39.9683 19.0039 40.0961 19.1409 40.1046 19.3986C40.1154 19.5119 40.1154 19.6259 40.1046 19.7392C40.0668 19.974 40.1698 20.0869 40.3858 20.1573C40.5163 20.1991 40.6037 20.2154 40.6957 20.098C40.776 20.0059 40.8618 19.9187 40.9527 19.837C41.2208 19.5721 41.3787 19.5761 41.6514 19.8435C42.155 20.3489 42.6598 20.8552 43.1656 21.3623C43.422 21.6193 43.4207 21.7863 43.1656 22.044C43.1073 22.112 43.0434 22.1748 42.9744 22.2319C42.7957 22.3624 42.7683 22.4994 42.874 22.7003C42.9425 22.8308 42.9999 22.9045 43.1578 22.8908C43.3199 22.8778 43.4829 22.8778 43.6451 22.8908C43.8649 22.9065 43.9928 23.0363 43.9941 23.2535C44.0006 24.0508 44.0006 24.8478 43.9941 25.6445C43.9941 25.8644 43.8545 25.9857 43.6399 26.0046C43.5098 26.0188 43.3785 26.0188 43.2484 26.0046C43.0312 25.9779 42.9112 26.0457 42.8414 26.2656C42.7963 26.4091 42.7866 26.4965 42.9066 26.5957C43.0239 26.6955 43.133 26.8046 43.2328 26.9219C43.3907 27.1 43.3998 27.2801 43.238 27.4438C42.6787 28.0118 42.1146 28.5748 41.5457 29.1328C41.3813 29.2946 41.1954 29.2861 41.0238 29.1328C40.9073 29.0322 40.7983 28.9232 40.6976 28.8066C40.5991 28.6879 40.5156 28.6912 40.3714 28.7375C40.1405 28.8112 40.0903 28.9332 40.0948 29.1602C40.1085 29.8694 40.0811 29.8883 39.3805 29.8883L38.5291 29.8896Z" fill="#875A7B"/>
<path d="M42.8003 36.1381C42.6424 36.1479 42.5393 36.0552 42.4493 35.9476C42.3593 35.8399 42.2868 35.838 42.1688 35.9202C41.9022 36.1077 41.5966 36.2324 41.275 36.2849C41.155 36.3044 41.1021 36.354 41.1204 36.476C41.1243 36.5166 41.1243 36.5574 41.1204 36.598C41.108 36.8296 40.971 36.9738 40.7616 36.9764C40.5522 36.979 40.3812 36.8329 40.3969 36.6078C40.4138 36.369 40.3316 36.2868 40.1033 36.2516C39.8455 36.2084 39.6018 36.1044 39.3922 35.9482C39.2513 35.8451 39.1437 35.8217 39.0367 35.9802C39.0166 36.0056 38.9926 36.0276 38.9656 36.0454C38.7972 36.1759 38.5917 36.17 38.4619 36.0219C38.3321 35.8739 38.3034 35.6697 38.4567 35.5411C38.6779 35.3546 38.6413 35.2117 38.4932 35.0055C38.344 34.7815 38.2476 34.5266 38.2114 34.2599C38.1905 34.1392 38.1462 34.0915 38.0242 34.1039C37.9513 34.1097 37.8779 34.1053 37.8063 34.0909C37.7262 34.0753 37.6538 34.0326 37.6014 33.9701C37.549 33.9075 37.5196 33.8289 37.5183 33.7473C37.5169 33.6657 37.5436 33.5861 37.5939 33.5218C37.6442 33.4575 37.715 33.4124 37.7945 33.3941C37.8735 33.3754 37.955 33.3692 38.0359 33.3759C38.1501 33.3857 38.1873 33.34 38.2081 33.2317C38.2694 32.8952 38.4029 32.576 38.5996 32.2962C38.6648 32.2009 38.6615 32.1461 38.5774 32.0757C38.5205 32.0297 38.4706 31.9756 38.4293 31.9152C38.323 31.7514 38.334 31.589 38.4724 31.45C38.5282 31.3891 38.6044 31.3507 38.6867 31.3422C38.7689 31.3336 38.8514 31.3555 38.9186 31.4037C38.9802 31.4435 39.0352 31.4925 39.0817 31.5492C39.156 31.6373 39.2154 31.6555 39.3218 31.5792C39.5934 31.3847 39.9057 31.2547 40.2351 31.1989C40.3519 31.1793 40.4099 31.1336 40.3904 31.0084C40.3822 30.9519 40.3822 30.8946 40.3904 30.8381C40.398 30.7442 40.4425 30.6572 40.5142 30.5961C40.5858 30.535 40.6788 30.5047 40.7727 30.5119C40.9814 30.5263 41.1269 30.6496 41.1086 30.8525C41.0851 31.1134 41.1856 31.1995 41.4276 31.2393C41.7079 31.2938 41.9716 31.4126 42.1981 31.5864C42.2921 31.6516 42.3514 31.6516 42.4199 31.5629C42.456 31.519 42.4969 31.4794 42.5419 31.4448C42.7063 31.3143 42.9151 31.3143 43.0462 31.4585C43.1773 31.6027 43.2145 31.8095 43.0599 31.9374C42.8218 32.1331 42.8909 32.2942 43.0306 32.4991C43.1711 32.7187 43.2629 32.9658 43.3 33.2239C43.3228 33.3543 43.3731 33.385 43.4898 33.3785C43.5709 33.3725 43.6525 33.3798 43.7312 33.4C43.8122 33.4173 43.8839 33.4642 43.9321 33.5315C43.9804 33.5989 44.0018 33.6818 43.9922 33.764C43.9931 33.8424 43.9658 33.9185 43.9153 33.9784C43.8647 34.0383 43.7943 34.078 43.7169 34.0902C43.6372 34.1062 43.5558 34.1115 43.4748 34.1059C43.3646 34.1 43.3254 34.1398 43.3039 34.2527C43.2518 34.5735 43.1283 34.8785 42.9425 35.1451C42.8479 35.2756 42.8688 35.35 42.9803 35.4452C43.1238 35.5692 43.2132 35.7192 43.1258 35.9182C43.0996 35.9831 43.0546 36.0387 42.9966 36.0778C42.9386 36.117 42.8702 36.138 42.8003 36.1381Z" fill="#875A7B"/>
<path d="M35.868 35.1882C35.868 35.3983 35.9489 35.6723 35.8465 35.7995C35.7441 35.9267 35.4512 35.8387 35.2424 35.8413C34.7205 35.8471 34.6611 35.8941 34.5809 36.403C34.5038 36.8425 34.385 37.2738 34.226 37.6908C34.1236 37.9765 34.1719 38.105 34.4269 38.2583C34.4478 38.2707 34.4713 38.2799 34.4922 38.2936C34.6918 38.4293 35.0389 38.4893 35.0728 38.685C35.1067 38.8807 34.8771 39.1071 34.7525 39.3139C34.6559 39.4718 34.6083 39.7282 34.4504 39.7582C34.3199 39.7836 34.1458 39.6029 33.9937 39.5142C33.9168 39.4692 33.8398 39.4242 33.7615 39.3837C33.5201 39.2532 33.3759 39.2708 33.2044 39.4796C32.8737 39.8817 32.5046 40.2508 32.1025 40.5815C31.8944 40.7524 31.8689 40.9077 31.9975 41.1373C32.1031 41.3285 32.2114 41.5196 32.3289 41.7042C32.3974 41.8138 32.4032 41.8784 32.2715 41.9482C31.9851 42.1002 31.7045 42.264 31.4286 42.4349C31.3033 42.5132 31.2524 42.474 31.1931 42.3586C31.0965 42.1713 30.9856 41.9913 30.8773 41.8106C30.7266 41.5588 30.5987 41.5066 30.3326 41.6051C29.8389 41.7912 29.3273 41.9259 28.806 42.0069C28.5835 42.0402 28.4661 42.1792 28.4694 42.4127C28.4726 42.6463 28.4641 42.885 28.4694 43.1206C28.4739 43.2399 28.4315 43.2726 28.3167 43.2706C27.9749 43.2641 27.6332 43.2641 27.2918 43.2706C27.1842 43.2706 27.1522 43.2399 27.1555 43.1336C27.1626 42.8974 27.1555 42.6619 27.1555 42.4258C27.1555 42.1896 27.0387 42.0396 26.8045 42.005C26.2834 41.9223 25.772 41.7875 25.2779 41.6025C25.0209 41.5092 24.895 41.5594 24.7514 41.7982C24.6386 41.9861 24.5231 42.1726 24.4252 42.3677C24.36 42.4982 24.3006 42.4982 24.1845 42.4284C23.9088 42.2588 23.6276 42.097 23.341 41.943C23.2222 41.8778 23.2222 41.8223 23.2881 41.7186C23.4049 41.5333 23.5099 41.3409 23.6143 41.1497C23.7481 40.909 23.7324 40.7583 23.5282 40.5913C23.1194 40.2557 22.745 39.8803 22.4107 39.4705C22.2593 39.2826 22.0767 39.2571 21.8712 39.3759C21.6657 39.4946 21.4615 39.6081 21.2612 39.7321C21.1711 39.7882 21.1242 39.7751 21.0726 39.6818C20.9069 39.3844 20.738 39.0882 20.5612 38.7972C20.4959 38.6954 20.5122 38.6472 20.616 38.5924C20.8162 38.486 21.0113 38.3693 21.2031 38.2518C21.4406 38.1089 21.4902 37.9817 21.3988 37.7234C21.2128 37.2297 21.0779 36.7181 20.9963 36.1968C20.9617 35.962 20.8143 35.8452 20.5736 35.8478C20.3452 35.8478 20.1169 35.8478 19.8899 35.8478C19.7861 35.8478 19.7268 35.8413 19.7307 35.7088C19.7405 35.3676 19.7385 35.0258 19.7307 34.6846C19.7307 34.5652 19.7685 34.5313 19.884 34.5352C20.1195 34.5424 20.3557 34.5352 20.5918 34.5352C20.828 34.5352 20.9617 34.4171 20.995 34.1959C21.0773 33.6663 21.2177 33.1473 21.4138 32.6485C21.4973 32.4286 21.4282 32.2669 21.2357 32.1514C21.0433 32.0359 20.8319 31.91 20.6244 31.7991C20.5246 31.7456 20.5005 31.7019 20.5651 31.5962C20.739 31.3122 20.905 31.0241 21.0628 30.7318C21.1242 30.6183 21.1764 30.6013 21.2866 30.6698C21.4706 30.7879 21.663 30.8936 21.8542 31.0006C22.1054 31.1415 22.2495 31.1213 22.4302 30.9021C22.7591 30.4982 23.129 30.1296 23.5341 29.8021C23.7233 29.6508 23.7507 29.4688 23.6345 29.2626C23.5184 29.0565 23.4186 28.8621 23.2907 28.6755C23.2046 28.5502 23.247 28.5026 23.356 28.4419C23.6404 28.286 23.9229 28.1255 24.1995 27.9572C24.3045 27.892 24.3593 27.892 24.4207 28.0107C24.5237 28.2129 24.649 28.4021 24.758 28.6024C24.8754 28.8177 25.0522 28.879 25.2707 28.7981C25.7713 28.6069 26.2903 28.4681 26.8195 28.3839C27.0472 28.346 27.1568 28.2071 27.1574 27.9794C27.1581 27.7517 27.1633 27.5071 27.1574 27.2715C27.1535 27.1541 27.192 27.1176 27.3094 27.1202C27.6428 27.1274 27.9762 27.128 28.3095 27.1202C28.4439 27.1163 28.4752 27.1698 28.4707 27.2911C28.4635 27.5188 28.4707 27.7478 28.4707 27.9748C28.4707 28.2018 28.5718 28.3447 28.8008 28.3826C29.33 28.4671 29.849 28.6061 30.3495 28.7975C30.5674 28.8816 30.7462 28.8236 30.8656 28.6102C30.985 28.3969 31.1043 28.2045 31.2152 27.997C31.2642 27.907 31.3059 27.8874 31.3986 27.9429C31.6974 28.1229 31.9992 28.298 32.3041 28.468C32.4026 28.5228 32.3993 28.5698 32.3452 28.6572C32.2212 28.8568 32.1097 29.0643 31.9922 29.2685C31.8748 29.4727 31.9048 29.6567 32.0921 29.8067C32.5047 30.138 32.8798 30.5134 33.2109 30.9262C33.3629 31.1147 33.5462 31.135 33.7517 31.0162C33.9572 30.8975 34.1503 30.7983 34.3389 30.6737C34.453 30.5994 34.5013 30.6268 34.5613 30.7351C34.7212 31.0267 34.8875 31.3144 35.0604 31.5995C35.1185 31.6954 35.1172 31.7456 35.0069 31.8017C34.8047 31.9041 34.6103 32.0229 34.4152 32.1396C34.1836 32.2779 34.1242 32.4202 34.2195 32.6694C34.4064 33.1627 34.5425 33.6737 34.6259 34.1946C34.6644 34.4354 34.8053 34.5443 35.0467 34.5398C35.2744 34.5358 35.5034 34.5463 35.7297 34.5365C35.8602 34.5306 35.8994 34.5809 35.8928 34.7055C35.8844 34.8679 35.8928 35.0317 35.8928 35.1934L35.868 35.1882Z" fill="#FEFEFE"/>
<path d="M42.4558 21.7094C42.4121 21.7557 42.3736 21.7975 42.3338 21.8399C42.2483 21.9266 42.1596 22.0108 42.0728 22.1008C41.9476 22.2313 41.9117 22.382 41.9998 22.547C42.1364 22.8051 42.2488 23.0753 42.3358 23.354C42.401 23.5693 42.5726 23.6196 42.7761 23.6235C43.2634 23.6313 43.2634 23.6346 43.2634 24.1128C43.2634 24.439 43.2569 24.7652 43.2634 25.0913C43.268 25.2323 43.2432 25.2936 43.0814 25.2871C42.3592 25.2623 42.4075 25.3132 42.217 25.8794C42.1671 26.0254 42.1026 26.1659 42.0246 26.2989C41.9032 26.509 41.9443 26.6779 42.1087 26.8456C42.461 27.2051 42.4578 27.2083 42.0931 27.5711C41.8621 27.8 41.6286 28.0277 41.4035 28.2613C41.3206 28.348 41.2567 28.3774 41.1797 28.2665C40.8796 27.8346 40.5221 27.7642 40.0857 28.0747C39.9904 28.1399 39.8606 28.1628 39.7458 28.2019C39.4248 28.3115 39.3668 28.3924 39.3648 28.733C39.3648 29.1629 39.3648 29.1629 38.9388 29.1629C38.5891 29.1629 38.2388 29.1563 37.8898 29.1661C37.7462 29.17 37.6699 29.1407 37.6999 28.9822C37.7012 28.9659 37.7012 28.9495 37.6999 28.9332C37.6999 28.3976 37.771 28.3383 37.1467 28.1367C36.9852 28.0825 36.8292 28.013 36.6809 27.9292C36.4689 27.8137 36.2999 27.8555 36.1335 28.0192C35.78 28.3683 35.776 28.3644 35.4244 28.014C35.1882 27.7785 34.956 27.5391 34.714 27.3095C34.6194 27.2201 34.6285 27.1679 34.7185 27.0824C35.245 26.5833 35.1974 26.614 34.9084 26.0106C34.8951 25.9903 34.8845 25.9684 34.8771 25.9453C34.7909 25.4234 34.5 25.1827 33.9637 25.2825C33.8489 25.304 33.8084 25.2466 33.8098 25.1305C33.8141 24.6751 33.8141 24.2195 33.8098 23.7637C33.8098 23.6568 33.8502 23.6059 33.9526 23.6254C34.5039 23.7285 34.7942 23.4767 34.8862 22.9483C34.8914 22.9329 34.8984 22.9183 34.9071 22.9046C35.1595 22.35 35.3089 22.3611 34.7113 21.8131C34.6252 21.7335 34.6207 21.6885 34.7074 21.605C35.0336 21.2879 35.3598 20.9676 35.6743 20.6395C35.7721 20.5371 35.8361 20.5547 35.9033 20.6525C36.2001 21.0824 36.5595 21.1314 36.9784 20.8332C36.9846 20.8278 36.992 20.8238 36.9999 20.8215C37.5394 20.7249 37.82 20.4398 37.7019 19.8612C37.6817 19.7633 37.7365 19.7379 37.8271 19.7385C38.2986 19.742 38.7705 19.742 39.2428 19.7385C39.3381 19.7385 39.3837 19.7679 39.3648 19.8625C39.2552 20.4366 39.5781 20.6323 40.072 20.8404C40.5658 21.0485 40.8875 21.0779 41.1954 20.6297C41.2332 20.5749 41.2822 20.5097 41.367 20.5964C41.7095 20.9441 42.0572 21.2866 42.4023 21.6318C42.4221 21.6562 42.44 21.6821 42.4558 21.7094Z" fill="#FEFEFE"/>
<path d="M40.7713 31.88C41.139 31.8843 41.4972 31.9974 41.8007 32.2049C42.1043 32.4124 42.3396 32.7051 42.4771 33.0461C42.6147 33.3872 42.6482 33.7612 42.5736 34.1213C42.4989 34.4813 42.3194 34.8112 42.0577 35.0694C41.7959 35.3277 41.4636 35.5027 41.1026 35.5724C40.7416 35.6422 40.368 35.6035 40.0289 35.4614C39.6898 35.3192 39.4003 35.0799 39.1969 34.7736C38.9935 34.4673 38.8853 34.1076 38.886 33.7399C38.887 33.4938 38.9366 33.2503 39.0321 33.0235C39.1275 32.7966 39.2668 32.5908 39.442 32.418C39.6172 32.2452 39.8248 32.1086 40.053 32.0163C40.2811 31.924 40.5252 31.8776 40.7713 31.88Z" fill="#FEFEFE"/>
<path d="M27.7981 30.6835C25.1409 30.8035 23.2314 32.8364 23.3064 35.3585C23.3223 35.8712 23.4292 36.3771 23.6221 36.8524C23.735 37.1362 23.6717 37.3372 23.4525 37.4259C23.2333 37.5146 23.0559 37.4031 22.9404 37.118C21.6976 34.0433 23.6841 30.5458 26.9689 30.0265C27.6605 29.9143 28.3675 29.9419 29.0483 30.1076C29.729 30.2733 30.3697 30.5738 30.9323 30.9913C31.4949 31.4088 31.9682 31.9349 32.324 32.5384C32.6799 33.142 32.9111 33.8107 33.0041 34.5052C33.4027 37.3867 31.2916 40.0883 28.3878 40.389C26.5898 40.5749 25.0848 39.9682 23.8688 38.6361C23.6776 38.4266 23.673 38.2087 23.8414 38.058C24.0097 37.9073 24.2158 37.9387 24.4141 38.1507C24.4474 38.1866 24.4794 38.2238 24.5127 38.259C26.3048 40.1705 29.3162 40.1913 31.088 38.2662C32.3073 36.9405 32.6472 35.3735 32.0366 33.6753C31.4299 31.9876 30.1753 31.0234 28.41 30.7285C28.2071 30.7015 28.0027 30.6865 27.7981 30.6835Z" fill="#875A7B"/>
<path d="M27.8156 38.8709C25.8963 38.8709 24.2765 37.377 24.1369 35.4746C23.9972 33.5723 25.349 31.85 27.2272 31.5558C27.7426 31.4738 28.2697 31.5034 28.7727 31.6425C29.0787 31.7267 29.217 31.9035 29.1504 32.1318C29.0852 32.3478 28.8856 32.4254 28.5881 32.3484C26.9571 31.9257 25.3477 32.8788 24.9445 34.5065C24.5466 36.1133 25.6243 37.7932 27.2409 38.0855C28.9371 38.3927 30.5211 37.2491 30.7285 35.5692C30.8368 34.6983 30.5981 33.9317 30.0344 33.2631C29.984 33.2101 29.938 33.1532 29.8968 33.0928C29.7911 32.9147 29.8126 32.7444 29.9737 32.6139C30.1473 32.4737 30.3267 32.5024 30.4754 32.657C30.8775 33.0738 31.1733 33.5813 31.3379 34.1366C32.0437 36.4845 30.2686 38.869 27.8156 38.8709Z" fill="#875A7B"/>
<path d="M38.5415 27.3642C36.4623 27.3577 35.046 25.2473 35.8406 23.3351C35.8628 23.2829 35.8824 23.2294 35.9091 23.1792C36.0226 22.9652 36.2249 22.8882 36.4167 22.9835C36.5967 23.0748 36.6678 23.2731 36.5719 23.4832C36.3877 23.8749 36.3198 24.3112 36.3762 24.7404C36.5067 25.7561 37.3861 26.5775 38.4019 26.6205C39.5109 26.6675 40.466 25.9603 40.6774 24.9243C40.8548 24.0501 40.5998 23.3051 39.9056 22.7493C39.2115 22.1934 38.4476 22.123 37.636 22.4622C37.5981 22.4772 37.5629 22.4981 37.5257 22.5138C37.2994 22.611 37.1056 22.5503 37.0097 22.3539C36.9138 22.1576 36.9875 21.9625 37.2119 21.8516C37.8243 21.5327 38.5315 21.4467 39.2024 21.6096C40.6063 21.9455 41.517 23.1701 41.4603 24.6229C41.4081 25.9629 40.3382 27.1248 38.9564 27.3375C38.8188 27.3564 38.6791 27.3551 38.5415 27.3642Z" fill="#875A7B"/>
<path d="M39.5501 33.7472C39.5505 33.5081 39.6218 33.2744 39.7549 33.0758C39.8881 32.8772 40.0772 32.7226 40.2983 32.6315C40.5194 32.5404 40.7625 32.5169 40.9969 32.5639C41.2314 32.611 41.4466 32.7266 41.6154 32.896C41.7841 33.0654 41.8989 33.281 41.945 33.5156C41.9912 33.7502 41.9668 33.9933 41.8749 34.214C41.7829 34.4348 41.6275 34.6233 41.4285 34.7557C41.2294 34.8881 40.9955 34.9585 40.7563 34.958C40.436 34.9568 40.1292 34.8287 39.9031 34.6018C39.677 34.3748 39.5501 34.0675 39.5501 33.7472Z" fill="#875A7B"/>
<path d="M40.2827 33.751C40.2804 33.6251 40.3282 33.5033 40.4156 33.4126C40.503 33.3219 40.6229 33.2696 40.7488 33.2673C40.8748 33.265 40.9965 33.3128 41.0872 33.4002C41.178 33.4876 41.2302 33.6075 41.2326 33.7334C41.2337 33.7958 41.2226 33.8578 41.1998 33.9158C41.177 33.9739 41.143 34.0269 41.0997 34.0718C41.0564 34.1168 41.0047 34.1527 40.9475 34.1776C40.8903 34.2026 40.8288 34.216 40.7664 34.2172C40.7041 34.2183 40.6421 34.2072 40.584 34.1844C40.526 34.1616 40.473 34.1276 40.428 34.0843C40.3831 34.041 40.3472 33.9893 40.3222 33.9321C40.2973 33.8749 40.2839 33.8134 40.2827 33.751Z" fill="#FDFDFD"/>
</g>
<defs>
<clipPath id="clip0_302_6">
<rect width="24.9993" height="25" fill="white" transform="translate(19 19)"/>
</clipPath>
</defs>
</svg>
