<svg width="62" height="62" viewBox="0 0 62 62" fill="none" xmlns="http://www.w3.org/2000/svg">
<circle cx="31" cy="31" r="31" fill="white"/>
<circle cx="31" cy="31" r="28.5" stroke="#9C5789" stroke-opacity="0.15" stroke-width="5"/>
<g clip-path="url(#clip0_302_3)">
<path d="M18 40.413C18.1417 40.1474 18.3616 40.0658 18.66 40.0664C26.5585 40.0725 34.4571 40.074 42.3557 40.071C42.8538 40.071 43.0052 40.225 43.0052 40.7303C43.0052 41.2675 42.9928 41.8041 43.0104 42.3407C43.0202 42.6403 42.9275 42.8583 42.6638 43.0006H18.3421C18.2544 42.9915 18.1726 42.9526 18.1104 42.8903C18.0481 42.828 18.0091 42.7462 18 42.6586V40.413Z" fill="#875A7B"/>
<path d="M18 42.6586C18.0857 42.7978 18.2028 42.9149 18.3421 43.0006C18 43.0006 18 43.0006 18 42.6586Z" fill="#F1F1F1"/>
<path d="M39.5801 18.9785C39.349 18.9785 39.1806 18.9844 39.0122 18.9785C38.7217 18.9668 38.5108 18.7533 38.5154 18.4844C38.5171 18.3566 38.5694 18.2346 38.6608 18.1452C38.7521 18.0558 38.8752 18.0062 39.003 18.0072C39.5971 17.9994 40.1911 17.9994 40.7851 18.0072C41.0782 18.0072 41.2799 18.2031 41.2858 18.4961C41.2962 19.0902 41.2962 19.684 41.2858 20.2776C41.2869 20.3431 41.2749 20.4082 41.2505 20.469C41.226 20.5298 41.1896 20.5851 41.1434 20.6316C41.0972 20.6781 41.0422 20.7149 40.9815 20.7397C40.9209 20.7646 40.8559 20.777 40.7903 20.7763C40.5234 20.7711 40.3216 20.5563 40.3145 20.2619C40.3092 20.0746 40.3145 19.8879 40.3145 19.7018C40.2492 19.662 40.2244 19.7194 40.1937 19.7488C38.5565 21.2855 36.9189 22.8221 35.2809 24.3587C35.1843 24.4495 35.1908 24.5167 35.2339 24.6303C35.6706 25.7805 34.9826 26.9587 33.7691 27.15C32.6731 27.323 31.6613 26.4483 31.6724 25.317C31.6724 25.1062 31.6071 25.0278 31.4263 24.9541C30.6534 24.6368 29.887 24.3052 29.1207 23.9749C29.0019 23.924 28.9327 23.9253 28.8328 24.0297C28.2081 24.6792 27.2896 24.7967 26.5161 24.3287C26.4045 24.2634 26.3412 24.268 26.2439 24.3437C25.2699 25.1035 24.294 25.861 23.3162 26.616C23.2039 26.7028 23.1967 26.7727 23.2346 26.898C23.3441 27.2516 23.3451 27.6299 23.2375 27.9841C23.1299 28.3382 22.9186 28.652 22.6309 28.885C22.3433 29.1179 21.9924 29.2593 21.6236 29.2909C21.2548 29.3225 20.885 29.2428 20.5619 29.0622C20.2388 28.8816 19.9772 28.6083 19.8109 28.2776C19.6447 27.9469 19.5813 27.574 19.6291 27.2069C19.6768 26.8398 19.8334 26.4955 20.0787 26.2183C20.3241 25.9411 20.6468 25.7438 21.0054 25.6519C21.2448 25.5844 21.4958 25.5686 21.7417 25.6058C21.9877 25.6429 22.2229 25.7321 22.4317 25.8673C22.5479 25.9397 22.6171 25.9365 22.7228 25.8536C23.6885 25.0951 24.6572 24.3411 25.629 23.5917C25.7445 23.5023 25.7595 23.4318 25.721 23.2908C25.5082 22.531 25.6923 21.8664 26.2915 21.3533C26.8908 20.8403 27.5658 20.7521 28.2708 21.0837C28.9758 21.4154 29.3439 22.0074 29.3348 22.7986C29.3348 22.9657 29.3766 23.0336 29.5306 23.0956C30.3172 23.422 31.0973 23.7562 31.8806 24.0957C32.0112 24.1518 32.0817 24.1453 32.1874 24.0349C32.7625 23.4324 33.5954 23.3019 34.3566 23.6681C34.4519 23.7138 34.5165 23.7412 34.6112 23.6524C36.2496 22.1066 37.892 20.5648 39.5801 18.9785Z" fill="#875A7B"/>
<path d="M37.3888 32.3101C37.3888 30.2517 37.3888 28.1935 37.3888 26.1355C37.3888 25.6681 37.5474 25.5108 38.0213 25.5101C39.0383 25.5101 40.0553 25.5101 41.0724 25.5101C41.526 25.5101 41.686 25.674 41.686 26.1296C41.686 30.246 41.686 34.3624 41.686 38.4788C41.686 38.9273 41.5169 39.0944 41.0658 39.0944H37.99C37.5585 39.0944 37.3888 38.9214 37.3888 38.484C37.3883 36.4261 37.3883 34.3681 37.3888 32.3101Z" fill="#875A7B"/>
<path d="M29.6357 33.7522V38.4365C29.6357 38.945 29.4875 39.0945 28.9875 39.0945H25.9371C25.5219 39.0945 25.3392 38.9163 25.3385 38.5018C25.3385 35.3297 25.3385 32.1581 25.3385 28.9869C25.3385 28.5861 25.5239 28.4033 25.9201 28.3994C26.9611 28.3994 28.0023 28.3994 29.0437 28.3994C29.4647 28.3994 29.6312 28.5678 29.6344 28.9915C29.6362 30.5799 29.6366 32.1668 29.6357 33.7522Z" fill="#875A7B"/>
<path d="M31.3695 35.0433C31.3695 33.8892 31.3695 32.7346 31.3695 31.5796C31.3695 31.126 31.5314 30.9641 31.9877 30.9628C33.0047 30.9628 34.0215 30.9628 35.0381 30.9628C35.4951 30.9628 35.6667 31.1377 35.6667 31.6005C35.6667 33.8852 35.6667 36.17 35.6667 38.4547C35.6667 38.9305 35.4996 39.0937 35.014 39.0937H31.991C31.534 39.0937 31.3702 38.9338 31.3702 38.4827C31.3689 37.3365 31.3686 36.19 31.3695 35.0433Z" fill="#875A7B"/>
<path d="M23.6165 36.1093C23.6165 36.9065 23.6165 37.7033 23.6165 38.4997C23.6165 38.9175 23.4402 39.0937 23.0244 39.0944C21.983 39.0944 20.9418 39.0944 19.9009 39.0944C19.4994 39.0944 19.3206 38.9149 19.3199 38.5141C19.3199 36.8961 19.3199 35.2781 19.3199 33.66C19.3199 33.2749 19.5033 33.0915 19.8878 33.0908C20.9445 33.0908 22.0017 33.0908 23.0597 33.0908C23.4278 33.0908 23.6152 33.2788 23.6165 33.6463C23.6184 34.4643 23.6165 35.2881 23.6165 36.1093Z" fill="#875A7B"/>
<path d="M30.5033 42.0241C26.7428 42.0241 22.9824 42.0259 19.222 42.0294C19.0209 42.0294 18.9478 41.9856 18.9739 41.78C19.004 41.5411 18.8728 41.218 19.0262 41.0822C19.1567 40.964 19.4746 41.0482 19.7096 41.0482C27.059 41.0482 34.4086 41.0463 41.7584 41.0424C41.9778 41.0424 42.06 41.092 42.0313 41.3159C42.0026 41.5398 42.1305 41.8583 41.9804 41.9902C41.8498 42.1044 41.5469 42.0235 41.3198 42.0235L30.5033 42.0241Z" fill="#FEFEFE"/>
<path d="M27.4926 23.6283C27.377 23.6288 27.2623 23.6064 27.1553 23.5625C27.0483 23.5186 26.951 23.4539 26.8691 23.3723C26.7871 23.2906 26.7221 23.1936 26.6778 23.0867C26.6334 22.9799 26.6107 22.8653 26.6107 22.7496C26.6152 22.5159 26.711 22.2931 26.8777 22.1291C27.0443 21.9651 27.2686 21.873 27.5024 21.8723C27.7319 21.8759 27.9509 21.9693 28.1124 22.1324C28.2738 22.2956 28.3649 22.5155 28.3661 22.7451C28.3688 22.861 28.3481 22.9762 28.3053 23.084C28.2625 23.1917 28.1985 23.2897 28.1169 23.3722C28.0354 23.4546 27.9381 23.5198 27.8309 23.5638C27.7236 23.6078 27.6086 23.6297 27.4926 23.6283Z" fill="#FEFEFE"/>
<path d="M20.5889 27.4313C20.5884 27.3144 20.6113 27.1985 20.6562 27.0905C20.7011 26.9825 20.767 26.8846 20.8503 26.8024C20.9335 26.7202 21.0323 26.6555 21.1409 26.612C21.2495 26.5686 21.3656 26.5472 21.4826 26.5492C21.5995 26.5512 21.7148 26.5765 21.8219 26.6237C21.9289 26.6709 22.0254 26.7389 22.1058 26.8239C22.1862 26.9088 22.2488 27.009 22.2899 27.1184C22.3311 27.2279 22.35 27.3445 22.3455 27.4614C22.3367 27.691 22.2383 27.908 22.0714 28.066C21.9044 28.2239 21.6823 28.3101 21.4525 28.3062C21.2228 28.3023 21.0037 28.2085 20.8422 28.045C20.6808 27.8814 20.5899 27.6611 20.5889 27.4313Z" fill="#FEFEFE"/>
<path d="M33.5067 24.4416C33.6225 24.4404 33.7373 24.462 33.8447 24.5053C33.9521 24.5486 34.0499 24.6126 34.1325 24.6938C34.2151 24.7749 34.2809 24.8715 34.326 24.9781C34.3712 25.0847 34.3949 25.1992 34.3958 25.315C34.392 25.5486 34.2973 25.7716 34.1318 25.9365C33.9663 26.1015 33.7429 26.1953 33.5093 26.1982C33.2798 26.1953 33.0606 26.1028 32.8983 25.9405C32.7361 25.7782 32.6438 25.5588 32.6411 25.3294C32.638 25.2138 32.658 25.0988 32.7001 24.9911C32.7422 24.8834 32.8055 24.7853 32.8862 24.7025C32.9669 24.6197 33.0634 24.554 33.17 24.5092C33.2766 24.4643 33.3911 24.4414 33.5067 24.4416Z" fill="#FEFEFE"/>
<path d="M38.3653 32.2834C38.3653 30.4282 38.3685 28.5737 38.3607 26.7185C38.3607 26.5279 38.4084 26.4776 38.5983 26.4809C39.2413 26.4939 39.8843 26.4913 40.5273 26.4809C40.6807 26.4809 40.7133 26.5226 40.7127 26.6702C40.7087 30.421 40.7087 34.1716 40.7127 37.9221C40.7127 38.0826 40.6702 38.1231 40.5123 38.1179C39.8693 38.1088 39.2263 38.1061 38.584 38.1179C38.3986 38.1218 38.3594 38.0722 38.3601 37.892C38.3679 36.0257 38.3653 34.1549 38.3653 32.2834Z" fill="#FEFEFE"/>
<path d="M28.6592 33.7463C28.6592 35.1288 28.6552 36.5108 28.6631 37.8933C28.6631 38.0709 28.6291 38.1257 28.4405 38.1212C27.7981 38.1074 27.1558 38.1107 26.5135 38.1212C26.3523 38.1212 26.3111 38.0794 26.3111 37.9194C26.3163 35.1386 26.3163 32.3576 26.3111 29.5763C26.3111 29.4177 26.3509 29.372 26.5128 29.374C27.163 29.3835 27.8136 29.3835 28.4646 29.374C28.6278 29.374 28.6605 29.4203 28.6605 29.5763C28.6565 30.9674 28.6592 32.3578 28.6592 33.7463Z" fill="#FEFEFE"/>
<path d="M34.6902 35.0329C34.6902 35.9919 34.6856 36.9508 34.6947 37.9097C34.6947 38.0834 34.6464 38.1245 34.478 38.1225C33.8278 38.1121 33.1777 38.1121 32.5275 38.1225C32.3728 38.1225 32.3428 38.0775 32.3428 37.9319C32.348 35.9979 32.348 34.064 32.3428 32.13C32.3428 31.9838 32.3748 31.9342 32.5301 31.9342C33.1829 31.9427 33.8311 31.944 34.4813 31.9342C34.6582 31.9342 34.6947 31.991 34.6934 32.1561C34.6869 33.1151 34.6902 34.0727 34.6902 35.0329Z" fill="#FEFEFE"/>
<path d="M22.6399 36.1151C22.6399 36.7248 22.636 37.3352 22.6399 37.9429C22.6399 38.078 22.6079 38.1205 22.4676 38.1192C21.8004 38.1113 21.1331 38.1113 20.4655 38.1192C20.3297 38.1192 20.2893 38.0865 20.2899 37.9462C20.2951 36.7098 20.2971 35.4735 20.2899 34.2365C20.2899 34.0674 20.3552 34.0602 20.4858 34.0615C21.1385 34.0667 21.7913 34.0687 22.4389 34.0615C22.5955 34.0615 22.6425 34.0974 22.6399 34.2573C22.6334 34.8781 22.6399 35.4963 22.6399 36.1151Z" fill="#FEFEFE"/>
</g>
<defs>
<clipPath id="clip0_302_3">
<rect width="25.0104" height="25" fill="white" transform="translate(18 18)"/>
</clipPath>
</defs>
</svg>
