<svg width="62" height="62" viewBox="0 0 62 62" fill="none" xmlns="http://www.w3.org/2000/svg">
<circle cx="31" cy="31" r="31" fill="white"/>
<circle cx="31" cy="31" r="28.5" stroke="#9C5789" stroke-opacity="0.15" stroke-width="5"/>
<g clip-path="url(#clip0_302_4)">
<path d="M23.0031 44C22.9614 43.921 22.8726 43.9412 22.8074 43.9197C22.0003 43.6587 21.4894 42.9762 21.4868 42.1267C21.4815 40.6455 21.4724 39.1644 21.4868 37.6832C21.5011 36.3685 21.3563 35.0694 21.1762 33.7716C21.0665 33.0311 21.0079 32.284 21.0007 31.5355C20.9946 29.7956 20.9946 28.0541 21.0007 26.3111C21.0007 25.2332 21.6616 24.3849 22.703 24.1305C22.8609 24.092 22.8628 24.0124 22.8628 23.891C22.8602 22.9632 22.8602 22.0355 22.8628 21.1081C22.8628 19.8273 23.6882 19.0006 24.9658 19.0006H35.463C36.6668 19.0006 37.4479 19.7836 37.4485 20.9835C37.4485 21.4311 37.4537 21.8787 37.4453 22.3263C37.4453 22.4679 37.489 22.5045 37.6253 22.5025C38.195 22.496 38.7646 22.4966 39.3342 22.5025C40.035 22.5071 40.4317 22.9097 40.433 23.6117C40.433 24.3764 40.433 25.1418 40.433 25.9065C40.4291 27.0386 39.6272 27.8346 38.4918 27.8372C37.8485 27.8372 37.2058 27.8451 36.5631 27.8333C36.3778 27.8301 36.323 27.8718 36.3223 28.0676C36.3158 29.5076 36.3673 30.9483 36.2851 32.3877C36.2362 33.2411 36.107 34.0841 35.9902 34.9324C35.8193 36.1721 35.8388 37.4157 35.8421 38.6607C35.8421 38.7416 35.8467 38.8238 35.8421 38.9047C35.8225 39.1259 35.6614 39.2747 35.4584 39.2642C35.3637 39.2605 35.2743 39.2193 35.21 39.1496C35.1456 39.08 35.1115 38.9877 35.1152 38.893C35.1152 37.6487 35.05 36.3991 35.2333 35.164C35.5105 33.3378 35.634 31.4915 35.6026 29.6446C35.5785 28.5302 35.6026 27.4151 35.5968 26.3C35.6018 26.0011 35.516 25.7078 35.3508 25.4588C35.1856 25.2097 34.9488 25.0166 34.6715 24.905C34.5234 24.8462 34.4484 24.8397 34.4614 25.0355C34.4758 25.2625 34.4686 25.4922 34.4614 25.7193C34.4477 26.3332 34.0615 26.7228 33.4468 26.7234C30.257 26.726 27.0672 26.726 23.8775 26.7234C23.253 26.7234 22.8694 26.3241 22.8642 25.6932C22.8642 25.4733 22.8518 25.2527 22.8674 25.0341C22.8818 24.8345 22.8054 24.8384 22.6593 24.9037C22.0936 25.1529 21.7458 25.5835 21.7458 26.1988C21.7458 28.3305 21.6649 30.4635 21.796 32.5932C21.8476 33.4356 21.9866 34.2727 22.091 35.1111C22.1827 35.8789 22.2263 36.6517 22.2215 37.4249C22.2215 38.9543 22.2215 40.4841 22.2215 42.0144C22.2215 42.817 22.6723 43.2679 23.4742 43.2679C26.9324 43.2679 30.3906 43.2679 33.8488 43.2679C34.6487 43.2679 35.1081 42.8111 35.1094 42.0184C35.1094 41.5792 35.1094 41.1395 35.1094 40.7003C35.1094 40.4328 35.249 40.2782 35.4741 40.2788C35.6992 40.2795 35.8441 40.4374 35.8382 40.7036C35.8251 41.2967 35.8969 41.8931 35.799 42.4823C35.6685 43.2561 35.0663 43.8329 34.284 43.9608C34.265 43.9641 34.2494 43.9869 34.2318 44.0006L23.0031 44Z" fill="#875A7B"/>
<path d="M28.6621 33.2131C27.067 33.2131 25.4721 33.2131 23.8775 33.2131C23.2817 33.2131 22.9927 32.926 22.9907 32.3361C22.9907 32.0432 22.9875 31.7489 22.9907 31.4572C22.994 31.191 23.1356 31.0292 23.3535 31.0305C23.5714 31.0318 23.715 31.1975 23.7202 31.4612C23.7254 31.7248 23.7326 31.9831 23.7202 32.2441C23.7091 32.4281 23.7541 32.4908 23.9545 32.4882C25.0278 32.4771 26.1024 32.4829 27.1764 32.4829C29.235 32.4829 31.2936 32.4829 33.3522 32.4875C33.5447 32.4875 33.6132 32.4575 33.6132 32.2428C33.6006 31.1036 33.6006 29.9643 33.6132 28.8251C33.6132 28.6365 33.5604 28.6013 33.3835 28.602C30.2425 28.6072 27.1016 28.6072 23.961 28.602C23.7652 28.602 23.7117 28.6542 23.7235 28.8434C23.7398 29.1044 23.732 29.3654 23.7235 29.6264C23.7176 29.8984 23.5812 30.0485 23.3542 30.0485C23.1271 30.0485 22.9973 29.905 22.994 29.6251C22.9901 29.3236 22.994 29.0228 22.994 28.722C22.9979 28.1746 23.2902 27.8777 23.837 27.8738C25.7736 27.8712 27.7093 27.8712 29.6441 27.8738C30.9134 27.8738 32.1827 27.8738 33.452 27.8738C34.0491 27.8738 34.3355 28.1589 34.3362 28.752C34.3362 29.9317 34.3362 31.1116 34.3362 32.2918C34.3362 32.9351 34.0602 33.215 33.4227 33.2157L28.6621 33.2131Z" fill="#875A7B"/>
<path d="M28.6537 34.09C28.9623 34.09 29.2709 34.0855 29.5789 34.09C30.0265 34.0979 30.3253 34.3948 30.3338 34.8391C30.3403 35.164 30.3403 35.4888 30.3338 35.8133C30.326 36.2282 30.0624 36.5343 29.6441 36.5486C28.9877 36.5708 28.3305 36.5708 27.6723 36.5486C27.2665 36.5343 27.0035 36.2361 26.9898 35.8309C26.9787 35.4981 26.9794 35.1653 26.9898 34.8326C27.0029 34.3863 27.3037 34.0979 27.7532 34.09C28.0534 34.0861 28.3535 34.09 28.6537 34.09Z" fill="#875A7B"/>
<path d="M32.5829 34.0901C32.8759 34.0901 33.1702 34.0849 33.4612 34.0901C33.9669 34.1018 34.2879 34.4946 34.1887 34.9905C34.1234 35.3246 34.0367 35.6548 33.9532 35.9849C33.8696 36.3151 33.6471 36.5323 33.3007 36.5447C32.7408 36.565 32.1784 36.5715 31.6192 36.5447C31.2173 36.5252 30.9667 36.212 30.9589 35.8061C30.9543 35.489 30.955 35.1713 30.9589 34.8541C30.9641 34.3974 31.2682 34.0979 31.7282 34.0907C32.0133 34.0862 32.2984 34.0901 32.5829 34.0901Z" fill="#875A7B"/>
<path d="M24.7498 34.09C25.0343 34.09 25.3195 34.0861 25.6039 34.09C26.0607 34.0978 26.3628 34.4051 26.3693 34.8606C26.3737 35.1699 26.3737 35.4789 26.3693 35.7878C26.3634 36.2171 26.0985 36.5296 25.6738 36.5486C25.1381 36.5727 24.5998 36.5694 24.0641 36.5486C23.683 36.5355 23.4527 36.3235 23.3587 35.9522C23.2774 35.6299 23.2019 35.3058 23.1323 34.98C23.1084 34.8748 23.1082 34.7656 23.1316 34.6604C23.1551 34.5551 23.2017 34.4563 23.268 34.3713C23.3343 34.2862 23.4187 34.217 23.5151 34.1686C23.6115 34.1201 23.7174 34.0937 23.8253 34.0913H23.8742L24.7498 34.09Z" fill="#875A7B"/>
<path d="M24.9802 38.491C24.6963 38.491 24.4125 38.4956 24.1319 38.491C23.884 38.4858 23.7352 38.3435 23.7359 38.1269C23.7365 37.9103 23.8866 37.7648 24.1345 37.7622C24.6944 37.7565 25.254 37.7565 25.8134 37.7622C26.0744 37.7622 26.2342 37.9227 26.2258 38.1419C26.2173 38.3494 26.0594 38.4871 25.8108 38.4917C25.5322 38.4949 25.2562 38.491 24.9802 38.491Z" fill="#9C5789"/>
<path d="M32.3572 38.491C32.0733 38.491 31.7895 38.4949 31.5057 38.491C31.2571 38.4858 31.107 38.3448 31.1057 38.1302C31.1044 37.9155 31.2558 37.7648 31.5018 37.7622C32.0703 37.7565 32.6382 37.7565 33.2054 37.7622C33.4481 37.7654 33.6015 37.926 33.5969 38.138C33.5923 38.3501 33.4403 38.4845 33.2106 38.4897C32.9255 38.4956 32.6417 38.4904 32.3572 38.491Z" fill="#9C5789"/>
<path d="M24.958 40.1425C24.682 40.1425 24.406 40.1471 24.1306 40.1425C23.8866 40.1373 23.7326 39.9905 23.732 39.7778C23.7313 39.565 23.8866 39.415 24.13 39.413C24.6976 39.4082 25.2655 39.4082 25.8336 39.413C26.0607 39.413 26.2153 39.5631 26.2251 39.764C26.2349 39.965 26.0744 40.1353 25.8336 40.1412C25.542 40.1477 25.2503 40.1425 24.958 40.1425Z" fill="#875A7B"/>
<path d="M28.6765 39.4104C28.9525 39.4104 29.2285 39.4071 29.5038 39.4104C29.7492 39.4143 29.9032 39.5572 29.9051 39.7712C29.9071 39.9852 29.7531 40.1372 29.5104 40.1392C28.9449 40.1444 28.3772 40.1444 27.8074 40.1392C27.5679 40.1392 27.4094 39.9754 27.4159 39.7653C27.4224 39.5552 27.5816 39.4136 27.8263 39.4097C28.1088 39.4071 28.3927 39.4104 28.6765 39.4104Z" fill="#875A7B"/>
<path d="M24.9828 41.0618C25.2666 41.0618 25.5511 41.0573 25.831 41.0618C26.06 41.0671 26.2134 41.2106 26.2225 41.4116C26.2245 41.4606 26.2166 41.5096 26.199 41.5555C26.1815 41.6014 26.1547 41.6432 26.1205 41.6784C26.0862 41.7136 26.0451 41.7414 25.9997 41.7601C25.9543 41.7789 25.9056 41.7881 25.8565 41.7874C25.2727 41.7978 24.6887 41.7978 24.1045 41.7874C24.0554 41.7898 24.0064 41.7819 23.9605 41.7644C23.9146 41.7468 23.8729 41.7199 23.8379 41.6854C23.8029 41.6509 23.7755 41.6094 23.7574 41.5638C23.7393 41.5181 23.7308 41.4692 23.7326 41.42C23.7326 41.2034 23.8814 41.0644 24.1313 41.0599C24.4125 41.0579 24.6989 41.0618 24.9828 41.0618Z" fill="#9C5789"/>
<path d="M32.3728 41.0618C32.6482 41.0618 32.9242 41.0579 33.2002 41.0618C33.4312 41.0664 33.5838 41.2053 33.5917 41.4057C33.6015 41.6171 33.4494 41.7854 33.208 41.7887C32.6325 41.7978 32.0568 41.7978 31.4809 41.7887C31.2388 41.7848 31.0894 41.619 31.1024 41.403C31.1122 41.1995 31.2597 41.0657 31.4939 41.0618C31.7915 41.0579 32.0831 41.0618 32.3728 41.0618Z" fill="#9C5789"/>
<path d="M32.3324 40.1425C32.0564 40.1425 31.7804 40.1471 31.505 40.1425C31.261 40.1373 31.1064 39.9911 31.1057 39.7778C31.105 39.5644 31.2597 39.415 31.5031 39.413C32.0707 39.4082 32.6386 39.4082 33.2067 39.413C33.4344 39.413 33.5884 39.5631 33.5982 39.764C33.606 39.9748 33.4488 40.136 33.2113 40.1418C32.917 40.1477 32.6247 40.1425 32.3324 40.1425Z" fill="#875A7B"/>
<path d="M28.6589 38.4911C28.375 38.4911 28.0912 38.4957 27.8074 38.4911C27.5653 38.4852 27.4087 38.3306 27.4159 38.1205C27.4177 38.0715 27.4292 38.0234 27.4498 37.979C27.4703 37.9345 27.4994 37.8945 27.5354 37.8613C27.5714 37.8282 27.6137 37.8025 27.6597 37.7857C27.7057 37.7689 27.7545 37.7614 27.8035 37.7636C28.379 37.757 28.9545 37.757 29.5299 37.7636C29.5789 37.7611 29.6278 37.7686 29.6736 37.7858C29.7195 37.803 29.7614 37.8294 29.7966 37.8634C29.8318 37.8974 29.8597 37.9383 29.8785 37.9835C29.8973 38.0288 29.9066 38.0774 29.9058 38.1263C29.9058 38.3456 29.7622 38.4859 29.5143 38.4911C29.2265 38.4957 28.9421 38.4911 28.6589 38.4911Z" fill="#9C5789"/>
<path d="M28.6537 41.7939C28.3927 41.7939 28.1317 41.7939 27.8752 41.7939C27.5947 41.7906 27.4224 41.651 27.4185 41.4305C27.4146 41.2099 27.5816 41.0638 27.8628 41.0631C28.3979 41.0605 28.9329 41.0605 29.468 41.0631C29.7551 41.0631 29.9117 41.1975 29.9084 41.4305C29.9051 41.6634 29.7427 41.7906 29.4569 41.7939C29.1854 41.7965 28.9179 41.7939 28.6537 41.7939Z" fill="#9C5789"/>
<path d="M34.1071 19.7314C33.762 20.1882 33.7228 20.6802 33.7261 21.1917C33.7352 22.6644 33.7293 24.137 33.7293 25.609C33.7293 25.9457 33.6843 25.9901 33.3509 25.9901H23.9786C23.6387 25.9901 23.5962 25.9483 23.5956 25.6149C23.5956 24.0924 23.5956 22.5711 23.5956 21.0508C23.5956 20.2508 24.1104 19.7328 24.9006 19.7321C27.9535 19.7314 31.0026 19.7314 34.1071 19.7314Z" fill="#FEFEFE"/>
<path d="M37.0805 27.094C36.8123 27.094 36.5194 27.1802 36.3771 27.0705C36.2349 26.9609 36.3308 26.6458 36.3295 26.4226C36.323 25.2286 35.7566 24.471 34.5874 24.1239C34.4712 24.0887 34.4601 24.0274 34.4601 23.9282C34.4601 22.9031 34.4543 21.8781 34.4654 20.853C34.4636 20.7041 34.492 20.5563 34.5486 20.4186C34.6052 20.2808 34.689 20.1559 34.7949 20.0512C34.9009 19.9465 35.0268 19.8643 35.1653 19.8093C35.3037 19.7544 35.4518 19.7279 35.6007 19.7314C36.2251 19.7373 36.7099 20.2292 36.7145 20.8798C36.721 22.0431 36.7145 23.2065 36.7145 24.3699C36.7145 24.8665 36.7236 25.3623 36.7145 25.8582C36.6985 26.2991 36.827 26.733 37.0805 27.094Z" fill="#FEFEFE"/>
<path d="M37.4492 24.7354C37.4492 24.2884 37.4524 23.8421 37.4459 23.3952C37.4459 23.2725 37.474 23.2275 37.6058 23.2294C38.193 23.2366 38.775 23.2294 39.3596 23.234C39.6109 23.234 39.6989 23.3234 39.6996 23.57C39.6996 24.3739 39.7061 25.1778 39.6996 25.9842C39.696 26.2843 39.5736 26.5707 39.3592 26.7807C39.1448 26.9907 38.8559 27.1072 38.5558 27.1045C37.9542 27.1045 37.4596 26.606 37.4505 25.9784C37.444 25.5634 37.4492 25.1471 37.4492 24.7354Z" fill="#FEFEFE"/>
<path d="M28.6876 34.8221C28.9486 34.8221 29.2096 34.8267 29.4706 34.8221C29.5776 34.8221 29.6115 34.8541 29.6089 34.9605C29.6024 35.2038 29.6037 35.4479 29.6089 35.6919C29.6089 35.7963 29.5756 35.8341 29.4686 35.8335C28.9323 35.8296 28.3957 35.8296 27.8589 35.8335C27.75 35.8335 27.718 35.7904 27.7193 35.6886C27.7232 35.4446 27.7245 35.2006 27.7193 34.9565C27.716 34.8456 27.7611 34.8202 27.8622 34.8221C28.1317 34.826 28.4109 34.8221 28.6876 34.8221Z" fill="#FDFDFD"/>
<path d="M32.5921 34.8221C32.8439 34.8221 33.0964 34.8261 33.3483 34.8221C33.4481 34.8221 33.4788 34.8528 33.4533 34.9481C33.3881 35.2091 33.3228 35.4701 33.2674 35.7311C33.2459 35.8335 33.1845 35.8341 33.1088 35.8341C32.686 35.8341 32.2606 35.8296 31.8404 35.8341C31.7216 35.8341 31.674 35.7976 31.6903 35.6808C31.6903 35.673 31.6903 35.6652 31.6903 35.6567C31.7066 35.3839 31.6538 35.1086 31.7177 34.8378H32.5914L32.5921 34.8221Z" fill="#FDFDFD"/>
<path d="M23.8435 34.8221C24.4125 34.8221 24.9645 34.8221 25.5159 34.8221C25.6124 34.8221 25.6411 34.8554 25.6398 34.9487C25.6353 35.1999 25.6333 35.4524 25.6398 35.7037C25.6437 35.8231 25.5837 35.8341 25.4904 35.8341C25.0676 35.8341 24.6454 35.8302 24.2233 35.8341C24.1287 35.8341 24.0745 35.8139 24.0523 35.7134C23.9884 35.4192 23.9166 35.1301 23.8435 34.8221Z" fill="#FDFDFD"/>
<path d="M28.668 21.2426C29.7981 21.2426 30.9282 21.2426 32.0609 21.2426C32.2567 21.2426 32.4152 21.2955 32.4792 21.4984C32.4956 21.5489 32.5008 21.6024 32.4942 21.6551C32.4876 21.7078 32.4695 21.7584 32.4412 21.8033C32.4129 21.8482 32.375 21.8864 32.3302 21.915C32.2855 21.9436 32.235 21.962 32.1823 21.9688C32.1096 21.9775 32.0362 21.9799 31.9631 21.976H25.3756C25.3345 21.976 25.294 21.976 25.2536 21.976C24.9926 21.9662 24.8249 21.8214 24.8249 21.6054C24.8249 21.3894 24.9893 21.2446 25.2536 21.2439C26.3915 21.2422 27.5296 21.2418 28.668 21.2426Z" fill="#875A7B"/>
<path d="M28.668 23.4806C29.7894 23.4806 30.9113 23.4806 32.0335 23.4806C32.2038 23.4806 32.3598 23.5002 32.4511 23.6685C32.4765 23.715 32.4914 23.7665 32.4947 23.8193C32.4981 23.8722 32.4898 23.9251 32.4705 23.9744C32.4513 24.0237 32.4214 24.0682 32.3831 24.1047C32.3448 24.1413 32.299 24.169 32.2489 24.186C32.155 24.2125 32.0571 24.222 31.9598 24.214H25.3756C25.3351 24.214 25.2947 24.214 25.2536 24.214C24.9926 24.2029 24.8255 24.0574 24.8255 23.8441C24.8255 23.6307 24.9893 23.4832 25.2542 23.4826C26.3921 23.48 27.5301 23.4793 28.668 23.4806Z" fill="#9C5789"/>
</g>
<defs>
<clipPath id="clip0_302_4">
<rect width="19.4336" height="25" fill="white" transform="translate(21 19)"/>
</clipPath>
</defs>
</svg>
