<svg width="36" height="40" viewBox="0 0 36 40" fill="none" xmlns="http://www.w3.org/2000/svg">
<path d="M0.625203 40C0.167031 39.8218 -0.0248535 39.489 0.00255852 38.9965C0.241435 34.7349 2.08881 31.4142 5.76104 29.1742C6.90158 28.4781 8.20854 28.1776 9.45481 27.74C10.0177 27.5442 10.6991 27.4884 11.1191 27.1271C11.5391 26.7659 11.6957 26.1041 11.9659 25.5725C12.1363 25.2367 12.4319 24.9019 12.4368 24.5631C12.4417 24.2244 12.0012 23.9904 11.7878 23.682C11.4941 23.2669 11.2004 22.8528 10.9967 22.3878C10.8988 22.1695 10.7755 22.0784 10.5268 22.0941C10.0713 22.1418 9.61128 22.0682 9.19342 21.8807C8.4014 21.5047 7.96085 20.8713 7.8375 20.0108C7.81408 19.8816 7.80782 19.75 7.8189 19.6192C7.88253 19.1228 7.77778 18.789 7.26283 18.5158C6.59515 18.1614 6.2662 17.482 6.26523 16.7233C6.26523 14.6919 6.1497 12.6575 6.32397 10.6319C6.57361 7.71746 7.77974 5.22884 9.90809 3.22384C12.5054 0.776343 15.6176 -0.285873 19.1636 0.0655885C22.4109 0.386701 25.0728 1.87184 27.1209 4.41039C28.9036 6.62098 29.7084 9.1791 29.6937 12.0084C29.6859 13.4769 29.6937 14.9513 29.6937 16.4227C29.6937 18.0009 28.7147 18.9681 27.1316 18.974C26.74 18.974 26.2652 18.8507 25.9872 19.0308C25.7092 19.2109 25.81 19.7249 25.7385 20.092C25.4423 21.6726 24.7028 23.1363 23.6063 24.3125C23.5478 24.3603 23.5096 24.4284 23.4993 24.5032C23.489 24.578 23.5072 24.654 23.5505 24.7158C23.9235 25.4432 24.2916 26.1736 24.6469 26.9088C24.6865 26.9956 24.745 27.0724 24.8182 27.1336C24.8914 27.1948 24.9774 27.2387 25.0699 27.2622C26.2447 27.646 27.4195 28.019 28.5766 28.437C31.4304 29.464 33.4237 31.4484 34.7551 34.125C35.4775 35.6011 35.8824 37.2123 35.9436 38.8546C35.9671 39.3558 35.8457 39.7406 35.3973 39.9922L0.625203 40Z" fill="#875A7B"/>
<path d="M12.6189 22.1068C13.1339 22.1068 13.5862 22.1156 14.0375 22.1068C14.1922 22.1019 14.2333 22.19 14.2881 22.2958C14.7541 23.2532 15.5364 23.682 16.5819 23.6742C17.0509 23.6742 17.5198 23.685 17.9878 23.6742C19.2928 23.6331 20.2963 22.6325 20.3149 21.3667C20.3335 20.1009 19.331 19.0426 18.0123 18.9975C17.3751 18.9604 16.7362 18.9689 16.1003 19.023C15.2857 19.1101 14.6768 19.5663 14.3136 20.3084C14.2274 20.4846 14.1462 20.562 13.9455 20.5571C13.3581 20.5434 12.7723 20.5434 12.1882 20.5571C11.9836 20.5571 11.9043 20.5042 11.8543 20.2937C11.5606 19.0377 11.4148 17.7581 11.2669 16.4805C11.1436 15.4036 11.0506 14.3316 11.0095 13.2498C11.0095 13.1235 10.9625 12.9923 11.0555 12.8739C11.7094 12.0349 12.2645 11.1117 13.1456 10.4685C13.9572 9.8763 14.9097 9.50704 15.9084 9.39744C16.1345 9.37003 16.2422 9.50807 16.3724 9.62457C18.1709 11.2563 20.3645 12.3899 22.7359 12.913C23.3556 13.0521 23.99 13.1314 24.6185 13.2302C24.829 13.2625 24.9534 13.3037 24.9338 13.5817C24.7762 15.8667 24.6401 18.1654 24.0439 20.3799C22.8084 24.944 17.8928 26.5936 14.4056 24.0922C13.6795 23.5607 13.0712 22.8847 12.6189 22.1068Z" fill="#FEFEFE"/>
<path d="M16.5692 38.4376H14.386C10.2468 38.4376 6.10728 38.4392 1.96741 38.4425C1.70504 38.4425 1.57581 38.4337 1.6326 38.0988C2.24839 34.1544 4.24457 31.2889 8.06463 29.8557C9.01132 29.5013 9.98641 29.2203 10.9429 28.8904C11.1495 28.8199 11.2523 28.8062 11.3423 29.0519C12.3654 31.8381 13.7898 34.4051 15.5344 36.8036C15.8976 37.3068 16.2001 37.8512 16.5692 38.4376Z" fill="#FEFEFE"/>
<path d="M34.34 38.4287H19.3858C19.7539 37.8413 20.0711 37.2754 20.4529 36.7477C21.9351 34.683 23.2117 32.5038 24.178 30.1483C24.3307 29.7763 24.4717 29.4003 24.6185 29.0254C24.6655 28.904 24.6949 28.7777 24.8858 28.8472C26.2143 29.3367 27.6114 29.6392 28.8821 30.2638C31.7437 31.6706 33.4012 34.0369 34.1452 37.0914C34.1971 37.3058 34.2372 37.5241 34.2686 37.7424C34.2999 37.9607 34.3155 38.181 34.34 38.4287Z" fill="#FEFEFE"/>
<path d="M10.9967 10.3559C11.078 9.37932 11.4054 8.43927 11.9483 7.62349C13.1917 5.74479 14.9499 4.75208 17.2046 4.68649C18.399 4.65418 19.5973 4.61307 20.7544 5.03893C23.3204 5.98464 24.9583 8.26963 25.0033 10.9981C25.0033 11.2184 25.0033 11.4387 25.0033 11.6903C23.6092 11.5405 22.2768 11.2595 21.0021 10.724C19.581 10.141 18.2826 9.29502 17.1752 8.23047C17.0318 8.08063 16.8559 7.96578 16.661 7.89482C16.4661 7.82386 16.2575 7.79869 16.0513 7.82125C14.1687 7.96712 12.5651 8.69158 11.266 10.073C11.1984 10.1385 11.1299 10.212 10.9967 10.3559Z" fill="#FEFEFE"/>
<path d="M7.82869 10.9031C8.33288 6.89509 10.3565 4.00606 14.0532 2.34861C17.6197 0.748921 22.2317 1.63883 25.018 4.40451C26.7586 6.13636 27.7944 8.20009 28.0725 10.6456C28.1018 10.91 28.0284 10.9481 27.8003 10.9393C27.4883 10.9193 27.1754 10.9193 26.8634 10.9393C26.6245 10.957 26.5638 10.8816 26.5521 10.6456C26.4869 9.0362 25.917 7.48807 24.923 6.22056C23.4878 4.38101 21.5944 3.32859 19.2722 3.1602C17.6902 3.04664 16.0875 2.99964 14.573 3.6125C11.453 4.87541 9.72697 7.20053 9.41272 10.5526C9.38237 10.8728 9.306 10.9726 8.98881 10.9442C8.65301 10.9129 8.31232 10.9374 7.97457 10.9354C7.92531 10.9278 7.87658 10.917 7.82869 10.9031Z" fill="#FEFEFE"/>
<path d="M17.9878 37.7405C17.4376 36.9221 16.9863 36.1213 16.4498 35.3753C16.0406 34.8065 15.6793 34.2005 15.2818 33.6258C15.1497 33.43 15.1389 33.3145 15.3161 33.1363C16.115 32.3159 16.9021 31.4841 17.6774 30.6408C17.8468 30.4577 17.9408 30.4352 18.1278 30.6281C18.9531 31.4769 19.797 32.3081 20.633 33.1471C20.7309 33.245 20.8602 33.3125 20.7456 33.5005C19.8792 34.9259 18.8346 36.2358 17.9878 37.7405Z" fill="#FEFEFE"/>
<path d="M22.315 25.7428C22.6557 26.4281 22.9777 27.0762 23.3057 27.7233C23.3309 27.7677 23.3456 27.8172 23.3486 27.8681C23.3517 27.919 23.343 27.97 23.3233 28.017C22.8646 29.3282 22.311 30.6043 21.6669 31.8351C21.6561 31.8547 21.6287 31.8655 21.5934 31.8909C20.7678 31.0633 19.9409 30.2348 19.1127 29.4052C19.0382 29.3308 18.9658 29.277 19.0784 29.1585C20.1543 28.0307 21.2234 26.8961 22.315 25.7428Z" fill="#FEFEFE"/>
<path d="M14.3244 31.9135C13.6595 30.643 13.084 29.3276 12.6023 27.977C12.5533 27.8448 12.6268 27.7498 12.6767 27.649C12.941 27.1154 13.2103 26.5848 13.4785 26.0532C13.6126 26.0708 13.6743 26.1815 13.7536 26.2618C14.7013 27.2062 15.6476 28.1525 16.5927 29.1009C16.6789 29.189 16.8512 29.2565 16.6779 29.4366C15.8976 30.2502 15.1222 31.0726 14.3244 31.9135Z" fill="#FEFEFE"/>
<path d="M28.1351 14.6625C28.1351 15.2606 28.1351 15.8578 28.1351 16.455C28.1302 17.1207 27.8414 17.4105 27.1904 17.4183C26.9564 17.4183 26.7214 17.4037 26.4894 17.4232C26.2574 17.4428 26.1487 17.3811 26.1849 17.1109C26.3807 15.6816 26.4698 14.2434 26.5325 12.8033C26.5433 12.5527 26.6226 12.4744 26.8712 12.491C27.2087 12.5111 27.547 12.5111 27.8845 12.491C28.095 12.4793 28.1439 12.5527 28.14 12.7524C28.1234 13.3898 28.1351 14.0261 28.1351 14.6625Z" fill="#FEFEFE"/>
<path d="M7.81694 14.6527C7.81694 14.0418 7.83359 13.4309 7.80911 12.8209C7.79736 12.5341 7.89526 12.4548 8.15665 12.494C8.26028 12.5018 8.36435 12.5018 8.46798 12.494C9.41957 12.494 9.41859 12.494 9.45383 13.4318C9.49303 14.613 9.59368 15.7914 9.75536 16.9621C9.81019 17.341 9.72403 17.4771 9.33537 17.4213C9.11901 17.3909 8.89482 17.4213 8.67455 17.4144C8.13805 17.3939 7.83065 17.0953 7.81988 16.5588C7.80715 15.9254 7.81694 15.289 7.81694 14.6527Z" fill="#FEFEFE"/>
<path d="M17.2075 20.5482C17.4669 20.5482 17.7274 20.5326 17.9848 20.5482C18.4342 20.5825 18.7534 20.9193 18.7504 21.3314C18.7466 21.5352 18.6635 21.7295 18.5187 21.873C18.3739 22.0165 18.1789 22.0979 17.975 22.0999C17.4572 22.1215 16.9373 22.1205 16.4184 22.0999C16.2144 22.1 16.0184 22.0205 15.8721 21.8782C15.7258 21.736 15.6408 21.5422 15.6352 21.3383C15.6254 20.9173 15.9593 20.5756 16.4302 20.5482C16.6886 20.5326 16.9491 20.5482 17.2085 20.5482H17.2075Z" fill="#FEFEFE"/>
<path d="M16.3225 26.6356C17.2845 26.8273 18.2724 26.8522 19.2429 26.709C18.7837 27.1985 18.3774 27.6273 17.9702 28.0601C17.884 28.1531 17.8253 28.1237 17.7489 28.0473C17.3044 27.6009 16.8531 27.1574 16.3225 26.6356Z" fill="#FDFDFD"/>
<path d="M9.37845 19.4057C9.34908 19.1864 9.30992 18.9162 9.7769 18.9691C9.97956 18.9946 10.0412 19.0602 10.0706 19.2354C10.1284 19.6064 10.1783 19.9804 10.2664 20.3456C10.3183 20.5659 10.2204 20.5531 10.0706 20.5326C9.60362 20.468 9.38041 20.1273 9.37845 19.4057Z" fill="#FDFDFD"/>
<path d="M29.304 32.4324C29.535 32.4497 29.7534 32.5446 29.9237 32.7016C30.7415 33.3704 31.4186 34.1946 31.916 35.1266C32.1686 35.6004 32.0864 36.0557 31.6967 36.2877C31.3071 36.5197 30.8469 36.4022 30.5807 35.9225C30.1477 35.1338 29.5702 34.4337 28.8782 33.8588C28.5845 33.6179 28.4415 33.3086 28.6021 32.9248C28.6568 32.7822 28.7528 32.6592 28.8779 32.5714C29.0029 32.4837 29.1513 32.4353 29.304 32.4324Z" fill="#875A7B"/>
<path d="M27.3441 31.7352C27.3405 31.8891 27.2912 32.0385 27.2026 32.1643C27.1139 32.2902 26.9898 32.3868 26.8461 32.4419C26.7024 32.4971 26.5455 32.5083 26.3954 32.4741C26.2454 32.4399 26.1088 32.3618 26.0032 32.2499C25.8976 32.1379 25.8276 31.997 25.8022 31.8452C25.7768 31.6934 25.7972 31.5374 25.8606 31.3972C25.924 31.2569 26.0278 31.1387 26.1585 31.0575C26.2893 30.9763 26.4413 30.9359 26.5951 30.9413C26.7971 30.9548 26.9864 31.0442 27.1253 31.1914C27.2642 31.3386 27.3423 31.5329 27.3441 31.7352Z" fill="#875A7B"/>
</svg>
