<svg width="40" height="40" viewBox="0 0 40 40" fill="none" xmlns="http://www.w3.org/2000/svg">
<g clip-path="url(#clip0_108_502)">
<path d="M24.2267 33.3259C24.7478 35.0707 25.2533 36.7531 25.7499 38.4378C25.8045 38.6204 25.9002 38.6605 26.0784 38.6605C26.6351 38.6505 27.1919 38.6661 27.7486 38.6527C27.9501 38.6471 27.9969 38.7106 28.0047 38.9077C28.0448 39.99 28.0514 39.99 27.0026 39.99C22.136 39.9944 17.2731 39.9967 12.414 39.9967C12.0655 39.9967 11.9786 39.9143 11.9886 39.5691C12.0143 38.6549 11.9964 38.6549 12.9173 38.6549H13.3337C14.1733 38.6549 14.1733 38.6549 14.406 37.8755C14.8514 36.379 15.2967 34.8814 15.7655 33.3248H2.26924C0.792785 33.3248 0.00111389 32.5376 0.00111389 31.0711C0.00111389 21.4627 0.00111389 11.8547 0.00111389 2.24697C0.00111389 0.799466 0.795012 0 2.22804 0H37.7586C39.1772 0 39.9855 0.801693 39.9855 2.20799C39.9855 11.8439 39.9855 21.4798 39.9855 31.1157C39.9855 32.5209 39.1738 33.3248 37.7586 33.3248H24.2267V33.3259Z" fill="#875A7B"/>
<path d="M19.9632 27.9936C13.8971 27.9936 7.8306 27.9973 1.76372 28.0047C1.38291 28.0047 1.32501 27.8934 1.32613 27.5493C1.33652 19.1375 1.338 10.7253 1.33058 2.31272C1.33058 1.51548 1.51207 1.33398 2.30597 1.33398H37.7029C38.4645 1.33398 38.6549 1.52661 38.6549 2.2949C38.6549 10.7216 38.6575 19.1468 38.6627 27.5705C38.6627 27.9101 38.5937 28.0003 38.2418 27.9992C32.1505 27.9895 26.0576 27.9877 19.9632 27.9936Z" fill="#FEFEFE"/>
<path d="M20.0134 29.3264C26.0788 29.3264 32.1438 29.323 38.2084 29.3163C38.6026 29.3163 38.6895 29.4332 38.6661 29.794C38.6349 30.2639 38.6661 30.7371 38.6572 31.2092C38.6505 31.747 38.4066 31.9831 37.861 31.9886H2.34161C1.49538 31.9886 1.32947 31.8205 1.32947 30.962C1.32947 30.5044 1.34284 30.0456 1.32947 29.5891C1.31945 29.3598 1.40296 29.2941 1.61118 29.3208C1.69424 29.3258 1.77753 29.3258 1.8606 29.3208L20.0134 29.3264Z" fill="#FEFEFE"/>
<path d="M15.5684 38.6393C16.0817 36.9179 16.5895 35.2232 17.0916 33.5263C17.1395 33.3626 17.2297 33.3214 17.3923 33.3225C19.1278 33.3277 20.8633 33.3277 22.5988 33.3225C22.7603 33.3225 22.8516 33.3615 22.9006 33.5263C23.4016 35.2232 23.9094 36.9179 24.4238 38.6393H15.5684Z" fill="#FEFEFE"/>
<path d="M25.3101 26.6607H15.5651C14.1276 26.6607 13.3315 25.8601 13.3315 24.4149C13.3315 19.9031 13.3315 15.3914 13.3315 10.8796C13.3315 9.46887 14.1376 8.66607 15.5584 8.66496C17.9045 8.66496 20.2505 8.67386 22.5966 8.65939C22.9225 8.64887 23.2469 8.70855 23.5478 8.83438C23.8486 8.96021 24.1189 9.14926 24.3403 9.38871C24.8592 9.92985 25.4059 10.4443 25.9247 10.9843C26.0309 11.1017 26.1617 11.1942 26.3078 11.2551C26.4539 11.3159 26.6117 11.3436 26.7699 11.3362C29.5468 11.3272 32.3227 11.3362 35.0997 11.3362C36.5182 11.3362 37.3266 12.1378 37.3266 13.543C37.3266 17.1803 37.3266 20.8176 37.3266 24.455C37.3266 25.8613 36.5171 26.6652 35.0997 26.6652L25.3101 26.6607Z" fill="#875A7B"/>
<path d="M23.8147 6.86455C23.7791 6.90575 23.7446 6.94138 23.7134 6.98146C23.0219 7.87223 22.934 7.91343 22.1924 7.08056C21.747 6.57282 21.3651 6.47038 20.7616 6.79552C20.2049 7.09281 19.5825 7.44021 18.9923 7.43576C18.4022 7.4313 17.8521 6.98035 17.2653 6.77881C17.0558 6.71989 16.8645 6.60928 16.7088 6.45714C16.5532 6.30501 16.4382 6.11621 16.3746 5.90809C16.1808 5.35136 15.9014 4.81689 15.6809 4.26462C15.6029 4.06976 15.5139 3.98514 15.2945 3.99405C14.7957 4.0152 14.2044 3.84484 13.8225 4.05863C13.4406 4.27241 13.3337 4.89929 13.1923 5.36694C12.9306 6.2321 12.3828 6.68305 11.5499 7.02934C10.6859 7.38788 9.92652 7.53819 9.10923 7.02155C8.97597 6.94764 8.83377 6.89113 8.68612 6.85341C8.36321 6.75209 7.99243 6.40246 7.73968 6.56169C7.28204 6.85007 6.93353 7.31439 6.54493 7.71078C6.43915 7.82213 6.55607 7.92234 6.59281 8.01476C6.85336 8.68283 7.11948 9.35091 7.39673 10.019C7.43908 10.1042 7.46185 10.1978 7.46339 10.293C7.46493 10.3882 7.4452 10.4825 7.40564 10.569C7.13841 11.177 6.8838 11.7901 6.6418 12.4085C6.60683 12.5055 6.55073 12.5934 6.47754 12.666C6.40436 12.7386 6.31594 12.7941 6.21869 12.8283C5.5662 13.0966 4.92484 13.3917 4.26902 13.6522C4.04632 13.7391 3.98174 13.8504 3.9951 14.0787C4.02183 14.573 3.85258 15.1777 4.07973 15.5362C4.30242 15.8702 4.90258 16.0094 5.36355 16.1419C6.23539 16.3913 6.68077 16.9492 7.02706 17.7809C7.39228 18.6595 7.52033 19.4266 7.01704 20.2651C6.83443 20.569 6.7576 20.9331 6.60283 21.2594C6.49149 21.4988 6.53268 21.6547 6.72754 21.8273C7.01024 22.0736 7.27551 22.3392 7.52144 22.6223C7.70071 22.8316 7.8655 22.8238 8.09487 22.7258C8.74402 22.4497 9.40319 22.1958 10.0546 21.9263C10.1271 21.889 10.207 21.8684 10.2885 21.8661C10.3701 21.8638 10.4511 21.8798 10.5256 21.913C11.0177 22.1357 11.5177 22.335 12.0198 22.5321C12.1946 22.6 12.2425 22.6668 12.1679 22.8661C11.7916 23.8949 11.7905 23.9139 10.7939 23.4707C10.6373 23.3916 10.4644 23.3504 10.2889 23.3504C10.1135 23.3504 9.94057 23.3916 9.78399 23.4707C9.10367 23.7769 8.39885 24.0275 7.7085 24.3147C7.52366 24.3904 7.39784 24.386 7.24307 24.2268C6.54753 23.5097 5.84234 22.8045 5.1275 22.1112C4.95491 21.9442 4.95268 21.8139 5.0373 21.6112C5.34239 20.8841 5.61853 20.1448 5.92807 19.4188C6.03942 19.1605 6.01381 18.9456 5.93587 18.6773C5.71874 17.9279 5.29006 17.4525 4.52177 17.2298C3.96504 17.0694 3.45396 16.7766 2.91393 16.5617C2.83602 16.5406 2.76839 16.4919 2.72356 16.4248C2.67873 16.3576 2.65974 16.2765 2.67008 16.1965C2.67899 15.1832 2.68345 14.17 2.67008 13.1567C2.67008 12.9273 2.77252 12.8483 2.95179 12.7737C3.67888 12.4697 4.39929 12.1446 5.12972 11.8517C5.39473 11.746 5.52946 11.5734 5.66641 11.3306C6.06169 10.6347 6.0539 9.98001 5.67643 9.27519C5.417 8.78972 5.26222 8.2497 5.04399 7.74084C4.95936 7.54265 4.9538 7.40681 5.12972 7.2409C5.84902 6.54833 6.55384 5.83905 7.2453 5.12532C7.29859 5.05624 7.37511 5.00882 7.46068 4.99182C7.54625 4.97483 7.63509 4.98943 7.71073 5.0329C8.46565 5.34356 9.22837 5.6364 9.98107 5.9504C10.1799 6.03029 10.4009 6.03583 10.6035 5.96599C11.4085 5.75443 11.9029 5.28789 12.1345 4.47617C12.2859 3.94839 12.5643 3.45736 12.7714 2.94405C12.7927 2.85912 12.8443 2.78489 12.9165 2.73528C12.9886 2.68567 13.0764 2.66409 13.1633 2.67459C14.1655 2.68907 15.162 2.69129 16.1608 2.67459C16.4057 2.67459 16.4948 2.76924 16.5806 2.96966C16.8801 3.69898 17.2086 4.41716 17.4981 5.14982C17.6094 5.42039 17.7931 5.5373 18.0281 5.67649C18.7262 6.08847 19.382 6.04393 20.0835 5.67649C20.5846 5.41594 21.1291 5.24224 21.6557 5.03068C21.7804 4.98057 21.8895 4.91933 22.0232 5.05517C22.5743 5.62304 23.1366 6.17754 23.6934 6.73761C23.7312 6.76322 23.7646 6.80665 23.8147 6.86455Z" fill="#875A7B"/>
<path d="M8.00022 14.269C8.0982 12.1479 9.17381 10.2171 11.3172 8.89657C11.5978 8.72287 11.7626 8.69837 11.8907 9.05357C11.9864 9.32525 12.257 9.59805 12.2247 9.83299C12.1924 10.0679 11.7882 10.1581 11.5566 10.3251C10.8377 10.8411 10.2587 11.528 9.87187 12.3239C9.48502 13.1197 9.30252 13.9994 9.34087 14.8835C9.37921 15.7675 9.63719 16.6281 10.0915 17.3875C10.5458 18.1468 11.1821 18.781 11.943 19.2328C12.2314 19.4054 12.326 19.5446 12.1078 19.8196C12.0783 19.8665 12.0533 19.9161 12.0332 19.9677C11.6869 20.6647 11.6869 20.6647 11.0455 20.2517C9.14597 19.0324 7.99465 16.9102 8.00022 14.269Z" fill="#875A7B"/>
<path d="M25.2823 25.3279H15.5829C14.8725 25.3279 14.6654 25.1219 14.6654 24.416C14.6654 19.9057 14.6654 15.3954 14.6654 10.8852C14.6654 10.2082 14.8792 9.9944 15.5651 9.9944C17.8967 9.9944 20.2283 9.9944 22.5599 9.98772C22.7179 9.98082 22.8755 10.0088 23.0216 10.0696C23.1676 10.1304 23.2985 10.2226 23.405 10.3396C23.9138 10.8707 24.4527 11.3718 24.9582 11.9062C25.1874 12.1571 25.4685 12.3549 25.782 12.4861C26.0954 12.6172 26.4337 12.6785 26.7732 12.6656C29.5479 12.65 32.3238 12.6589 35.0997 12.66C35.78 12.66 35.9904 12.8727 35.9904 13.5508C35.9904 17.1733 35.9904 20.7953 35.9904 24.4171C35.9904 25.1163 35.7811 25.3212 35.064 25.3212L25.2823 25.3279Z" fill="#FEFEFE"/>
<path d="M20.9275 14.8157C21.0078 14.9489 21.0987 15.0755 21.1992 15.1943C21.7982 15.8033 21.8016 15.8011 21.1992 16.4057C20.5434 17.0626 19.8953 17.7285 19.225 18.371C19.0023 18.5847 18.9645 18.705 19.2128 18.9455C20.0045 19.7015 20.7572 20.4977 21.5511 21.2548C21.7871 21.4775 21.7737 21.6134 21.5355 21.796C21.2972 21.9786 21.1213 22.4073 20.8407 22.3772C20.6013 22.3516 20.3953 21.9986 20.1793 21.7837C19.2172 20.825 18.2619 19.8585 17.2932 18.9065C17.1072 18.7239 17.0794 18.6248 17.2832 18.4255C18.4111 17.3198 19.5234 16.1986 20.6414 15.0851C20.7048 15.0128 20.7794 14.9515 20.9275 14.8157Z" fill="#875A7B"/>
<path d="M33.6444 18.6049C33.533 18.7296 33.4773 18.7897 33.4217 18.8465C32.2755 19.9948 31.1294 21.1435 29.9833 22.2926C29.8463 22.4307 29.7717 22.4374 29.6203 22.2926C28.8253 21.5522 28.8197 21.5578 29.5902 20.7872C30.1982 20.1793 30.795 19.5624 31.4185 18.969C31.6602 18.7463 31.6991 18.616 31.4341 18.3632C30.6302 17.5994 29.8653 16.7955 29.0703 16.025C28.881 15.8412 28.8977 15.7499 29.0703 15.5729C29.7907 14.8514 29.784 14.8458 30.4899 15.5517C31.4408 16.5026 32.3925 17.4528 33.3448 18.4022C33.4385 18.4785 33.5387 18.5463 33.6444 18.6049Z" fill="#875A7B"/>
<path d="M27.8844 16.3913L27.7575 16.6195C26.7554 18.42 25.7533 20.2194 24.7589 22.0265C24.622 22.2759 24.5151 22.3349 24.2735 22.1623C24.0318 21.9898 23.5876 21.8884 23.5029 21.6591C23.4183 21.4297 23.7423 21.1079 23.8949 20.8318C24.7857 19.2217 25.6898 17.6205 26.5672 16.0027C26.7242 15.7143 26.8478 15.6942 27.0939 15.8635C27.2976 16.0049 27.5259 16.1107 27.7419 16.2332C27.8065 16.2721 27.9033 16.2888 27.8844 16.3913Z" fill="#875A7B"/>
</g>
<defs>
<clipPath id="clip0_108_502">
<rect width="39.9911" height="40" fill="white"/>
</clipPath>
</defs>
</svg>
