<svg width="41" height="40" viewBox="0 0 41 40" fill="none" xmlns="http://www.w3.org/2000/svg">
<g clip-path="url(#clip0_108_468)">
<path d="M13.6618 39.9958H11.3988C11.3591 39.8508 11.4645 39.7517 11.5114 39.6339C11.6438 39.3023 11.4999 39.0353 11.1485 38.9654C10.981 38.9418 10.8116 38.9348 10.6427 38.9445C8.54856 38.9445 6.45443 38.9591 4.36031 38.9383C3.91986 38.9348 3.48448 38.8439 3.0794 38.6709C2.67432 38.4979 2.3076 38.2463 2.00049 37.9305C1.69338 37.6148 1.45198 37.2412 1.29029 36.8315C1.1286 36.4218 1.04982 35.9841 1.05853 35.5437C1.10859 33.3286 3.37061 31.7173 5.43866 32.5193C6.59835 32.9667 7.56094 32.4338 7.55155 31.0217C7.51714 25.7551 7.538 20.4885 7.538 15.2199C7.538 14.3856 7.5599 14.3626 8.38482 14.3626C10.0368 14.3626 11.6887 14.371 13.3406 14.3574C13.5404 14.3459 13.7404 14.3778 13.9267 14.4509C14.113 14.524 14.2813 14.6365 14.42 14.7808C15.077 15.443 15.6277 15.4618 16.39 14.9028C16.5626 14.7642 16.7426 14.635 16.9292 14.5159C17.3704 14.2625 17.8042 14.4492 17.9158 14.9414C17.9846 15.2459 18.0201 15.5578 18.0847 15.8623C18.2036 16.3973 18.5134 16.7508 19.0609 16.8499C19.3623 16.9041 19.478 17.07 19.478 17.3588C19.478 17.5789 19.478 17.8 19.478 18.0211C19.478 18.3433 19.3226 18.4966 18.9993 18.4987C18.4539 18.4987 17.9074 18.4987 17.361 18.4987C16.4464 18.506 16.0542 18.895 16.049 19.8065C16.049 20.5219 16.0407 21.2373 16.049 21.9528C16.0605 22.7871 16.4464 23.1688 17.2723 23.1761C17.8052 23.1761 18.3392 23.1709 18.8721 23.1761C19.3842 23.1834 19.4645 23.2647 19.4791 23.7622C19.5051 24.6184 19.4645 24.6601 18.5968 24.6611C16.8155 24.6611 15.0339 24.6611 13.252 24.6611C12.5616 24.6611 12.4625 24.7654 12.4573 25.4506C12.4573 25.8021 12.4677 26.1535 12.451 26.5039C12.4333 26.8898 12.3468 26.9826 11.9525 26.9951C11.3675 27.0129 10.7824 26.9951 10.1974 27.0024C9.40268 27.0118 8.96675 27.4352 8.9459 28.232C8.9299 28.9968 8.9299 29.7643 8.9459 30.5347C8.96362 31.2877 9.36305 31.6756 10.1275 31.6819C11.9616 31.6867 13.7953 31.6867 15.6287 31.6819C16.4172 31.6819 16.8009 31.3012 16.8155 30.5065C16.8287 29.7417 16.8287 28.9745 16.8155 28.2049C16.803 27.4196 16.389 27.0191 15.5922 27.0066C15.0458 26.9983 14.4993 27.0129 13.9538 27.0014C13.4908 26.993 13.4063 26.9054 13.3876 26.4549C13.3876 26.3892 13.3876 26.3245 13.3876 26.2599C13.3928 25.6832 13.4668 25.5987 14.0383 25.5987C18.0055 25.5987 21.9726 25.5987 25.9398 25.5987C26.5008 25.5987 26.5707 25.6759 26.578 26.2244C26.578 26.3016 26.578 26.3798 26.578 26.458C26.5613 26.8992 26.4831 26.9868 26.0482 26.9983C25.5268 27.0129 25.0053 26.9983 24.4839 27.0035C23.5119 27.0097 23.1459 27.3779 23.1427 28.3592C23.1427 29.0746 23.1334 29.7901 23.1427 30.5055C23.1553 31.295 23.5401 31.6808 24.3254 31.6829C26.1602 31.6899 27.9943 31.6899 29.8277 31.6829C30.6025 31.6829 30.9999 31.2845 31.0134 30.5013C31.027 29.7473 31.0291 28.9933 31.0134 28.2393C30.9957 27.4404 30.5587 27.016 29.7672 27.0076C29.1957 27.0014 28.62 27.0139 28.0506 27.0024C27.6094 26.9941 27.5291 26.9086 27.5104 26.4747C27.4989 26.1233 27.5104 25.7718 27.5104 25.4214C27.5041 24.779 27.3988 24.6674 26.7626 24.6664C24.9549 24.6664 23.1473 24.6664 21.3396 24.6664C21.1842 24.6664 21.0267 24.6664 20.8724 24.6559C20.6409 24.6382 20.5313 24.5162 20.498 24.2867C20.3593 23.3398 20.4907 23.1802 21.4366 23.1792C21.8913 23.1792 22.347 23.1865 22.8017 23.1792C23.4859 23.1646 23.8957 22.7746 23.9155 22.0873C23.9385 21.253 23.9406 20.4187 23.9155 19.5906C23.8947 18.9336 23.4786 18.5342 22.8205 18.5091C22.2354 18.4883 21.6504 18.5091 21.0643 18.4998C20.5856 18.4904 20.5063 18.4048 20.4928 17.9209C20.4928 17.7645 20.4928 17.6081 20.4928 17.4527C20.4855 17.1221 20.6117 16.9187 20.96 16.8447C21.4668 16.7352 21.7651 16.3973 21.8808 15.8946C21.9497 15.5901 21.9851 15.2793 22.0508 14.9737C22.1666 14.4346 22.6098 14.2437 23.0812 14.5399C23.3138 14.6838 23.5192 14.8674 23.7455 15.0196C24.3556 15.4264 24.9334 15.4138 25.4392 14.8841C25.8376 14.4669 26.2735 14.3459 26.8304 14.3543C28.4688 14.3803 30.1082 14.3616 31.7476 14.3647C32.3734 14.3647 32.4318 14.4304 32.4338 15.0645C32.4338 15.9353 32.4338 16.8071 32.4338 17.678C32.4251 17.8474 32.4416 18.0171 32.4829 18.1817C32.5517 18.408 32.705 18.5394 32.9417 18.5237C33.1785 18.5081 33.2859 18.3579 33.3349 18.1493C33.3663 17.9697 33.3765 17.787 33.3651 17.605C33.3651 14.4054 33.3985 11.2058 33.3495 8.01038C33.3307 6.77142 33.8209 6.21661 35.1547 6.03932C37.4626 5.72645 38.9091 7.68395 38.9091 9.39116C38.9091 16.934 38.9091 24.4776 38.9091 32.0219C38.9091 32.2127 38.9686 32.4661 38.7829 32.5631C38.5744 32.6737 38.4096 32.4588 38.25 32.3316C37.0632 31.4201 35.7554 31.15 34.3173 31.5953C33.483 31.8539 33.3672 31.7778 33.3672 30.8882C33.3672 27.7012 33.3672 24.5144 33.3672 21.3281C33.3751 21.1592 33.3677 20.9899 33.3453 20.8223C33.3036 20.597 33.1826 20.4301 32.9407 20.4176C32.682 20.4051 32.5329 20.5605 32.4683 20.7993C32.4379 20.9393 32.4267 21.0828 32.4349 21.2259C32.4349 24.5422 32.4349 27.859 32.4349 31.1761C32.427 31.3841 32.452 31.5921 32.5089 31.7924C32.7331 32.488 33.3537 32.8353 34.0733 32.657C34.2756 32.608 34.4643 32.5141 34.6635 32.4557C35.3628 32.2531 36.1094 32.2862 36.7879 32.5501C37.4665 32.814 38.0393 33.2939 38.4179 33.9157C38.8047 34.5409 38.9686 35.2785 38.8831 36.0086C38.7975 36.7387 38.4674 37.4184 37.9465 37.9371C37.2478 38.6546 36.401 38.9518 35.4175 38.9518C28.4337 38.9518 21.4494 38.9518 14.4649 38.9518C14.2959 38.9518 14.1259 38.9435 13.958 38.9612C13.5346 39.0082 13.373 39.2887 13.5409 39.6777C13.5899 39.7757 13.6869 39.8633 13.6618 39.9958Z" fill="#FEFEFE"/>
<path d="M13.6618 39.9959C13.4241 39.7873 13.2155 39.5547 13.349 39.2033C13.4825 38.8518 13.7922 38.8226 14.1218 38.8226C21.2357 38.8226 28.3495 38.8226 35.4634 38.8226C37.0007 38.8226 38.2323 37.9476 38.6411 36.5491C39.0072 35.2977 38.712 34.1943 37.7734 33.3078C36.8348 32.4214 35.7116 32.2024 34.4873 32.632C34.1139 32.7634 33.75 32.8938 33.3526 32.7947C32.7144 32.6362 32.3202 32.0751 32.3202 31.3222C32.3202 28.6955 32.3202 26.0684 32.3202 23.4411C32.3202 22.6224 32.3202 21.8027 32.3202 20.983C32.3202 20.5012 32.5434 20.2373 32.9261 20.2467C33.2911 20.2561 33.4893 20.5074 33.4893 20.9767C33.4893 24.3703 33.4893 27.7645 33.4893 31.1595C33.4893 31.7049 33.5278 31.7247 34.0441 31.5412C35.6793 30.9582 37.1581 31.2544 38.4847 32.3578C38.5702 32.4287 38.6484 32.5069 38.7871 32.6341V32.2326C38.7871 24.6543 38.7871 17.0725 38.7871 9.4872C38.7871 7.84153 37.7839 6.53166 36.2529 6.17916C35.5363 6.01448 34.7845 6.10985 34.1317 6.44823C33.6728 6.67558 33.4851 7.04372 33.4861 7.55056C33.4924 10.9573 33.4924 14.3641 33.4861 17.7709C33.4861 18.3966 33.2963 18.6897 32.8938 18.6803C32.4912 18.6709 32.316 18.382 32.316 17.7479C32.316 16.7468 32.3108 15.7456 32.316 14.7444C32.316 14.5358 32.2753 14.4555 32.0438 14.4566C30.1186 14.4656 28.1938 14.4656 26.2693 14.4566C26.017 14.4566 25.8939 14.6005 25.7562 14.7475C25.4006 15.124 25.0314 15.4525 24.4589 15.4233C24.0688 15.4035 23.7758 15.2002 23.4827 14.9832C23.294 14.8445 23.1083 14.7017 22.9154 14.5661C22.8472 14.5188 22.768 14.4899 22.6855 14.4822C22.6029 14.4745 22.5197 14.4881 22.4439 14.5219C22.3682 14.5556 22.3024 14.6083 22.2529 14.6749C22.2034 14.7414 22.1719 14.8196 22.1614 14.9019C22.1061 15.2346 22.0634 15.5704 22.0008 15.902C21.9609 16.1813 21.8286 16.4392 21.625 16.6344C21.4215 16.8297 21.1583 16.9511 20.8776 16.9793C20.6398 17.0096 20.5522 17.0774 20.5522 17.3349C20.5522 18.3653 20.5397 18.3653 21.5732 18.3653C22.0029 18.3653 22.4315 18.358 22.8612 18.3653C23.0145 18.3642 23.1665 18.3936 23.3084 18.4518C23.4502 18.5101 23.579 18.5959 23.6874 18.7045C23.7957 18.813 23.8813 18.942 23.9393 19.0839C23.9973 19.2259 24.0264 19.3779 24.025 19.5313C24.0396 20.4024 24.0396 21.2736 24.025 22.1447C24.0125 22.8101 23.5276 23.2857 22.8528 23.3013C22.1781 23.317 21.5263 23.3159 20.863 23.3013C20.6231 23.2961 20.5564 23.3691 20.5501 23.609C20.5387 24.51 20.5303 24.51 21.4324 24.51H26.8169C27.4853 24.51 27.6439 24.6696 27.6512 25.3349C27.6512 25.7385 27.6699 26.1421 27.6449 26.5437C27.6272 26.8304 27.7356 26.8878 27.9974 26.8805C28.6231 26.8617 29.2489 26.8711 29.8694 26.8753C30.6234 26.8753 31.1209 27.3623 31.1271 28.1111C31.1355 28.9454 31.1375 29.7797 31.1271 30.6078C31.1177 31.3201 30.637 31.8113 29.9236 31.8155C28.0249 31.8259 26.1261 31.8259 24.2274 31.8155C23.49 31.8155 23.0249 31.319 23.0207 30.5765C23.0159 29.7568 23.0159 28.9374 23.0207 28.1184C23.0259 27.3644 23.5119 26.8805 24.267 26.8753C24.9167 26.8753 25.5675 26.868 26.2172 26.8753C26.4112 26.8753 26.4821 26.8367 26.4894 26.6219C26.5175 25.677 26.5259 25.677 25.5842 25.677C21.6949 25.677 17.8063 25.6749 13.9184 25.6708C13.5868 25.6708 13.4449 25.7177 13.4616 26.1004C13.4971 26.8701 13.472 26.8711 14.2302 26.8711C14.7246 26.8711 15.2189 26.8711 15.7122 26.8711C16.4255 26.8795 16.924 27.3581 16.9323 28.0611C16.9428 28.9183 16.9428 29.7766 16.9323 30.6359C16.924 31.3034 16.4484 31.804 15.7852 31.8082C13.8475 31.8214 11.9098 31.8214 9.97211 31.8082C9.82179 31.8087 9.67286 31.7794 9.53401 31.7218C9.39515 31.6642 9.26915 31.5796 9.16334 31.4728C9.05753 31.366 8.97404 31.2392 8.91773 31.0999C8.86142 30.9605 8.83342 30.8113 8.83536 30.661C8.81798 29.7905 8.81798 28.9194 8.83536 28.0475C8.84683 27.3675 9.3568 26.8836 10.0368 26.8763C10.7 26.868 11.3633 26.8659 12.0256 26.8763C12.2456 26.8763 12.3207 26.82 12.3134 26.5948C12.2967 26.1401 12.304 25.6843 12.3134 25.2296C12.3197 24.6946 12.5042 24.509 13.0486 24.5079C15.0249 24.5079 17.0022 24.4975 18.9785 24.5152C19.3195 24.5152 19.4238 24.4412 19.4113 24.0887C19.3842 23.3044 19.404 23.3034 18.6062 23.3034C18.1119 23.3034 17.6175 23.3128 17.1232 23.3034C16.414 23.2846 15.9406 22.7976 15.9343 22.0822C15.9273 21.2479 15.9273 20.4156 15.9343 19.5855C15.9416 18.8555 16.4297 18.3726 17.1639 18.3643C17.8136 18.3559 18.4644 18.3549 19.1141 18.3643C19.3227 18.3643 19.4332 18.3173 19.405 18.0858C19.3977 17.9688 19.3977 17.8514 19.405 17.7344C19.405 17.1212 19.405 17.1295 18.8408 16.9293C18.6164 16.8571 18.4161 16.7245 18.2619 16.5461C18.1078 16.3676 18.0057 16.1502 17.9669 15.9177C17.9033 15.5996 17.8626 15.2773 17.8105 14.9572C17.7395 14.4952 17.361 14.3398 16.9762 14.6182C16.7342 14.7934 16.4975 14.9759 16.2461 15.1397C15.6381 15.5568 14.9728 15.5307 14.4836 14.9853C14.0884 14.5452 13.6618 14.4242 13.0914 14.4368C11.4009 14.4722 9.7093 14.4587 8.01878 14.4368C7.70591 14.4368 7.64438 14.5296 7.64542 14.8237C7.65377 20.3113 7.6555 25.7994 7.65064 31.2878C7.65064 32.2941 6.92687 32.9616 6.01643 32.7916C5.64725 32.7228 5.31561 32.5298 4.94017 32.4631C4.50538 32.3866 4.05947 32.4005 3.63032 32.5041C3.20116 32.6077 2.79797 32.7986 2.44593 33.065C2.09389 33.3314 1.80057 33.6675 1.58429 34.0524C1.368 34.4373 1.2334 34.8626 1.1889 35.3018C0.989707 37.105 2.42681 38.7872 4.24978 38.8143C6.51285 38.8466 8.77592 38.8226 11.039 38.8258C11.5344 38.8258 11.8003 39.1219 11.7252 39.5443C11.6866 39.7529 11.4989 39.8394 11.3998 39.9959H4.14132C4.01617 39.9135 3.87642 39.974 3.74502 39.9552C2.65311 39.9552 1.82923 39.4046 1.10964 38.6599C0.465455 38.0134 0.0737279 37.1578 0.00521979 36.2477V15.0239C0.16061 14.6599 0.35563 14.5254 0.672668 14.565C0.989706 14.6047 1.21914 14.8351 1.27546 15.1908C1.29834 15.3985 1.30497 15.6077 1.29527 15.8165C1.29527 21.1227 1.29527 26.4289 1.29527 31.7352C1.29527 31.8989 1.26816 32.0689 1.32865 32.2211C1.45796 32.2556 1.51637 32.17 1.5852 32.1169C2.87734 31.1668 4.27898 30.8727 5.8235 31.3868C6.2928 31.5433 6.3585 31.4911 6.35954 30.9697C6.35954 29.2917 6.35954 27.6137 6.35954 25.9356C6.35954 19.914 6.35954 13.8924 6.35954 7.87073C6.35954 6.94151 6.09256 6.59006 5.19672 6.33768C3.29866 5.80268 1.35472 7.26168 1.2984 9.27863C1.27337 10.2016 1.2984 11.1256 1.29214 12.0496C1.3 12.2184 1.29056 12.3875 1.26399 12.5543C1.19203 12.9058 0.95112 13.1394 0.645553 13.1655C0.283671 13.1968 0.0928218 13.0028 0.00209045 12.6764V8.70295C0.241955 6.82575 1.32969 5.63686 3.0661 5.04033C4.25186 4.6336 5.4345 4.7723 6.53788 5.38031C7.37949 5.84335 7.75493 6.59945 7.76014 7.54222C7.76848 9.23274 7.76014 10.9233 7.76014 12.6148C7.76014 13.1895 7.76014 13.1947 8.35355 13.1947C9.73224 13.1947 11.1109 13.1947 12.4896 13.1947C12.8025 13.1947 13.0278 13.1467 13.0194 12.7629C13.0194 12.5908 13.1154 12.4417 13.2061 12.2978C13.3657 12.0444 13.5523 11.8097 13.7276 11.5678C13.9997 11.1777 13.8955 10.917 13.4241 10.8106C13.1832 10.7554 12.937 10.7272 12.694 10.6834C11.9119 10.5426 11.4082 9.97632 11.3717 9.17642C11.3518 8.7478 11.3498 8.31813 11.3717 7.8895C11.4165 7.03642 11.8733 6.52332 12.7128 6.36584C12.9683 6.31891 13.228 6.28762 13.4825 6.23861C13.8558 6.16665 13.9726 5.90488 13.7818 5.57742C13.6441 5.34172 13.4689 5.13106 13.3146 4.90475C12.8693 4.24669 12.8734 3.62096 13.3625 2.99627C13.7052 2.55352 14.109 2.16165 14.5619 1.8324C15.1219 1.4288 15.6913 1.41525 16.2712 1.79277C16.5225 1.95442 16.7561 2.14318 17.0012 2.30692C17.3505 2.53427 17.5925 2.43519 17.6937 2.03264C17.7656 1.74167 17.7708 1.44027 17.8417 1.14827C18.042 0.34837 18.4664 0.00734538 19.2934 0.00317383C19.7742 0.00317383 20.256 0.00317383 20.7368 0.00317383C21.4929 0.0115169 21.9142 0.344199 22.1113 1.08048C22.1927 1.38292 22.2 1.69787 22.2719 2.00239C22.3762 2.43206 22.6109 2.53322 22.9832 2.30274C23.2262 2.15257 23.441 1.95859 23.6798 1.80216C24.2649 1.41525 24.8458 1.41525 25.4173 1.8324C25.8569 2.16039 26.2501 2.54627 26.5864 2.97958C27.0963 3.62096 27.1078 4.24252 26.6427 4.92039C26.4967 5.13523 26.3298 5.33755 26.1963 5.56073C25.9878 5.90697 26.1035 6.1729 26.4967 6.24591C26.7647 6.29597 27.0369 6.32829 27.3049 6.38148C28.0694 6.53374 28.5188 7.01556 28.5856 7.79147C28.6257 8.28429 28.6257 8.77955 28.5856 9.27237C28.5282 10.0139 28.0266 10.5468 27.2955 10.6844C27.015 10.7366 26.7272 10.7616 26.4518 10.8377C26.0806 10.942 25.9878 11.1934 26.1995 11.5188C26.3402 11.7367 26.5123 11.9359 26.6542 12.1528C26.76 12.3013 26.844 12.4643 26.9034 12.6367C27.0734 13.1988 27.0734 13.1988 27.6824 13.1988C28.9833 13.1988 30.2838 13.1988 31.5839 13.1988C32.1992 13.1988 32.2002 13.1988 32.2002 12.5648C32.2002 10.9393 32.2002 9.31374 32.2002 7.68822C32.2002 6.39295 32.7217 5.62434 33.9304 5.14462C36.3092 4.19872 39.0468 5.48773 39.829 7.92079C39.9457 8.30677 40.0017 8.70857 39.9948 9.11177C39.9948 18.0212 39.9865 26.9306 40.0052 35.84C40.0052 37.9862 38.1989 39.7216 36.6461 39.9354C36.5177 39.9506 36.3885 39.9587 36.2592 39.9594C36.1142 39.9781 35.9619 39.9166 35.8232 40L13.6618 39.9959Z" fill="#9C5789"/>
<path d="M0.00521851 12.6784C0.18251 12.9652 0.416117 13.1686 0.771742 13.0497C1.12737 12.9308 1.18264 12.6325 1.17951 12.2936C1.17117 11.2799 1.15761 10.2652 1.17951 9.2515C1.23687 6.91126 3.71165 5.40324 5.78804 6.42423C6.24378 6.64845 6.47321 6.98843 6.47217 7.50049C6.47217 15.4174 6.47217 23.3336 6.47217 31.2492C6.47217 31.6548 6.39604 31.7153 6.05502 31.586C4.24143 30.9019 2.64477 31.2731 1.22123 32.5788C1.12528 32.4568 1.17743 32.3108 1.17743 32.1805C1.17325 26.681 1.17325 21.1821 1.17743 15.684C1.17743 15.6069 1.17743 15.5286 1.17743 15.4504C1.19307 15.1209 1.14822 14.8247 0.786342 14.687C0.42446 14.5494 0.210667 14.7778 0.00626082 15.0197L0.00521851 12.6784Z" fill="#FEFEFE"/>
<path d="M0.00521675 36.2477C0.200237 36.8275 0.331641 37.4303 0.682051 37.9518C1.42042 39.0478 2.4122 39.7424 3.73667 39.928C3.77005 39.9353 3.7836 39.9479 3.7763 39.9645C3.769 39.9812 3.76066 39.9937 3.75127 39.9937C2.58115 39.9937 1.40999 39.9885 0.239867 39.999C0.0448465 39.999 -0.0010409 39.9541 1.98486e-06 39.7591C0.0114738 38.5911 0.00521675 37.4199 0.00521675 36.2477Z" fill="#FEFEFE"/>
<path d="M3.75441 39.9959C3.74815 39.974 3.74398 39.9521 3.73981 39.9302C3.88268 39.9051 4.02347 39.8926 4.14445 39.9959H3.75441Z" fill="#535353"/>
<path d="M36.231 39.9301C36.231 39.952 36.2227 39.9739 36.2164 39.9958H35.8264C35.9473 39.8915 36.0839 39.9051 36.231 39.9301Z" fill="#545454"/>
<path d="M19.9619 35.1057H9.74162C9.11589 35.1057 8.82493 34.9117 8.83431 34.5112C8.8437 34.1108 9.12841 33.9355 9.72702 33.9355H30.2438C30.8393 33.9355 31.1261 34.1233 31.1323 34.5154C31.1386 34.9075 30.8455 35.1057 30.2584 35.1057H19.9619Z" fill="#9C5789"/>
<path d="M25.7166 3.98587C25.6655 4.07139 25.6227 4.15169 25.5716 4.22365C25.435 4.4145 25.3005 4.60639 25.1545 4.78889C24.5559 5.54394 24.6466 6.06018 25.1263 6.90074C25.2168 7.05247 25.3408 7.18146 25.4889 7.27782C25.6369 7.37417 25.8051 7.43533 25.9804 7.4566C26.3281 7.5157 26.6757 7.56958 27.0233 7.61825C27.2236 7.64641 27.3195 7.73505 27.3133 7.95093C27.3007 8.33993 27.3049 8.73101 27.3133 9.12105C27.3133 9.3119 27.2434 9.40159 27.0473 9.42453C26.7345 9.45895 26.4331 9.54238 26.1233 9.56115C25.0189 9.62685 24.3504 11.3268 25.0325 12.0891C25.241 12.3196 25.3954 12.5949 25.5883 12.84C25.7249 13.0121 25.7375 13.1466 25.5643 13.3072C25.288 13.5627 25.0189 13.8287 24.7644 14.1061C24.6007 14.2854 24.4714 14.2583 24.3024 14.1217C24.0594 13.9277 23.781 13.7692 23.5505 13.5658C22.761 12.888 21.1216 13.5909 21.0476 14.5514C21.0246 14.8476 20.9433 15.1396 20.9172 15.4368C20.8912 15.734 20.7858 15.8842 20.4552 15.8539C20.143 15.8255 19.8288 15.8255 19.5166 15.8539C19.1881 15.8842 19.0838 15.7319 19.0525 15.4368C19.0192 15.1145 18.9482 14.7965 18.9034 14.4752C18.7908 13.5752 17.2421 12.9464 16.5214 13.5012C16.244 13.715 15.951 13.9079 15.6725 14.1269C15.5046 14.2562 15.3732 14.2896 15.2084 14.1092C14.955 13.8297 14.687 13.5658 14.4086 13.3103C14.2375 13.1508 14.2448 13.0162 14.3825 12.8431C14.5838 12.5887 14.7558 12.3113 14.9623 12.061C15.6037 11.284 14.9467 9.66231 13.8882 9.56845C13.5753 9.54134 13.2739 9.45791 12.9642 9.42871C12.7347 9.40785 12.6513 9.31399 12.6565 9.08455C12.6701 8.70807 12.669 8.3295 12.6565 7.95302C12.6492 7.73818 12.7451 7.64849 12.9454 7.62034C13.2927 7.57341 13.6368 7.49936 13.9883 7.46286C14.9269 7.36691 15.5724 5.79424 15.0145 5.07882C14.7913 4.79202 14.5973 4.48437 14.3731 4.19653C14.2469 4.03176 14.2469 3.9087 14.4033 3.76269C14.6787 3.5051 14.9467 3.24125 15.2032 2.96279C15.3555 2.79697 15.4817 2.77612 15.6621 2.92316C15.9239 3.13174 16.2128 3.31425 16.4766 3.52491C17.2682 4.15586 18.8304 3.43001 18.9117 2.5592C18.943 2.22339 19.0223 1.89279 19.0671 1.55907C19.0995 1.32129 19.1798 1.18571 19.4603 1.20657C19.8106 1.23263 20.1623 1.23263 20.5126 1.20657C20.7931 1.18571 20.8724 1.32233 20.9047 1.55907C20.9496 1.89383 21.0288 2.22443 21.0591 2.5592C21.1373 3.42584 22.6995 4.1569 23.4952 3.52491C23.7695 3.30695 24.0615 3.10776 24.3431 2.89918C24.4557 2.81575 24.56 2.75422 24.6831 2.87832C24.996 3.19119 25.3088 3.50405 25.6217 3.81692C25.6601 3.86915 25.692 3.92589 25.7166 3.98587Z" fill="#FEFEFE"/>
<path d="M19.9849 22.1447C19.1266 22.1447 18.2683 22.1332 17.411 22.151C17.1503 22.1562 17.0867 22.0769 17.0982 21.8266C17.1148 21.1508 17.1117 20.4709 17.0982 19.7993C17.0982 19.598 17.1451 19.5344 17.3547 19.5354C19.1095 19.5438 20.8647 19.5438 22.6203 19.5354C22.8288 19.5354 22.882 19.5949 22.8778 19.7982C22.8653 20.474 22.8622 21.154 22.8778 21.8256C22.8841 22.0738 22.8236 22.1562 22.565 22.151C21.7004 22.1332 20.8421 22.1447 19.9849 22.1447Z" fill="#FEFEFE"/>
<path d="M12.8703 30.6567C12.012 30.6567 11.1547 30.6484 10.2964 30.663C10.0545 30.663 9.98984 30.5952 9.99505 30.3564C10.0117 29.6816 10.0097 29.0006 9.99505 28.3301C9.99505 28.109 10.0545 28.0474 10.2756 28.0485C12.0172 28.0568 13.7585 28.0568 15.4994 28.0485C15.7257 28.0485 15.7789 28.1163 15.7747 28.3311C15.7612 28.9944 15.757 29.6577 15.7747 30.3199C15.782 30.5837 15.7226 30.6724 15.44 30.6651C14.5859 30.6442 13.7276 30.6567 12.8703 30.6567Z" fill="#FEFEFE"/>
<path d="M27.0567 30.6568C26.212 30.6568 25.3672 30.6495 24.5225 30.662C24.2889 30.662 24.1794 30.6339 24.1898 30.3554C24.2128 29.6796 24.2055 28.9997 24.1898 28.328C24.1898 28.109 24.2451 28.0465 24.4672 28.0475C26.2054 28.0565 27.947 28.0565 29.6921 28.0475C29.9163 28.0475 29.9737 28.1142 29.9695 28.3312C29.957 29.007 29.9539 29.6869 29.9695 30.3585C29.9758 30.6005 29.9048 30.6651 29.666 30.661C28.7983 30.6485 27.9275 30.6568 27.0567 30.6568Z" fill="#FEFEFE"/>
<path d="M19.9713 5.96949C20.4777 5.96866 20.9729 6.11806 21.3943 6.39877C21.8157 6.67948 22.1444 7.07889 22.3387 7.54646C22.5331 8.01403 22.5844 8.52874 22.4861 9.02546C22.3878 9.52218 22.1444 9.97858 21.7866 10.3369C21.4289 10.6953 20.9729 10.9394 20.4763 11.0385C19.9798 11.1376 19.465 11.0871 18.9971 10.8936C18.5292 10.7 18.1292 10.372 17.8478 9.95101C17.5664 9.53005 17.4162 9.03509 17.4162 8.52874C17.4193 7.85163 17.6893 7.20305 18.1677 6.72387C18.6461 6.24469 19.2942 5.9736 19.9713 5.96949Z" fill="#9C5789"/>
<path d="M19.988 7.14063C20.2624 7.14269 20.53 7.22604 20.7571 7.38014C20.9841 7.53424 21.1604 7.75217 21.2636 8.00641C21.3669 8.26064 21.3925 8.53978 21.3371 8.80855C21.2818 9.07731 21.1481 9.32365 20.9528 9.51644C20.7575 9.70923 20.5095 9.83982 20.2401 9.89171C19.9706 9.94361 19.6918 9.91447 19.4389 9.80799C19.186 9.70151 18.9704 9.52247 18.8192 9.29347C18.668 9.06448 18.5881 8.79581 18.5895 8.52141C18.5933 8.15333 18.7425 7.80167 19.0044 7.54305C19.2664 7.28443 19.6199 7.13978 19.988 7.14063Z" fill="#FEFEFE"/>
</g>
<defs>
<clipPath id="clip0_108_468">
<rect width="40.0073" height="40" fill="white"/>
</clipPath>
</defs>
</svg>
