<svg width="40" height="40" viewBox="0 0 40 40" fill="none" xmlns="http://www.w3.org/2000/svg">
<g clip-path="url(#clip0_108_534)">
<path d="M31.6421 39.9937C31.2914 39.8162 31.2246 39.5176 31.2298 39.1491C31.2367 30.6368 31.2367 22.124 31.2298 13.611V13.1934C31.0314 13.1767 30.9166 13.2978 30.783 13.3688C29.6242 14.0588 28.3662 14.3574 27.0247 14.3532C24.5516 14.347 22.0754 14.2875 19.6054 14.3741C17.8808 14.4336 16.5915 13.1266 17.2294 11.3174C15.5298 11.3174 13.8358 11.3174 12.1474 11.3174C11.4605 11.3174 10.9552 10.9489 10.8143 10.3455C10.7859 10.1924 10.7746 10.0366 10.7809 9.88094C10.7809 8.41941 10.7809 6.96136 10.7809 5.50679C10.7809 4.538 11.2507 4.063 12.209 4.063C14.6567 4.063 17.1041 4.063 19.5511 4.063C19.8173 4.063 19.9603 4.0369 19.9896 3.71015C20.0065 3.41415 20.1139 3.13049 20.2972 2.89749C20.4806 2.66449 20.731 2.49338 21.0147 2.4073C22.1693 2.0179 23.3354 1.65879 24.5026 1.30906C25.0872 1.13368 25.6373 1.34351 26.1593 1.57631C26.4464 1.70368 26.508 1.99389 26.3963 2.28098C26.2846 2.56807 26.034 2.74763 25.7845 2.62862C24.9494 2.23191 24.2186 2.60774 23.4576 2.84576C22.8385 3.04098 22.2194 3.23515 21.6025 3.4335C21.1849 3.56817 21.0805 3.74669 21.1577 4.16427C21.2882 4.89503 21.9877 5.32618 22.7508 5.12888C23.4168 4.95628 24.0798 4.77324 24.7395 4.57976C24.8682 4.53546 25.0056 4.52248 25.1404 4.54191C25.2751 4.56133 25.4032 4.6126 25.5141 4.69146C26.0215 5.03075 26.5362 5.35855 27.055 5.68113C27.2176 5.77698 27.3583 5.90568 27.4684 6.05901C27.5784 6.21234 27.6552 6.38692 27.6939 6.57162C27.9486 7.69699 28.6021 8.44029 29.7411 8.73677C30.1127 8.8349 30.2766 9.1199 30.1963 9.43413C30.1086 9.77654 29.834 9.93209 29.4373 9.85171C29.2729 9.81438 29.111 9.76625 28.9529 9.70764C28.7963 9.65336 28.6397 9.58759 28.4863 9.52495C28.4028 9.64187 28.4424 9.75984 28.4414 9.86841C28.433 10.8435 27.9539 11.3174 26.9652 11.3174H19.5062C19.3632 11.3174 19.2191 11.3174 19.0771 11.3268C18.8544 11.344 18.6456 11.4419 18.4899 11.6021C18.3342 11.7623 18.2423 11.9738 18.2314 12.197C18.2205 12.4201 18.2914 12.6396 18.4308 12.8142C18.5701 12.9888 18.7684 13.1065 18.9884 13.1454C19.1423 13.1707 19.2981 13.1818 19.454 13.1788C21.9922 13.1788 24.5304 13.1788 27.0686 13.1788C28.1532 13.1984 29.2224 12.92 30.1597 12.3739C31.0492 11.8285 32.0544 11.4995 33.0943 11.4135C33.3156 11.3978 33.3031 11.2798 33.3031 11.1316C33.3031 9.37427 33.3031 7.61731 33.3031 5.86069C33.3031 5.68217 33.2655 5.61327 33.0692 5.61327C31.8165 5.61327 30.7433 5.1508 29.8246 4.30416C29.407 3.92103 28.9112 3.66839 28.3913 3.45438C27.9601 3.27586 27.8056 2.98669 27.9486 2.64845C28.0917 2.31021 28.4069 2.20268 28.8329 2.36867C29.5004 2.62632 30.1187 2.99675 30.6608 3.46378C30.8247 3.60471 30.9667 3.77696 31.235 3.86465V1.13472C31.235 0.939504 31.2287 0.743241 31.2413 0.549066C31.2404 0.40891 31.2946 0.274024 31.3923 0.173464C31.4899 0.0729027 31.6231 0.0147142 31.7632 0.0114319C32.0931 -0.0230185 32.3092 0.154453 32.3896 0.474946C32.4123 0.602715 32.4204 0.732657 32.4136 0.862251C32.4136 1.93021 32.4282 2.99713 32.4063 4.06405C32.4011 4.35322 32.5201 4.44613 32.7581 4.42317C32.9669 4.40333 33.2728 4.63196 33.3459 4.17262C33.4356 3.60784 33.8125 3.33224 34.4472 3.36878C34.8544 3.39174 34.9441 3.26438 34.9264 2.87812C34.894 2.14735 34.9139 1.41659 34.918 0.692087C34.918 0.260936 35.1394 0.00621193 35.4901 0.00308008C35.8409 -5.17727e-05 36.081 0.25676 36.0862 0.67956C36.0946 1.47296 36.0988 2.26741 36.0862 3.06185C36.081 3.30092 36.1426 3.38443 36.3879 3.36147C36.9005 3.3124 37.3505 3.42411 37.5926 3.94399C37.6605 4.09015 37.7858 4.04839 37.8964 4.04839C38.3777 4.04839 38.86 4.04839 39.3413 4.04839C39.7432 4.04839 39.9948 4.26657 40.0083 4.60168C40.024 4.95558 39.7672 5.20508 39.3507 5.21552C38.8955 5.22701 38.4393 5.23536 37.9852 5.21552C37.7158 5.20091 37.672 5.30113 37.672 5.54541C37.6814 7.53623 37.6856 9.52808 37.672 11.5199C37.672 11.8331 37.7764 11.8843 38.0478 11.8707C38.4894 11.8488 38.9331 11.8592 39.3757 11.8707C39.763 11.878 40.0177 12.1202 40.0146 12.4564C40.0115 12.7925 39.7588 13.0305 39.3674 13.0378C38.8861 13.0462 38.4038 13.0378 37.9225 13.0378C37.8181 13.0378 37.7033 12.9898 37.6563 13.1725C37.5029 13.7582 37.0728 13.9847 36.508 13.9367C36.1489 13.9064 36.0904 14.0359 36.0904 14.3657C36.0995 22.6178 36.1036 30.8703 36.1029 39.123C36.1029 39.4842 36.0361 39.7828 35.7219 39.9895H35.3315C34.9546 39.8966 34.8095 39.6429 34.8168 39.2702C34.8168 39.1022 34.8168 38.932 34.8168 38.7629V14.9472C34.8168 14.7906 34.8168 14.634 34.8168 14.4785C34.8168 14.2436 34.7124 14.1152 34.4744 14.0964C33.7634 14.0379 33.3166 13.6788 33.1851 12.9595C33.159 12.8155 33.087 12.7163 32.9189 12.7508C32.7759 12.7758 32.6328 12.805 32.5973 12.9825C32.5707 13.1629 32.5623 13.3454 32.5723 13.5275C32.5723 21.909 32.5723 30.2916 32.5723 38.6752C32.5723 38.8965 32.5796 39.1178 32.5577 39.3381C32.5253 39.6596 32.4073 39.9175 32.0566 39.9979L31.6421 39.9937Z" fill="#875A7B"/>
<path d="M0.00521426 29.0583C0.189993 28.7451 0.462465 28.6407 0.822627 28.6616C1.25065 28.6877 1.6818 28.6616 2.11086 28.671C2.14073 28.677 2.17151 28.6769 2.20135 28.6708C2.23119 28.6646 2.25948 28.6525 2.28453 28.6352C2.30957 28.6178 2.33087 28.5956 2.34713 28.5698C2.36339 28.5441 2.37428 28.5153 2.37916 28.4852C2.56811 27.9465 2.87086 27.7294 3.48261 27.7617C3.87931 27.7826 3.9336 27.6479 3.9336 27.2888C3.92246 18.5043 3.92003 9.71706 3.92629 0.926997C3.91768 0.7589 3.93137 0.590403 3.96701 0.425901C3.99378 0.288462 4.07402 0.167276 4.1901 0.0889741C4.30619 0.0106726 4.44861 -0.018337 4.58607 0.0083211C4.71819 0.0164559 4.84261 0.0732305 4.93534 0.167693C5.02806 0.262155 5.08252 0.387611 5.08821 0.519857C5.09831 0.662642 5.10109 0.80585 5.09656 0.94892C5.09656 9.73689 5.09378 18.5242 5.08821 27.3108C5.08821 27.6688 5.17694 27.768 5.53293 27.7565C6.22507 27.7346 6.50485 27.9653 6.68858 28.6554C6.72095 28.7733 6.74913 28.8224 6.88171 28.8349C7.52688 28.8986 7.59786 28.8412 7.59786 28.2085C7.59786 22.6881 7.59786 17.1684 7.59786 11.6494C7.58031 11.4806 7.59772 11.3101 7.64902 11.1483C7.69067 11.0229 7.77631 10.9168 7.89011 10.8497C8.0039 10.7825 8.13817 10.7588 8.26808 10.7829C8.39315 10.7923 8.51086 10.8456 8.60031 10.9336C8.68975 11.0215 8.74515 11.1383 8.75665 11.2631C8.77041 11.4057 8.77425 11.5491 8.76813 11.6922C8.76813 17.0686 8.76813 22.4452 8.76813 27.8223V28.2451C8.95813 28.2451 9.05 28.1177 9.14813 28.0279C9.98329 27.2627 10.9563 26.7752 12.0388 26.4808C12.851 26.2553 13.6559 25.9996 14.4618 25.75C14.8607 25.6215 15.2896 25.6197 15.6895 25.7448C16.7335 26.0705 17.7774 26.3889 18.8088 26.7241C19.5156 26.9516 19.9572 27.4235 20.023 28.1856C20.0428 28.4184 20.1482 28.4528 20.3466 28.4455C20.6974 28.432 21.0492 28.4351 21.401 28.4455C21.8186 28.456 22.0848 28.6971 22.0816 29.0406C22.0785 29.384 21.8186 29.6064 21.3905 29.6147C21.1817 29.6147 20.973 29.6273 20.7642 29.6147C20.1493 29.573 19.6346 29.6315 19.1502 30.167C18.5865 30.7934 17.7639 30.8779 16.9391 30.6524C16.3879 30.5021 15.8336 30.3643 15.2876 30.1973C15.2105 30.165 15.126 30.1548 15.0434 30.1677C14.9609 30.1806 14.8835 30.2161 14.8199 30.2704C14.7684 30.3098 14.7136 30.3447 14.656 30.3747C13.9461 30.7683 13.4429 31.259 13.111 32.0816C12.8124 32.8176 12.7477 33.5087 12.7289 34.253C12.7237 34.4816 12.8009 34.5328 13.017 34.5328C17.9382 34.5265 22.8594 34.5265 27.7806 34.5328C27.9747 34.5328 28.052 34.491 28.0509 34.277C28.0412 32.8155 28.0412 31.3575 28.0509 29.9029C28.0509 29.6367 27.9382 29.6116 27.7242 29.6127C26.6176 29.62 25.511 29.6179 24.4044 29.6127C23.8971 29.6127 23.6507 29.4174 23.6528 29.0312C23.6549 28.6449 23.9148 28.4434 24.4096 28.4424C25.558 28.4424 26.7011 28.4372 27.8463 28.4424C28.7149 28.4424 29.2149 28.9644 29.216 29.8392C29.216 31.3098 29.216 32.7807 29.216 34.252C29.216 35.2135 28.7379 35.6958 27.7868 35.6968H22.7571C22.8688 36.13 22.993 36.5414 22.9095 36.9892C22.7226 37.9747 21.9042 38.7263 20.8967 38.7305C18.0593 38.742 15.2208 38.7483 12.3833 38.7211C11.3697 38.7117 10.4124 38.4079 9.51665 37.9267C9.29011 37.8045 9.06566 37.6772 8.76604 37.5091C8.76604 38.1062 8.75039 38.6428 8.76604 39.1794C8.77962 39.5385 8.68462 39.8152 8.35368 39.9854H7.96325C7.57594 39.8883 7.48199 39.5907 7.46946 39.2462C7.45171 38.7535 7.46946 38.2607 7.46215 37.768C7.46512 37.6513 7.46129 37.5345 7.45067 37.4183C7.42666 37.2095 7.28155 37.151 7.09886 37.127C6.89007 37.0988 6.841 37.2231 6.79924 37.3943C6.60507 38.1824 6.36183 38.3933 5.54024 38.4497C5.26777 38.4685 5.17277 38.5844 5.18321 38.837C5.18947 38.98 5.17694 39.123 5.18321 39.265C5.19991 39.6367 5.05689 39.8914 4.68211 39.9854H4.29063C3.9597 39.9102 3.84173 39.6722 3.80415 39.359C3.79197 39.2299 3.78709 39.1003 3.78953 38.9706C3.78327 38.4904 3.78953 38.4862 3.30305 38.4487C3.14123 38.4391 2.98324 38.3956 2.83934 38.321C2.69545 38.2463 2.56889 38.1422 2.46789 38.0154C2.3972 37.9231 2.30437 37.8501 2.19798 37.8032C2.0916 37.7563 1.9751 37.737 1.85927 37.7471C1.47092 37.7569 1.08188 37.7569 0.692134 37.7471C0.349718 37.7377 0.0876868 37.6145 -5.01165e-06 37.2502V36.8702C0.0876868 36.5048 0.349718 36.3775 0.693178 36.3649C1.03664 36.3524 1.36966 36.3649 1.7079 36.3576C2.1902 36.3576 2.22048 36.3273 2.22152 35.8524C2.22152 34.5516 2.22152 33.2508 2.22152 31.949C2.22152 31.427 2.21108 30.9051 2.22152 30.3883C2.22987 30.0657 2.0952 29.9467 1.78202 29.9572C1.41768 29.9697 1.05125 29.9676 0.689002 29.9572C0.345542 29.9446 0.0835109 29.8162 -0.00418091 29.4519L0.00521426 29.0583Z" fill="#875A7B"/>
<path d="M32.0326 39.9938C32.3457 39.785 32.4115 39.4854 32.4115 39.1252C32.4053 30.4813 32.4035 21.837 32.4063 13.1924C32.4063 12.732 32.7299 12.4836 33.1872 12.5734C33.3333 12.6015 33.2916 12.6913 33.2999 12.7728C33.3834 13.6716 33.6663 13.9576 34.5527 13.9388C34.8982 13.9315 34.917 14.0746 34.917 14.3481C34.9121 22.6015 34.909 30.855 34.9076 39.1085C34.9076 39.4833 34.9462 39.8069 35.3179 39.9938H32.0326Z" fill="#FEFEFE"/>
<path d="M0.00522429 29.4489C0.192091 29.762 0.462474 29.8664 0.821593 29.8456C1.24961 29.8205 1.67972 29.8456 2.10878 29.8362C2.29983 29.8299 2.34576 29.8967 2.34576 30.0794C2.3395 32.1332 2.3395 34.1863 2.34576 36.2387C2.34576 36.4611 2.25807 36.4913 2.0712 36.4861C1.65362 36.4757 1.23604 36.5018 0.824726 36.4778C0.466651 36.4569 0.198356 36.5655 0.00418091 36.8682L0.00522429 29.4489Z" fill="#FEFEFE"/>
<path d="M0.00521063 37.2606C0.185814 37.5738 0.458285 37.6897 0.817404 37.6615C1.08883 37.6396 1.36339 37.6615 1.63482 37.6552C2.03361 37.6396 2.39273 37.6124 2.64954 38.0561C2.83745 38.3808 3.2519 38.3787 3.60893 38.3474C3.85948 38.3244 3.96178 38.4017 3.92838 38.6606C3.9075 38.8276 3.93986 38.9998 3.92211 39.1669C3.89976 39.3263 3.92357 39.4889 3.99073 39.6352C4.05789 39.7816 4.16559 39.9056 4.30107 39.9926C2.94393 39.9926 1.59306 39.9926 0.239056 39.9979C0.0438374 39.9979 -0.0031405 39.954 -8.64779e-06 39.7588C0.0125188 38.9268 0.00521063 38.0937 0.00521063 37.2606Z" fill="#FEFEFE"/>
<path d="M4.69675 39.9938C4.83878 39.9276 4.95531 39.8168 5.02861 39.6783C5.10191 39.5398 5.12798 39.3811 5.10284 39.2265C5.08718 39.0855 5.12059 38.9373 5.09658 38.7985C5.02977 38.4111 5.19262 38.3287 5.55905 38.3412C6.31591 38.3673 6.67295 38.0092 6.70218 37.2357C6.71053 37.0081 6.76481 36.9308 6.99135 36.9966C7.1052 37.0228 7.22122 37.0385 7.33794 37.0436C7.54047 37.0634 7.61459 37.1584 7.60832 37.3724C7.59162 37.957 7.61667 38.5427 7.59788 39.1273C7.5864 39.4875 7.66261 39.7871 7.97684 39.9938H4.69675Z" fill="#FEFEFE"/>
<path d="M20.0021 16.3702H27.6553C28.7765 16.3702 29.2212 16.8097 29.2212 17.9184C29.2212 19.3632 29.2212 20.8077 29.2212 22.2519C29.2212 23.1068 28.7285 23.6205 27.8714 23.6215C22.6266 23.6278 17.3814 23.6278 12.1359 23.6215C11.2768 23.6215 10.7882 23.1089 10.7861 22.2519C10.7861 20.7945 10.7861 19.3368 10.7861 17.8787C10.7861 16.817 11.236 16.3713 12.3113 16.3713L20.0021 16.3702Z" fill="#875A7B"/>
<path d="M20.4124 32.6611H15.5371C15.4205 32.666 15.3037 32.6635 15.1874 32.6538C15.0626 32.6449 14.9449 32.5925 14.8548 32.5057C14.7647 32.4189 14.7081 32.3032 14.6947 32.1788C14.6669 32.0505 14.6863 31.9165 14.7494 31.8015C14.8125 31.6864 14.915 31.598 15.0381 31.5524C15.198 31.4957 15.3685 31.4758 15.5371 31.4939C18.7748 31.4939 22.011 31.4939 25.2459 31.4939C25.3884 31.4858 25.5314 31.4974 25.6707 31.5284C25.8024 31.5637 25.9172 31.6447 25.9948 31.7568C26.0723 31.8689 26.1075 32.0049 26.0941 32.1406C26.0806 32.2762 26.0195 32.4027 25.9215 32.4974C25.8235 32.5922 25.6951 32.6491 25.559 32.6579C25.3001 32.6747 25.0371 32.6642 24.7792 32.6642L20.4124 32.6611Z" fill="#875A7B"/>
<path d="M8.76814 4.60491C8.76814 5.89245 8.76814 7.17999 8.76814 8.46753C8.76814 8.9467 8.53951 9.22648 8.17204 9.21395C7.80457 9.20142 7.59891 8.93417 7.59787 8.47379C7.59787 5.88479 7.59787 3.29614 7.59787 0.707843C7.59787 0.394658 7.70226 0.140978 8.01545 0.0334512C8.28166 -0.0573725 8.49776 0.0407586 8.66688 0.255812C8.79111 0.412405 8.77127 0.599272 8.77127 0.777787C8.76918 2.05349 8.76814 3.3292 8.76814 4.60491Z" fill="#875A7B"/>
<path d="M19.596 10.1451C17.1761 10.1451 14.7573 10.1389 12.3374 10.1514C12.0305 10.1514 11.9449 10.0752 11.9491 9.7641C11.9658 8.35999 11.9626 6.95483 11.9491 5.55072C11.9491 5.29599 12.0159 5.225 12.2727 5.22605C14.8742 5.23579 17.4757 5.23579 20.0773 5.22605C20.1526 5.21968 20.2283 5.23286 20.2971 5.26432C20.3658 5.29578 20.4253 5.34444 20.4698 5.40561C21.14 6.24077 22.0117 6.50906 23.0431 6.25329C23.5839 6.11967 24.1215 5.96934 24.656 5.80962C24.8742 5.74385 25.0569 5.75324 25.2333 5.90357C25.3142 5.96856 25.4017 6.0249 25.4943 6.07165C26.1395 6.40989 26.7095 6.80241 26.8003 7.61461C26.8061 7.65344 26.8232 7.68973 26.8494 7.719C27.3515 8.30883 27.2544 9.01976 27.2753 9.71503C27.2847 10.0512 27.2074 10.1535 26.8525 10.1504C24.4347 10.1337 22.0148 10.1451 19.596 10.1451Z" fill="#FEFEFE"/>
<path d="M36.4923 8.63977C36.4923 9.90191 36.4808 11.164 36.5007 12.4262C36.5007 12.731 36.4119 12.7989 36.129 12.7843C35.6874 12.7602 35.2438 12.7665 34.8022 12.7843C34.56 12.7926 34.465 12.7383 34.466 12.4711C34.4765 9.92035 34.4765 7.36998 34.466 4.81996C34.466 4.61117 34.513 4.52348 34.7437 4.53078C35.2375 4.54853 35.7323 4.54958 36.2261 4.53078C36.4652 4.52139 36.4955 4.61639 36.4944 4.82205C36.4881 6.0894 36.4923 7.36407 36.4923 8.63977Z" fill="#FEFEFE"/>
<path d="M11.5544 33.8961C11.472 35.2532 12.0253 35.7543 13.4471 35.7198C15.7887 35.6624 18.1324 35.7042 20.476 35.7042C20.593 35.7042 20.7109 35.7042 20.8268 35.7042C21.3811 35.7376 21.781 36.1364 21.7757 36.6437C21.7743 36.7679 21.748 36.8905 21.6985 37.0044C21.6489 37.1183 21.5771 37.2211 21.4872 37.3068C21.3973 37.3925 21.2912 37.4594 21.1751 37.5034C21.059 37.5475 20.9352 37.5679 20.8111 37.5635C18.0133 37.5687 15.2145 37.577 12.4157 37.553C11.5916 37.5375 10.7856 37.3087 10.0762 36.8891C9.09801 36.3264 8.07494 35.8963 6.93704 35.8054C6.75435 35.7908 6.68753 35.7303 6.7011 35.5444C6.71259 35.3233 6.71259 35.1017 6.7011 34.8805C6.68753 34.4473 6.47248 34.203 6.11336 34.2009C5.75424 34.1988 5.53606 34.4358 5.53293 34.8763C5.52666 35.5392 5.52144 36.2032 5.53293 36.8671C5.53293 37.0958 5.49325 37.1918 5.23749 37.1803C4.75623 37.1584 4.27392 37.1647 3.79266 37.1803C3.58387 37.1866 3.50244 37.1438 3.50244 36.9099C3.51218 34.346 3.51218 31.7817 3.50244 29.2171C3.50244 28.977 3.56403 28.9039 3.80623 28.9133C4.27392 28.9331 4.74579 28.9342 5.21139 28.9133C5.48073 28.9007 5.53606 28.9999 5.53188 29.2473C5.51831 30.1326 5.52457 31.0221 5.53188 31.9021C5.53188 32.3594 5.75111 32.6329 6.10501 32.6329C6.45891 32.6329 6.69589 32.3573 6.7011 31.9115C6.70737 31.4041 6.71676 30.8957 6.7011 30.3894C6.68962 30.1034 6.74599 29.9865 7.07275 29.9896C8.09884 30.0075 9.09417 29.639 9.86114 28.9571C10.5829 28.3178 11.4441 27.8559 12.376 27.6083C13.1642 27.3995 13.9419 27.1417 14.7207 26.8953C14.9685 26.8134 15.2361 26.8134 15.4839 26.8953C16.4474 27.2085 17.4131 27.505 18.3777 27.813C18.836 27.9591 18.9477 28.1658 18.8349 28.6387C18.7605 28.9454 18.5699 29.2112 18.3033 29.3801C18.0366 29.549 17.7149 29.6077 17.4058 29.5438C16.675 29.3716 15.9442 29.1701 15.225 28.9592C15.1081 28.9208 14.984 28.9102 14.8623 28.9283C14.7407 28.9464 14.625 28.9928 14.5245 29.0636C14.0025 29.4039 13.4777 29.7404 12.9502 30.0731C12.7881 30.17 12.6477 30.2992 12.5377 30.4528C12.4278 30.6064 12.3507 30.781 12.3113 30.9657C12.0545 32.0869 11.4114 32.8396 10.262 33.1225C9.90081 33.2123 9.7296 33.514 9.80999 33.8272C9.89664 34.1643 10.1994 34.3366 10.5669 34.251C10.9077 34.1681 11.2388 34.0491 11.5544 33.8961Z" fill="#FEFEFE"/>
<path d="M20.0021 17.5425C22.5535 17.5425 25.1039 17.5488 27.6553 17.5342C27.9852 17.5342 28.0604 17.6302 28.0562 17.9518C28.0384 19.3444 28.0436 20.737 28.0562 22.1276C28.0562 22.376 28.0008 22.4616 27.7357 22.4606C22.5814 22.4536 17.4274 22.4536 12.2737 22.4606C12.0086 22.4606 11.9512 22.376 11.9532 22.1276C11.9647 20.7088 11.9679 19.2901 11.9532 17.8724C11.9532 17.577 12.0629 17.5394 12.3144 17.5394C14.8742 17.5457 17.4382 17.5425 20.0021 17.5425Z" fill="#FEFEFE"/>
<path d="M19.6137 7.09994C21.2653 7.09994 22.9165 7.09994 24.5673 7.09994C25.0653 7.09994 25.3221 7.30351 25.32 7.68351C25.3179 8.0635 25.0538 8.26603 24.5631 8.26603C21.2601 8.26603 17.9577 8.26603 14.656 8.26603C14.3136 8.26603 14.0297 8.18669 13.9253 7.82548C13.8881 7.70583 13.8924 7.57713 13.9375 7.46023C13.9826 7.34334 14.0658 7.24508 14.1737 7.18137C14.3251 7.07697 14.4953 7.09263 14.6633 7.09263C16.3128 7.09681 17.9629 7.09924 19.6137 7.09994Z" fill="#875A7B"/>
<path d="M19.9875 20.5846C18.2587 20.5846 16.5299 20.5846 14.8011 20.5846C14.6454 20.5898 14.4896 20.5775 14.3366 20.548C14.2126 20.5148 14.1034 20.4409 14.0265 20.3382C13.9496 20.2354 13.9095 20.1098 13.9126 19.9815C13.9157 19.8531 13.9619 19.7296 14.0438 19.6307C14.1256 19.5318 14.2383 19.4633 14.3637 19.4362C14.4672 19.4189 14.5721 19.4123 14.6769 19.4164H25.3252C25.442 19.4114 25.5591 19.4202 25.6739 19.4425C25.7931 19.473 25.8993 19.5411 25.9768 19.6367C26.0543 19.7323 26.0988 19.8504 26.1039 19.9733C26.1089 20.0963 26.0742 20.2176 26.0048 20.3193C25.9354 20.4209 25.8351 20.4975 25.7188 20.5376C25.555 20.5784 25.3862 20.5946 25.2177 20.5856C23.4736 20.5898 21.7302 20.5894 19.9875 20.5846Z" fill="#875A7B"/>
</g>
<defs>
<clipPath id="clip0_108_534">
<rect width="39.999" height="40" fill="white"/>
</clipPath>
</defs>
</svg>
