<svg width="40" height="40" viewBox="0 0 40 40" fill="none" xmlns="http://www.w3.org/2000/svg">
<g clip-path="url(#clip0_89_2)">
<path d="M13.1573 14.2937C12.9205 14.6137 12.6142 14.8758 12.2615 15.0602C11.9087 15.2446 11.5187 15.3465 11.1208 15.3583C10.8083 15.3708 10.774 15.4833 10.774 15.751C10.7809 21.0225 10.783 26.2948 10.7802 31.5677C10.7982 31.9437 10.7549 32.3201 10.6521 32.6823C10.4469 33.3044 10.0258 33.8326 9.46511 34.1713C8.90438 34.51 8.24096 34.637 7.59479 34.5291C6.29062 34.3208 5.33541 33.175 5.32916 31.7666C5.31771 29.2083 5.32916 26.65 5.32916 24.0916V23.7416C5.32916 21.0791 5.32916 18.4177 5.33646 15.7552C5.33646 15.4531 5.25833 15.3729 4.95521 15.3573C3.59271 15.2885 2.41354 14.0843 2.34271 12.725C2.26354 11.2145 3.24896 9.91767 4.66146 9.67079C5.32916 9.55517 5.32812 9.55517 5.32916 8.87184C5.32916 8.40517 5.31146 7.93434 5.44687 7.48225C5.83958 6.15934 7.07916 5.3635 8.47708 5.54475C9.73854 5.70725 10.7344 6.83121 10.776 8.14892C10.7885 8.51246 10.7969 8.87809 10.776 9.23954C10.7625 9.50413 10.8104 9.60933 11.1198 9.63642C12.275 9.74058 13.1177 10.3312 13.5687 11.4073C13.999 12.4323 13.8396 13.4166 13.1573 14.2937Z" fill="#FEFEFE"/>
<path d="M23.0406 22.6324C22.7115 22.6115 22.6833 22.4949 22.6844 22.2261C22.6927 19.8886 22.6844 17.5511 22.6844 15.2136C22.6844 12.8761 22.7 10.5386 22.6792 8.2011C22.6745 7.7815 22.5726 7.36869 22.3816 6.99505C22.1906 6.62141 21.9157 6.29709 21.5783 6.04753C21.241 5.79797 20.8504 5.62996 20.4372 5.55666C20.024 5.48336 19.5995 5.50677 19.1969 5.62506C18.0198 5.9636 17.2365 7.0261 17.2354 8.31465C17.2354 12.9633 17.2354 17.6122 17.2354 22.2615C17.2354 22.4959 17.2292 22.6146 16.9229 22.6324C16.1904 22.6773 15.5028 23.0008 15.0012 23.5365C14.4996 24.0722 14.2219 24.7795 14.2251 25.5134C14.2283 26.2473 14.5121 26.9522 15.0184 27.4835C15.5247 28.0148 16.215 28.3323 16.9479 28.3709C17.2042 28.3844 17.2365 28.4657 17.2333 28.6834C17.2229 29.6969 17.2261 30.7094 17.2333 31.7219C17.2396 33.3428 18.4073 34.5584 19.9573 34.5605C21.5073 34.5626 22.6802 33.349 22.6865 31.7282C22.6865 30.7292 22.6948 29.7292 22.6865 28.7292C22.6865 28.4844 22.7083 28.3813 23.0042 28.3657C24.5042 28.2896 25.6823 27.0271 25.7011 25.5178C25.706 24.7892 25.434 24.0859 24.9401 23.5502C24.4462 23.0146 23.7672 22.6865 23.0406 22.6324ZM18.4052 8.29589C18.4052 7.37194 19.0656 6.69589 19.9479 6.68964C20.849 6.68235 21.5156 7.36152 21.5177 8.30735C21.5226 10.6178 21.5226 12.9282 21.5177 15.2386C21.5177 17.574 21.5104 19.9105 21.5261 22.2469C21.5261 22.5594 21.4333 22.6261 21.1406 22.6188C20.3365 22.599 19.5313 22.6053 18.7271 22.6188C18.4979 22.6188 18.3938 22.5959 18.3938 22.3157C18.4063 17.6407 18.4011 12.9688 18.4052 8.29589ZM21.5188 30.2896C21.5188 30.8105 21.5281 31.3313 21.5188 31.8449C21.5179 32.0491 21.4769 32.2512 21.398 32.4395C21.3191 32.6279 21.2038 32.7989 21.0588 32.9427C20.9138 33.0866 20.7419 33.2004 20.5529 33.2778C20.3639 33.3552 20.1615 33.3946 19.9573 33.3938C19.7531 33.393 19.551 33.352 19.3626 33.273C19.1743 33.1941 19.0033 33.0789 18.8594 32.9339C18.7156 32.7889 18.6017 32.617 18.5243 32.428C18.4469 32.239 18.4075 32.0366 18.4083 31.8324C18.3979 30.7699 18.4083 29.7074 18.4 28.6449C18.4 28.4126 18.4781 28.373 18.6865 28.3751C19.5413 28.3869 20.3965 28.3869 21.2521 28.3751C21.4781 28.3751 21.5323 28.4428 21.5261 28.6574C21.5094 29.2011 21.5198 29.7449 21.5188 30.2896ZM22.7688 27.2094C21.8313 27.2146 20.9 27.2094 19.9656 27.2094C19.0313 27.2094 18.0979 27.2094 17.1636 27.2094C16.1719 27.2094 15.4136 26.474 15.3927 25.5188C15.3719 24.5636 16.1469 23.7886 17.1563 23.7844C19.0236 23.7761 20.8917 23.7761 22.7604 23.7844C23.7719 23.7896 24.5417 24.5563 24.5313 25.5157C24.5208 26.4751 23.7563 27.2042 22.7656 27.2094H22.7688Z" fill="#FEFEFE"/>
<path d="M34.9104 15.3062C34.6167 15.2844 34.5885 15.1812 34.5927 14.9375C34.6052 14.0927 34.5979 13.2489 34.5927 12.4041C34.5927 11.8583 34.3844 11.5708 33.9958 11.5708C33.6073 11.5708 33.425 11.8469 33.425 12.3781C33.425 13.2489 33.4146 14.1187 33.4302 14.9885C33.4302 15.2312 33.3677 15.301 33.1271 15.2927C32.2833 15.2781 31.4385 15.276 30.5948 15.2927C30.3406 15.2927 30.301 15.2114 30.3031 14.9802C30.3146 13.85 30.3083 12.7208 30.3083 11.5906C30.3083 10.5 30.3083 9.40311 30.3083 8.31769C30.3135 7.35727 30.9604 6.68123 31.8583 6.68227C32.7562 6.68331 33.4052 7.35935 33.4208 8.31665C33.4281 8.78435 33.4208 9.25415 33.4208 9.71977C33.4271 10.1552 33.6385 10.3896 34.0062 10.3854C34.35 10.3854 34.576 10.1437 34.5844 9.7406C34.5958 9.20831 34.6073 8.67394 34.5781 8.14373C34.501 6.74477 33.4615 5.63644 32.1562 5.5281C30.7094 5.40935 29.5115 6.27081 29.1896 7.6604C29.1357 7.96733 29.1175 8.27948 29.1354 8.5906C29.1354 10.7073 29.1292 12.825 29.1354 14.9448C29.1354 15.2104 29.075 15.3052 28.799 15.3021C28.5785 15.3093 28.3606 15.3511 28.1531 15.426C26.8229 15.8427 25.9531 17.1573 26.126 18.4739C26.3146 19.9198 27.4083 20.9583 28.8562 21.0427C29.0781 21.0562 29.1604 21.1187 29.1302 21.3344C29.125 21.412 29.125 21.49 29.1302 21.5677C29.1302 24.9844 29.1187 28.4 29.1354 31.8156C29.1437 33.6729 30.8406 34.95 32.5958 34.4573C33.8125 34.1166 34.5812 33.0448 34.5823 31.6666C34.5823 28.2514 34.5823 24.8357 34.5823 21.4198C34.5823 21.2385 34.5146 21.0583 34.8427 21.0396C35.5758 21.0048 36.2678 20.6909 36.7767 20.1621C37.2857 19.6333 37.5729 18.9298 37.5796 18.1959C37.5862 17.4621 37.3118 16.7535 36.8126 16.2155C36.3133 15.6776 35.6271 15.3511 34.8948 15.3031L34.9104 15.3062ZM33.426 31.7427C33.426 32.6104 32.8792 33.2698 32.1104 33.3729C31.7352 33.4339 31.3505 33.3554 31.0292 33.1522C30.708 32.9489 30.4722 32.635 30.3667 32.2698C30.3189 32.0676 30.301 31.8595 30.3135 31.6521C30.3135 29.9909 30.3135 28.3291 30.3135 26.6666C30.3135 24.9135 30.3219 23.1614 30.3062 21.4083C30.3062 21.1156 30.376 21.0396 30.6677 21.0479C31.4719 21.0698 32.2781 21.0656 33.0823 21.0479C33.3396 21.0427 33.4375 21.0916 33.4365 21.3802C33.425 24.8354 33.4312 28.2896 33.426 31.7427ZM34.6115 19.8864C33.6896 19.8864 32.7687 19.8864 31.8479 19.8864C30.9271 19.8864 30.0052 19.8864 29.0844 19.8864C28.0656 19.8864 27.2979 19.1469 27.2948 18.1812C27.2917 17.2156 28.0604 16.4656 29.0771 16.4604C30.9326 16.4521 32.7878 16.4521 34.6427 16.4604C35.6844 16.4656 36.4354 17.2125 36.4208 18.2125C36.4073 19.1844 35.6542 19.8833 34.6115 19.8864Z" fill="#FEFEFE"/>
<path d="M38.7979 34.8959C38.4011 37.248 36.4438 38.9407 34.0625 38.9428C24.6583 38.9504 15.2549 38.9504 5.8521 38.9428C4.58127 38.9428 3.36249 38.4379 2.46388 37.5393C1.56526 36.6407 1.06043 35.4219 1.06043 34.1511C1.0521 33.2292 1.06043 32.3063 1.06043 31.3844C1.0681 31.2285 1.06007 31.0721 1.03647 30.9178C0.951053 30.5011 0.653137 30.374 0.289595 30.598C0.203137 30.6511 0.132304 30.7396 0.0125122 30.7178C0.184387 30.4251 0.418762 30.2261 0.775012 30.3407C1.13126 30.4553 1.19168 30.7573 1.18543 31.0938C1.17605 32.1063 1.17814 33.1198 1.18543 34.1334C1.18241 34.7481 1.3009 35.3573 1.5341 35.926C1.76729 36.4947 2.11059 37.0117 2.54426 37.4473C2.97793 37.8829 3.49341 38.2285 4.06109 38.4642C4.62876 38.7 5.23742 38.8212 5.8521 38.8209C15.2674 38.8278 24.6837 38.8278 34.1011 38.8209C34.7128 38.8206 35.3185 38.6997 35.8834 38.465C36.4484 38.2303 36.9614 37.8864 37.3933 37.4531C37.8251 37.0198 38.1673 36.5056 38.4001 35.9399C38.6329 35.3741 38.7518 34.7681 38.75 34.1563C38.757 24.7396 38.757 15.323 38.75 5.9063C38.7497 5.29456 38.6288 4.68887 38.3941 4.12393C38.1594 3.559 37.8155 3.04592 37.3822 2.61407C36.9489 2.18223 36.4347 1.8401 35.869 1.60729C35.3033 1.37448 34.6972 1.25557 34.0854 1.25735C24.6827 1.2511 15.2792 1.2511 5.87501 1.25735C5.25691 1.25331 4.64418 1.37235 4.07255 1.60753C3.50092 1.84271 2.98183 2.18933 2.54553 2.62719C2.10923 3.06504 1.76445 3.58536 1.5313 4.15782C1.29814 4.73028 1.18128 5.34343 1.18751 5.96151C1.18265 13.3921 1.18265 20.8226 1.18751 28.2532C1.19676 28.4083 1.18697 28.564 1.15835 28.7167C1.13191 28.8254 1.073 28.9235 0.989452 28.998C0.905905 29.0724 0.80168 29.1196 0.690637 29.1334C0.378137 29.1938 0.19897 28.9771 0.018762 28.7761C0.166679 28.7521 0.253137 28.8719 0.368762 28.923C0.69897 29.0698 0.96772 28.9365 1.04168 28.5803C1.07162 28.3734 1.07999 28.1639 1.06668 27.9553C1.06668 20.6428 1.05626 13.3303 1.07397 6.01776C1.07397 3.96985 2.05418 2.4761 3.89168 1.57505C4.56564 1.24276 5.29793 1.13443 6.04897 1.13443C14.9719 1.13443 23.8955 1.13443 32.8198 1.13443C33.4677 1.13443 34.1177 1.08547 34.7636 1.19172C37.2063 1.59068 38.8781 3.54485 38.8792 6.02505C38.8792 14.9098 38.8792 23.7942 38.8792 32.6782C38.8636 33.4188 38.9229 34.1594 38.7979 34.8959Z" fill="#FEFEFE"/>
<path d="M39.9677 34.3468C39.9781 36.9395 38.0635 39.1249 35.9542 39.8114C35.5688 39.9374 35.1625 39.9156 34.7708 39.9937H5.07396C3.80834 39.8968 2.74271 39.3614 1.82709 38.502C0.862502 37.5968 0.197919 36.5302 0.0489605 35.1874C0.0518961 35.1363 0.0451818 35.0851 0.0291686 35.0364C0.0235441 35.0252 0.0161581 35.015 0.0072937 35.0062V30.7177C0.179169 30.4249 0.413544 30.226 0.769794 30.3406C1.12604 30.4552 1.18646 30.7572 1.18021 31.0937C1.17084 32.1062 1.17292 33.1197 1.18021 34.1333C1.17719 34.7479 1.29568 35.3571 1.52888 35.9259C1.76207 36.4946 2.10537 37.0116 2.53904 37.4472C2.97271 37.8828 3.4882 38.2284 4.05587 38.4641C4.62354 38.6999 5.23221 38.8211 5.84688 38.8208C15.2622 38.8277 24.6785 38.8277 34.0958 38.8208C34.7076 38.8205 35.3133 38.6996 35.8782 38.4649C36.4431 38.2301 36.9562 37.8863 37.3881 37.453C37.8199 37.0197 38.162 36.5055 38.3948 35.9398C38.6277 35.374 38.7466 34.7679 38.7448 34.1562C38.7517 24.7395 38.7517 15.3229 38.7448 5.90619C38.7445 5.29444 38.6236 4.68876 38.3889 4.12382C38.1542 3.55889 37.8103 3.04581 37.377 2.61396C36.9437 2.18212 36.4295 1.83999 35.8638 1.60718C35.298 1.37437 34.692 1.25545 34.0802 1.25724C24.6774 1.25099 15.274 1.25099 5.86979 1.25724C5.25169 1.25319 4.63896 1.37224 4.06733 1.60742C3.4957 1.8426 2.97661 2.18922 2.54031 2.62707C2.10401 3.06493 1.75923 3.58525 1.52608 4.15771C1.29292 4.73017 1.17606 5.34332 1.18229 5.9614C1.17743 13.392 1.17743 20.8225 1.18229 28.2531C1.19154 28.4082 1.18175 28.5639 1.15313 28.7166C1.12669 28.8253 1.06778 28.9234 0.984234 28.9979C0.900688 29.0723 0.796462 29.1195 0.685419 29.1333C0.372919 29.1937 0.193752 28.977 0.0135434 28.776V5.15203C0.0843768 3.90203 0.602086 2.8489 1.43334 1.94786C2.53646 0.752027 3.87292 0.0447358 5.54375 0.0457775C15.1396 0.0499442 24.7354 0.0499442 34.3312 0.0457775C36.2802 0.0457775 37.7573 0.933278 38.9042 2.44161C39.6542 3.42807 39.9667 4.54786 39.9656 5.78849C39.9479 15.3124 39.9302 24.8291 39.9677 34.3468Z" fill="#9C5789"/>
<path d="M34.7709 39.9938C35.0656 39.9188 35.3625 39.8511 35.6552 39.7688C36.8722 39.4331 37.9463 38.7093 38.7144 37.7074C39.4824 36.7054 39.9024 35.4802 39.9104 34.2178C39.9209 24.7615 39.9209 15.3056 39.9104 5.85006C39.9003 4.32561 39.2901 2.86651 38.212 1.78873C37.1338 0.710959 35.6745 0.101278 34.15 0.0917231C24.6952 0.0785287 15.2396 0.0785287 5.78336 0.0917231C2.98232 0.0917231 0.605235 2.13339 0.0927345 4.91256C0.0771095 4.99589 0.11461 5.10006 0.00835975 5.15318C0.00835975 3.54277 0.0166931 1.93235 0.00106812 0.322973C0.00106812 0.0604733 0.0469015 0.00109863 0.313568 0.00109863C10.2997 0.0108209 20.2854 0.0132514 30.2709 0.00839027C33.4139 0.00839027 36.5563 0.00630639 39.6979 0.00213973C39.9417 0.00213973 39.9959 0.0573484 39.9959 0.301098C39.9896 13.4421 39.9896 26.583 39.9959 39.724C39.9959 39.9636 39.9407 40.0021 39.7136 40.0011C38.0688 39.9886 36.4198 39.9938 34.7709 39.9938Z" fill="#FEFEFE"/>
<path d="M13.1573 14.2937C12.9205 14.6137 12.6142 14.8758 12.2615 15.0602C11.9087 15.2446 11.5187 15.3465 11.1208 15.3583C10.8083 15.3708 10.774 15.4833 10.774 15.751C10.7809 21.0225 10.783 26.2948 10.7802 31.5677C10.7982 31.9437 10.7549 32.3201 10.6521 32.6823C10.4469 33.3044 10.0258 33.8326 9.46511 34.1713C8.90438 34.51 8.24096 34.637 7.59479 34.5291C6.29062 34.3208 5.33541 33.175 5.32916 31.7666C5.31771 29.2083 5.32916 26.65 5.32916 24.0916V23.7416C5.32916 21.0791 5.32916 18.4177 5.33646 15.7552C5.33646 15.4531 5.25833 15.3729 4.95521 15.3573C3.59271 15.2885 2.41354 14.0843 2.34271 12.725C2.26354 11.2145 3.24896 9.91767 4.66146 9.67079C5.32916 9.55517 5.32812 9.55517 5.32916 8.87184C5.32916 8.40517 5.31146 7.93434 5.44687 7.48225C5.83958 6.15934 7.07916 5.3635 8.47708 5.54475C9.73854 5.70725 10.7344 6.83121 10.776 8.14892C10.7885 8.51246 10.7969 8.87809 10.776 9.23954C10.7625 9.50413 10.8104 9.60933 11.1198 9.63642C12.275 9.74058 13.1177 10.3312 13.5687 11.4073C13.999 12.4323 13.8396 13.4166 13.1573 14.2937Z" fill="#9C5789"/>
<path d="M23.0406 22.6324C22.7115 22.6115 22.6833 22.4949 22.6844 22.2261C22.6927 19.8886 22.6844 17.5511 22.6844 15.2136C22.6844 12.8761 22.7 10.5386 22.6792 8.2011C22.6745 7.7815 22.5726 7.36869 22.3816 6.99505C22.1906 6.62141 21.9157 6.29709 21.5783 6.04753C21.241 5.79797 20.8504 5.62996 20.4372 5.55666C20.024 5.48336 19.5995 5.50677 19.1969 5.62506C18.0198 5.9636 17.2365 7.0261 17.2354 8.31465C17.2354 12.9633 17.2354 17.6122 17.2354 22.2615C17.2354 22.4959 17.2292 22.6146 16.9229 22.6324C16.1904 22.6773 15.5028 23.0008 15.0012 23.5365C14.4996 24.0722 14.2219 24.7795 14.2251 25.5134C14.2283 26.2473 14.5121 26.9522 15.0184 27.4835C15.5247 28.0148 16.215 28.3323 16.9479 28.3709C17.2042 28.3844 17.2365 28.4657 17.2333 28.6834C17.2229 29.6969 17.2261 30.7094 17.2333 31.7219C17.2396 33.3428 18.4073 34.5584 19.9573 34.5605C21.5073 34.5626 22.6802 33.349 22.6865 31.7282C22.6865 30.7292 22.6948 29.7292 22.6865 28.7292C22.6865 28.4844 22.7083 28.3813 23.0042 28.3657C24.5042 28.2896 25.6823 27.0271 25.7011 25.5178C25.706 24.7892 25.434 24.0859 24.9401 23.5502C24.4462 23.0146 23.7672 22.6865 23.0406 22.6324ZM18.4052 8.29589C18.4052 7.37194 19.0656 6.69589 19.9479 6.68964C20.849 6.68235 21.5156 7.36152 21.5177 8.30735C21.5226 10.6178 21.5226 12.9282 21.5177 15.2386C21.5177 17.574 21.5104 19.9105 21.5261 22.2469C21.5261 22.5594 21.4333 22.6261 21.1406 22.6188C20.3365 22.599 19.5313 22.6053 18.7271 22.6188C18.4979 22.6188 18.3938 22.5959 18.3938 22.3157C18.4063 17.6407 18.4011 12.9688 18.4052 8.29589ZM21.5188 30.2896C21.5188 30.8105 21.5281 31.3313 21.5188 31.8449C21.5179 32.0491 21.4769 32.2512 21.398 32.4395C21.3191 32.6279 21.2038 32.7989 21.0588 32.9427C20.9138 33.0866 20.7419 33.2004 20.5529 33.2778C20.3639 33.3552 20.1615 33.3946 19.9573 33.3938C19.7531 33.393 19.551 33.352 19.3626 33.273C19.1743 33.1941 19.0033 33.0789 18.8594 32.9339C18.7156 32.7889 18.6017 32.617 18.5243 32.428C18.4469 32.239 18.4075 32.0366 18.4083 31.8324C18.3979 30.7699 18.4083 29.7074 18.4 28.6449C18.4 28.4126 18.4781 28.373 18.6865 28.3751C19.5413 28.3869 20.3965 28.3869 21.2521 28.3751C21.4781 28.3751 21.5323 28.4428 21.5261 28.6574C21.5094 29.2011 21.5198 29.7449 21.5188 30.2896ZM22.7688 27.2094C21.8313 27.2146 20.9 27.2094 19.9656 27.2094C19.0313 27.2094 18.0979 27.2094 17.1636 27.2094C16.1719 27.2094 15.4136 26.474 15.3927 25.5188C15.3719 24.5636 16.1469 23.7886 17.1563 23.7844C19.0236 23.7761 20.8917 23.7761 22.7604 23.7844C23.7719 23.7896 24.5417 24.5563 24.5313 25.5157C24.5208 26.4751 23.7563 27.2042 22.7656 27.2094H22.7688Z" fill="#9C5789"/>
<path d="M34.9104 15.3062C34.6167 15.2844 34.5885 15.1812 34.5927 14.9375C34.6052 14.0927 34.5979 13.2489 34.5927 12.4041C34.5927 11.8583 34.3844 11.5708 33.9958 11.5708C33.6073 11.5708 33.425 11.8469 33.425 12.3781C33.425 13.2489 33.4146 14.1187 33.4302 14.9885C33.4302 15.2312 33.3677 15.301 33.1271 15.2927C32.2833 15.2781 31.4385 15.276 30.5948 15.2927C30.3406 15.2927 30.301 15.2114 30.3031 14.9802C30.3146 13.85 30.3083 12.7208 30.3083 11.5906C30.3083 10.5 30.3083 9.40311 30.3083 8.31769C30.3135 7.35727 30.9604 6.68123 31.8583 6.68227C32.7562 6.68331 33.4052 7.35935 33.4208 8.31665C33.4281 8.78435 33.4208 9.25415 33.4208 9.71977C33.4271 10.1552 33.6385 10.3896 34.0062 10.3854C34.35 10.3854 34.576 10.1437 34.5844 9.7406C34.5958 9.20831 34.6073 8.67394 34.5781 8.14373C34.501 6.74477 33.4615 5.63644 32.1562 5.5281C30.7094 5.40935 29.5115 6.27081 29.1896 7.6604C29.1357 7.96733 29.1175 8.27948 29.1354 8.5906C29.1354 10.7073 29.1292 12.825 29.1354 14.9448C29.1354 15.2104 29.075 15.3052 28.799 15.3021C28.5785 15.3093 28.3606 15.3511 28.1531 15.426C26.8229 15.8427 25.9531 17.1573 26.126 18.4739C26.3146 19.9198 27.4083 20.9583 28.8562 21.0427C29.0781 21.0562 29.1604 21.1187 29.1302 21.3344C29.125 21.412 29.125 21.49 29.1302 21.5677C29.1302 24.9844 29.1187 28.4 29.1354 31.8156C29.1437 33.6729 30.8406 34.95 32.5958 34.4573C33.8125 34.1166 34.5812 33.0448 34.5823 31.6666C34.5823 28.2514 34.5823 24.8357 34.5823 21.4198C34.5823 21.2385 34.5146 21.0583 34.8427 21.0396C35.5758 21.0048 36.2678 20.6909 36.7767 20.1621C37.2857 19.6333 37.5729 18.9298 37.5796 18.1959C37.5862 17.4621 37.3118 16.7535 36.8126 16.2155C36.3133 15.6776 35.6271 15.3511 34.8948 15.3031L34.9104 15.3062ZM33.426 31.7427C33.426 32.6104 32.8792 33.2698 32.1104 33.3729C31.7352 33.4339 31.3505 33.3554 31.0292 33.1522C30.708 32.9489 30.4722 32.635 30.3667 32.2698C30.3189 32.0676 30.301 31.8595 30.3135 31.6521C30.3135 29.9909 30.3135 28.3291 30.3135 26.6666C30.3135 24.9135 30.3219 23.1614 30.3062 21.4083C30.3062 21.1156 30.376 21.0396 30.6677 21.0479C31.4719 21.0698 32.2781 21.0656 33.0823 21.0479C33.3396 21.0427 33.4375 21.0916 33.4365 21.3802C33.425 24.8354 33.4312 28.2896 33.426 31.7427ZM34.6115 19.8864C33.6896 19.8864 32.7687 19.8864 31.8479 19.8864C30.9271 19.8864 30.0052 19.8864 29.0844 19.8864C28.0656 19.8864 27.2979 19.1469 27.2948 18.1812C27.2917 17.2156 28.0604 16.4656 29.0771 16.4604C30.9326 16.4521 32.7878 16.4521 34.6427 16.4604C35.6844 16.4656 36.4354 17.2125 36.4208 18.2125C36.4073 19.1844 35.6542 19.8833 34.6115 19.8864Z" fill="#9C5789"/>
<path d="M9.60937 23.8219C9.60937 26.4844 9.61666 29.1469 9.60937 31.8084C9.60416 32.9605 8.50625 33.7115 7.47708 33.2813C6.85208 33.0198 6.53958 32.524 6.50208 31.8573C6.48958 31.6636 6.50208 31.4678 6.50208 31.273C6.50208 26.1174 6.49896 20.9619 6.49271 15.8063C6.49271 15.4344 6.60416 15.3584 6.94687 15.3698C7.725 15.3938 8.50937 15.3896 9.28333 15.3698C9.56354 15.3636 9.62396 15.4532 9.62292 15.7188C9.60625 18.4198 9.61041 21.1209 9.60937 23.8219Z" fill="#FEFEFE"/>
<path d="M8.04479 14.2083C7.12396 14.2083 6.20208 14.2083 5.28125 14.2083C4.23958 14.2 3.50313 13.4854 3.50104 12.5052C3.49896 11.525 4.24479 10.7896 5.27188 10.7833C7.12674 10.7729 8.98194 10.7729 10.8375 10.7833C11.8562 10.7885 12.625 11.5354 12.6281 12.4958C12.6312 13.4562 11.874 14.1989 10.8469 14.2083C9.91354 14.2146 8.97917 14.2073 8.04479 14.2083Z" fill="#FEFEFE"/>
<path d="M8.07084 9.60938C7.64376 9.60938 7.21459 9.5948 6.78751 9.61459C6.54063 9.62605 6.47501 9.54063 6.48959 9.30209C6.50938 8.96667 6.48959 8.62813 6.49584 8.29167C6.5198 7.3448 7.18438 6.67501 8.0823 6.68542C8.95938 6.69584 9.59584 7.36667 9.60938 8.30105C9.61459 8.66459 9.60209 9.03021 9.60938 9.39063C9.61459 9.56146 9.55834 9.61355 9.38855 9.60938C8.95834 9.60209 8.51146 9.60938 8.07084 9.60938Z" fill="#FEFEFE"/>
<path d="M21.5281 22.2469C21.5281 22.5594 21.4354 22.6261 21.1427 22.6188C20.3386 22.599 19.5333 22.6053 18.7292 22.6188C18.5 22.6188 18.3958 22.5959 18.3958 22.3157C18.4063 17.6428 18.4011 12.9709 18.4052 8.29796C18.4052 7.374 19.0656 6.69796 19.9479 6.69171C20.849 6.68442 21.5156 7.36358 21.5177 8.30942C21.5226 10.6198 21.5226 12.9302 21.5177 15.2407C21.5198 17.574 21.5125 19.9105 21.5281 22.2469Z" fill="white"/>
<path d="M24.5281 25.5145C24.5146 26.4708 23.7562 27.2041 22.7656 27.2093C21.8281 27.2145 20.8969 27.2093 19.9625 27.2093C19.0281 27.2093 18.0948 27.2093 17.1604 27.2093C16.1687 27.2093 15.4104 26.4739 15.3896 25.5187C15.3687 24.5635 16.1437 23.7885 17.1531 23.7843C19.0205 23.776 20.8885 23.776 22.7573 23.7843C23.7729 23.7885 24.5427 24.5552 24.5281 25.5145Z" fill="white"/>
<path d="M21.5187 30.2895C21.5187 30.8104 21.5281 31.3312 21.5187 31.8447C21.5179 32.049 21.4769 32.251 21.398 32.4394C21.3191 32.6278 21.2038 32.7988 21.0588 32.9426C20.9138 33.0864 20.7419 33.2003 20.5529 33.2777C20.3639 33.3551 20.1615 33.3945 19.9573 33.3937C19.7531 33.3929 19.551 33.3518 19.3626 33.2729C19.1742 33.194 19.0033 33.0788 18.8594 32.9338C18.7156 32.7888 18.6017 32.6169 18.5243 32.4279C18.4469 32.2389 18.4075 32.0365 18.4083 31.8322C18.3979 30.7697 18.4083 29.7072 18.4 28.6447C18.4 28.4125 18.4781 28.3729 18.6865 28.375C19.5413 28.3868 20.3965 28.3868 21.2521 28.375C21.4781 28.375 21.5323 28.4427 21.526 28.6572C21.5094 29.201 21.5198 29.7447 21.5187 30.2895Z" fill="white"/>
<path d="M33.4375 21.3823C33.4271 24.8355 33.4375 28.2896 33.4281 31.7428C33.4281 32.6105 32.8812 33.2698 32.1125 33.373C31.7372 33.434 31.3526 33.3555 31.0313 33.1522C30.71 32.949 30.4743 32.6351 30.3687 32.2698C30.321 32.0676 30.3031 31.8595 30.3156 31.6521C30.3156 29.991 30.3156 28.3292 30.3156 26.6667C30.3156 24.9136 30.3239 23.1615 30.3083 21.4084C30.3083 21.1157 30.3781 21.0396 30.6698 21.048C31.4739 21.0698 32.2802 21.0657 33.0844 21.048C33.3385 21.0417 33.4375 21.0938 33.4375 21.3823Z" fill="white"/>
<path d="M36.4208 18.2115C36.4073 19.1844 35.6542 19.8782 34.6114 19.8865C33.6896 19.8865 32.7687 19.8865 31.8479 19.8865C30.9271 19.8865 30.0052 19.8865 29.0844 19.8865C28.0656 19.8865 27.2979 19.1469 27.2948 18.1813C27.2917 17.2157 28.0604 16.4657 29.0771 16.4605C30.9326 16.4521 32.7878 16.4521 34.6427 16.4605C35.6885 16.4646 36.4354 17.2115 36.4208 18.2115Z" fill="white"/>
</g>
<defs>
<clipPath id="clip0_89_2">
<rect width="40" height="40" fill="white"/>
</clipPath>
</defs>
</svg>
